<?xml version="1.0" standalone="no"?>
<!DOCTYPE svg PUBLIC "-//W3C//DTD SVG 1.1//EN" "http://www.w3.org/Graphics/SVG/1.1/DTD/svg11.dtd" >
<svg>
<metadata>
Created by FontForge 20090622 at Tue May 29 11:42:52 2018
 By deploy user
Copyright &#194;&#169; 2014 by Fontfabric. All rights reserved.
</metadata>
<defs>
<font id="NexaScript-SemiBold" horiz-adv-x="505" >
  <font-face 
    font-family="Nexa Script Semi Bold"
    font-weight="400"
    font-stretch="normal"
    units-per-em="1000"
    panose-1="0 0 5 0 0 0 0 0 0 0"
    ascent="800"
    descent="-200"
    x-height="425"
    cap-height="705"
    bbox="-540.333 -534.605 1932.38 910"
    underline-thickness="50"
    underline-position="-50"
    unicode-range="U+0020-U+25CA"
  />
<missing-glyph horiz-adv-x="548" 
d="M449 800v-1096h-347v1096h347zM365 727h-181v-37h71v-40h-72v-36h182v36h-72v40h72v37zM293 585h-110v-114h182v37h-72v77zM255 548v-40h-36v40h36zM365 442h-182v-37h72v-40h-72v-36h110v76h72v37zM365 376h-36v-72h-146v-38h182v110zM365 242h-110v-61h38v25h36v-52
h-110v88h-36v-124h182v124zM365 53h-182v-124h182v124zM329 16v-51h-110v51h110zM365 -97h-182v-36h77l-77 -51v-36h182v36h-112l77 51h35v36z" />
    <glyph glyph-name="f_f" unicode="ff" horiz-adv-x="744" 
d="M577 -222q-52 -74 -149 -73q-69 1 -95.5 42t-20.5 121q7 108 52 282q-106 -48 -196 -58q60 -59 69.5 -158t-32.5 -156q-52 -75 -149 -73q-69 1 -95 42.5t-20 120.5q6 111 68 347q77 285 154 395q25 35 57.5 56t63 24t59.5 -5.5t47 -33t26 -58t-4 -80.5
q-20 -91 -97.5 -167t-172.5 -113q-3 -10 -11.5 -41.5l-13.5 -51.5q130 10 265 81q78 283 152 389q31 42 71 63.5t75 18t64.5 -23.5t39.5 -61t0 -94q-19 -84 -95.5 -164t-177.5 -121q-15 -57 -23 -92q28 -9 49 -14t56 -7.5t61.5 5t54.5 31t45 63.5q4 5 13.5 2.5t18 -11
t6.5 -13.5q-38 -84 -94 -109t-133 -18q50 -63 51.5 -147t-39.5 -140zM531 310q51 31 95 99t58 133q12 50 -9.5 59t-48.5 -40q-52 -98 -95 -251zM161 313q54 37 95.5 101.5t56.5 127.5q11 50 -10.5 59t-48.5 -40q-49 -92 -93 -248zM55 -161q-1 -50 23 -50q23 0 42 41
q2 5 4 11q20 45 14 112.5t-44 103.5q-35 -147 -39 -218zM427 -161q-1 -50 23 -50q23 0 41 41q3 5 5 11q20 45 14.5 112.5t-43.5 103.5q-36 -139 -40 -218z" />
    <glyph glyph-name="f_f_i" unicode="ffi" horiz-adv-x="1010" 
d="M1020 213q4 6 13.5 3t18.5 -11.5t6 -13.5q-40 -81 -97 -139t-131 -60q-62 -1 -83.5 30t-11.5 89q-65 -57 -170 -46q50 -63 51.5 -147t-39.5 -140q-51 -73 -148 -73q-69 1 -96 42.5t-21 120.5q7 108 52 282q-107 -50 -196 -58q40 -40 58.5 -100t12 -117.5t-33.5 -96.5
q-52 -75 -149 -73q-69 2 -95 43t-20 120q6 111 68 347q77 285 154 395q30 42 70 63.5t75 18t65 -23.5t39.5 -60.5t-0.5 -93.5q-20 -91 -97.5 -167.5t-172.5 -113.5q-2 -8 -10.5 -38.5t-14.5 -54.5q124 10 265 80q78 286 152 390q26 35 58.5 56t63 24t59.5 -5.5t47 -33
t26 -58t-4 -80.5q-19 -85 -95 -164.5t-178 -120.5q-11 -40 -23 -92q32 -11 63.5 -15.5t73 -2t78 28t58.5 73.5q5 20 55 196q15 17 67 11t61 -27q-71 -247 -75 -267q-6 -29 -3.5 -46t15.5 -16q31 0 72.5 42t66.5 100zM906 483q-29 0 -46 21t-12 49q5 31 28 51t55 20
q32 -1 49 -21t12 -50q-5 -31 -28 -50.5t-58 -19.5zM254 561q-49 -92 -93 -248q55 38 96 101.5t56 127.5q12 50 -10 59t-49 -40zM626 561q-51 -97 -95 -252q53 34 96.5 102t56.5 131q12 50 -9.5 59t-48.5 -40zM124 -159q20 45 14 112.5t-44 103.5q-35 -147 -39 -218
q-1 -50 23 -50q23 0 42 41q2 5 4 11zM495 -161q13 34 16 73.5t-7.5 80t-36.5 64.5q-36 -139 -40 -218q-1 -33 11 -45.5t29 1t28 44.5z" />
    <glyph glyph-name="f_f_l" unicode="ffl" horiz-adv-x="1108" 
d="M421 -296q-52 3 -84.5 38.5t-26.5 98.5q9 127 54 309q-106 -48 -196 -58q60 -59 69.5 -158t-32.5 -156q-54 -78 -153 -73q-67 3 -92 44t-19 119q6 111 68 347q77 285 154 395q25 35 57.5 56t63 24t59.5 -5.5t47 -33t26 -58t-4 -80.5q-20 -91 -97.5 -167t-172.5 -113
q-3 -10 -11.5 -41.5l-13.5 -51.5q130 10 267 81q25 99 68.5 220t78.5 169q40 51 92.5 69t93 3.5t61 -60t1.5 -109.5q-26 -93 -96.5 -166t-174.5 -120l-10.5 -43t-12.5 -48q88 -1 153 18t121 74q6 50 19 108q26 114 72 204.5t107 127.5q38 23 78 22.5t68.5 -23t42 -64
t-2.5 -100.5q-23 -91 -90 -160.5t-171 -105.5q-36 -162 56 -168q46 -3 96 36.5t85 108.5q4 5 13 2t17.5 -11t6.5 -13q-25 -49 -47.5 -82.5t-54.5 -65t-74 -44.5t-93 -8q-127 12 -132 166q-54 -38 -103.5 -51t-114.5 -15q60 -65 73.5 -149t-22.5 -146q-26 -46 -72.5 -70.5
t-94.5 -22.5zM161 313q54 37 95.5 101.5t56.5 127.5q11 50 -10.5 59t-48.5 -40q-49 -92 -93 -248zM530 310q52 33 96.5 103t55.5 134q8 49 -13.5 54.5t-47.5 -43.5q-45 -86 -91 -248zM898 315q36 21 69 64t53 90q22 54 25.5 92t-15.5 40q-17 1 -35.5 -30t-39.5 -85
q-40 -105 -57 -171zM424 -166q-1 -45 23 -45q23 0 41 40q2 4 4 9q21 46 16 115.5t-43 105.5q-41 -160 -41 -225zM55 -161q-1 -50 23 -50q23 0 42 41q2 5 4 11q20 45 14 112.5t-44 103.5q-35 -147 -39 -218z" />
    <glyph glyph-name=".notdef" horiz-adv-x="548" 
d="M449 800v-1096h-347v1096h347zM365 727h-181v-37h71v-40h-72v-36h182v36h-72v40h72v37zM293 585h-110v-114h182v37h-72v77zM255 548v-40h-36v40h36zM365 442h-182v-37h72v-40h-72v-36h110v76h72v37zM365 376h-36v-72h-146v-38h182v110zM365 242h-110v-61h38v25h36v-52
h-110v88h-36v-124h182v124zM365 53h-182v-124h182v124zM329 16v-51h-110v51h110zM365 -97h-182v-36h77l-77 -51v-36h182v36h-112l77 51h35v36z" />
    <glyph glyph-name=".null" horiz-adv-x="0" 
 />
    <glyph glyph-name="nonmarkingreturn" horiz-adv-x="333" 
 />
    <glyph glyph-name="space" unicode=" " horiz-adv-x="233" 
 />
    <glyph glyph-name="exclam" unicode="!" horiz-adv-x="378" 
d="M96 206l61.5 228.5l63.5 234.5q6 20 39.5 23t62.5 -8t24 -26l-69 -216.5t-78 -239.5q-7 -19 -34 -22.5t-50 5.5t-20 21zM107 -10q-26 0 -43 18t-15 44q2 25 21.5 43t44.5 18q28 0 43.5 -18t13.5 -43q-3 -26 -21.5 -44t-43.5 -18z" />
    <glyph glyph-name="quotedbl" unicode="&#x22;" horiz-adv-x="385" 
d="M150 524q-4 -13 -23 -17.5t-35.5 2t-12.5 21.5l29 134q7 24 42 25q32 2 37 -17q2 -6 0 -12zM295 524q-4 -13 -23 -17.5t-35 2t-13 21.5l30 134q7 24 42 25q32 2 37 -17q2 -6 0 -12z" />
    <glyph glyph-name="numbersign" unicode="#" horiz-adv-x="629" 
d="M194 84q-5 -17 -29.5 -22t-45.5 2t-18 20l40 142h-64q-19 0 -15 29q4 31 24 39q4 2 9 2h65l27 96h-71q-24 0 -20.5 28.5t22.5 39.5q6 3 11 3h78l38 136q7 24 52 23q38 -2 42 -18q1 -2 0 -5l-38 -136h84l38 135q5 17 29.5 22t45.5 -2t18 -19l-38 -136h64q19 0 15 -29
q-3 -32 -24 -40q-5 -2 -9 -2h-66l-26 -96h71q24 0 20.5 -29t-23.5 -39q-5 -2 -10 -2h-78l-40 -143q-7 -24 -52 -22q-38 1 -42 18q-1 2 0 5l40 142h-84zM254 296h84l27 96h-84z" />
    <glyph glyph-name="dollar" unicode="$" horiz-adv-x="596" 
d="M452 698l-11 -44q57 -19 91 -60t34 -84q1 -19 -21.5 -31t-47.5 -8t-28 25q-3 50 -51 67l-44 -183q67 -59 88 -86q40 -52 39 -110q-1 -87 -56 -139t-164 -49l-16 -61q-3 -13 -21.5 -16.5t-34 4t-11.5 22.5l16 58q-94 19 -133.5 82.5t-19.5 133.5q6 22 33 26t50 -8t21 -31
q-4 -38 15 -67.5t56 -40.5l52 213q-30 24 -45.5 38.5t-37 40t-30.5 53.5t-8 60q3 87 64.5 126.5t142.5 34.5q3 15 9 38q3 14 21.5 18.5t34.5 -3t13 -19.5zM354 582q-28 6 -49 -8t-27 -41q-15 -61 38 -100q5 18 18 71t20 78zM345 263q-25 -109 -43 -178q51 -2 75.5 31.5
t14.5 77t-47 69.5z" />
    <glyph glyph-name="percent" unicode="%" horiz-adv-x="650" 
d="M188 14q-14 -20 -57 -9q-39 9 -40 29q-1 6 3 12l359 596q16 23 58 8q34 -11 38 -31q1 -7 -3 -13zM167 423q-54 0 -83 32.5t-21 77.5q7 43 45.5 73t88.5 30q51 0 82 -32t23 -77q-8 -43 -47 -73.5t-88 -30.5zM174 491q20 0 34 12.5t16 29.5q2 13 -7 23t-26 10t-30.5 -10
t-17.5 -25q-5 -16 3.5 -28t27.5 -12zM444 24q-51 0 -81.5 32.5t-22.5 77.5q7 42 46 72.5t88 30.5q54 0 83 -32t21 -77q-6 -43 -45 -73.5t-89 -30.5zM450 94q17 0 30.5 10t17.5 25q6 16 -3 28t-28 12q-20 0 -34 -13t-16 -29q-2 -13 7 -23t26 -10z" />
    <glyph glyph-name="ampersand" unicode="&#x26;" horiz-adv-x="592" 
d="M193 542q23 74 99 101q72 25 134 -7q69 -35 61 -114q-1 -9 -3 -19q-11 -49 -58.5 -93t-106.5 -73q33 -73 98 -159q36 44 45 113q2 15 19 19t33.5 -4.5t16.5 -21.5q-1 -86 -60 -167q24 -31 59 -69q19 -18 -9 -38q-31 -22 -60 -13q-7 3 -12 7q-28 27 -44 46
q-73 -57 -175 -58q-95 0 -141 51.5t-37 124.5q7 59 46.5 111t109.5 87q-39 96 -15 176zM294 525q-22 -52 -4 -117q82 45 92 113q7 40 -22 49t-53 -22q-8 -10 -13 -23zM243 289q-75 -43 -82 -120q-4 -38 16 -65.5t62 -28.5q68 0 111 43q-50 67 -107 171z" />
    <glyph glyph-name="quotesingle" unicode="'" horiz-adv-x="220" 
d="M153 524q-4 -13 -23 -17.5t-35 2t-13 21.5l30 134q7 24 42 25q32 2 37 -17q2 -6 0 -12z" />
    <glyph glyph-name="parenleft" unicode="(" horiz-adv-x="465" 
d="M210 -158q-74 81 -97 197t-2 244q22 130 93.5 245t160.5 157q13 6 35 -4.5t32 -25.5t-1 -28q-60 -49 -114 -138.5t-76 -203.5q-16 -80 -11.5 -155t21.5 -132.5t43 -101.5q14 -22 -28 -46t-56 -8z" />
    <glyph glyph-name="parenright" unicode=")" horiz-adv-x="441" 
d="M91 -160q-13 -6 -35 4.5t-32.5 25.5t0.5 28q62 50 116 141.5t76 207.5q19 127 3 221t-57 161q-14 22 28 46t56 8q74 -82 97 -198t1 -243q-21 -130 -92.5 -245t-160.5 -157z" />
    <glyph glyph-name="asterisk" unicode="*" horiz-adv-x="320" 
d="M279 503q8 -9 3.5 -22t-18 -21.5t-21.5 -0.5l-40 30l-2 -53q0 -12 -16 -17t-30.5 -0.5t-12.5 16.5l6 54l-47 -30q-9 -8 -21 1t-14.5 22t6.5 21l62 39l-54 37q-10 10 -6.5 23t17.5 21t24 0l40 -30l3 50q0 15 15.5 20.5t29.5 -0.5t12 -20l-5 -50l45 30q12 8 24.5 -0.5
t14 -22.5t-9.5 -23l-57 -36z" />
    <glyph glyph-name="plus" unicode="+" horiz-adv-x="502" 
d="M238 104q-5 -18 -45 -17t-42 19q-1 2 0 5l39 141h-93q-16 0 -21 21t4 41.5t27 20.5l106 -1l38 136q5 16 28.5 20t43.5 -4.5t16 -22.5l-36 -129h94q23 0 26 -32q2 -34 -18 -46q-6 -4 -13 -4h-112z" />
    <glyph glyph-name="comma" unicode="," horiz-adv-x="317" 
d="M107 -144q-13 -8 -28.5 -1.5t-20 18.5t2.5 21q49 45 66 100q-17 6 -27.5 21.5t-9.5 35.5q1 26 21 43.5t46 18.5q27 0 43 -18t15 -48q-1 -53 -31.5 -106t-76.5 -85z" />
    <glyph glyph-name="hyphen" unicode="-" horiz-adv-x="451" 
d="M129 223q-16 0 -20 20.5t6 41.5t28 21h190q17 0 22 -21t-4.5 -41.5t-27.5 -20.5h-194z" />
    <glyph glyph-name="period" unicode="." horiz-adv-x="265" 
d="M96 -10q-25 0 -42 18t-16 44q2 25 21.5 43t45.5 18q27 0 42.5 -18t13.5 -43q-2 -26 -21 -44t-44 -18z" />
    <glyph glyph-name="slash" unicode="/" horiz-adv-x="485" 
d="M73 29q26 47 132.5 303.5t149.5 330.5q14 25 61 15q40 -8 45 -27q2 -6 -2 -12q-45 -73 -148.5 -323.5t-135.5 -308.5q-12 -20 -58 -16q-43 5 -46 26q-1 6 2 12z" />
    <glyph glyph-name="zero" unicode="0" horiz-adv-x="545" 
d="M351 664q204 -2 159 -299q-15 -95 -52 -176.5t-103 -139t-148 -57.5q-97 0 -137 77.5t-18 226.5q14 95 52 176.5t103 136.5t144 55zM344 581q-39 1 -75.5 -53.5t-58.5 -122t-33 -133.5q-31 -196 39 -196q29 0 57 29.5t49.5 77t37 100t24.5 103.5q34 195 -40 195z" />
    <glyph glyph-name="one" unicode="1" horiz-adv-x="432" 
d="M292 646q10 17 41.5 20.5t57 -5.5t20.5 -23q-70 -214 -166 -625q-8 -22 -60 -25t-63 17q-3 6 -1 12q83 352 134 477q-22 -35 -64 -73t-72 -51q-23 -9 -43.5 7t-23.5 36t6 29q156 95 234 204z" />
    <glyph glyph-name="two" unicode="2" horiz-adv-x="496" 
d="M383 -5q-209 7 -317 1q-24 -1 -37.5 17.5t-8.5 43t26 36.5q89 54 174 157.5t110 197.5q17 64 0.5 98t-56.5 35q-36 0 -62.5 -31t-23.5 -85q2 -14 -22.5 -22.5t-50 -4.5t-26.5 19q-11 95 51 150t147 55q92 1 140 -54t26 -175q-16 -89 -94.5 -184.5t-176.5 -165.5
q90 8 219 2q20 -1 21.5 -23.5t-11.5 -44.5t-28 -22z" />
    <glyph glyph-name="three" unicode="3" horiz-adv-x="495" 
d="M213 372q61 0 94.5 33.5t39.5 89.5q8 61 -36 80q-38 18 -75 -12q-38 -30 -39 -90q0 -13 -24 -23t-48.5 -6.5t-25.5 23.5q-4 116 87 169q74 44 161 22q86 -21 115 -91q17 -40 9 -89q-9 -55 -49.5 -96t-94.5 -47q63 -12 91.5 -62.5t15.5 -118.5q-20 -101 -115 -144
q-85 -38 -173 -9q-85 28 -108 104q-12 39 -3 87q2 12 14 19.5t27 8t29.5 -3t23.5 -13.5t7 -24q-8 -60 29 -88.5t82.5 -8.5t58.5 79q13 60 -6.5 95.5t-87.5 37.5q-18 1 -23 21t3 39t21 18z" />
    <glyph glyph-name="four" unicode="4" horiz-adv-x="567" 
d="M375 646q19 25 79 18q48 -6 52 -24q1 -3 0 -5q-41 -173 -79 -411q49 0 72 -2q15 -1 22 -21t0 -39t-27 -19q-40 2 -83 0q-14 -94 -19 -119q-3 -21 -50 -27q-48 -6 -61 13q-3 5 -2 11l21 118q-147 -8 -224 -6q-28 1 -42.5 26t3.5 51l167 212t171 224zM373 499
q-35 -53 -208 -282q13 1 64.5 2.5t82.5 3.5q40 195 61 276z" />
    <glyph glyph-name="five" unicode="5" horiz-adv-x="506" 
d="M430 662q23 1 30.5 -18.5t1.5 -41t-19 -25.5q-58 -14 -191 -4q-5 -20 -16.5 -72t-16.5 -71q58 16 104 10t73.5 -28.5t45 -56t18.5 -74.5t-5 -83q-17 -86 -83 -146.5t-158 -60.5q-103 -1 -149 62.5t-27 147.5q4 18 30 22t49 -6.5t20 -28.5q-8 -50 13 -80t65 -31t73 33
t40 89q6 28 5.5 53.5t-8 49t-25 36t-47 15.5t-72.5 -12q-14 -3 -34 -4t-35.5 10.5t-10.5 33.5l13.5 56.5t19 87l16.5 77.5q8 39 27.5 47t83.5 7q104 0 169 6z" />
    <glyph glyph-name="six" unicode="6" horiz-adv-x="541" 
d="M223 -8q-51 -1 -87.5 17.5t-55 52t-26 74.5t-3.5 89q5 68 23.5 138.5t51.5 141t90.5 115t129.5 45.5q74 1 117 -39t45 -98q0 -16 -23 -24.5t-47.5 -5.5t-26.5 16q-8 38 -24.5 53t-44.5 14q-47 -1 -86 -61.5t-62 -146.5q56 61 132 63q83 1 119.5 -63.5t21.5 -153.5
q-17 -98 -81.5 -163t-162.5 -64zM226 75q43 -1 75.5 41t44.5 111q6 35 4.5 63.5t-15.5 46.5t-39 18q-42 -1 -74 -35.5t-51 -91.5q-15 -150 55 -153z" />
    <glyph glyph-name="seven" unicode="7" horiz-adv-x="421" 
d="M384 661q19 3 38.5 -3.5t28.5 -18t2 -22.5q-21 -35 -48 -89.5l-49 -103l-53 -120l-46.5 -108.5l-43.5 -104.5l-31 -74.5q-4 -18 -35.5 -23t-60 5.5t-24.5 31.5q38 102 106.5 261.5t125.5 266.5q-144 -29 -230 11q-14 11 -11.5 32.5t16 41.5t23.5 17q58 -16 119.5 -17.5
t92 3t80.5 14.5z" />
    <glyph glyph-name="eight" unicode="8" horiz-adv-x="508" 
d="M127 534q13 85 99 118q79 30 159 1q78 -30 93 -98q5 -27 -1 -57q-17 -80 -129 -141q127 -87 112 -192q-10 -76 -73.5 -125.5t-171.5 -48.5q-96 2 -144 52t-41 128q11 115 167 198q-85 78 -70 165zM244 522q-10 -60 39 -110q69 49 79 99q11 47 -25 66q-33 16 -65 -6
q-23 -17 -28 -49zM264 315q-44 -21 -74 -59t-35 -81q-5 -40 15 -69.5t58 -30.5q49 0 76.5 27.5t31.5 75.5q2 38 -18 75.5t-54 61.5z" />
    <glyph glyph-name="nine" unicode="9" horiz-adv-x="536" 
d="M191 -8q-71 -1 -111 34.5t-43 82.5q0 15 20.5 28t39.5 13t25 -11q17 -66 74 -64q50 1 90.5 59.5t56.5 138.5q-40 -54 -115 -54q-94 0 -136 66.5t-27 154.5q16 98 82 162t165 63q101 0 142 -65.5t34 -168.5q-3 -44 -11.5 -89.5t-23 -96.5t-38.5 -95t-54.5 -80t-74.5 -57
t-95 -21zM245 302q88 0 123 132q17 140 -58 147q-45 4 -78.5 -37.5t-45.5 -111.5q-10 -54 5 -92t54 -38z" />
    <glyph glyph-name="colon" unicode=":" horiz-adv-x="347" 
d="M185 291q-26 0 -43.5 18.5t-15.5 44.5q2 25 21 42.5t45 18.5q27 0 43.5 -18t14.5 -44t-21 -44t-44 -18zM136 -10q-26 0 -43.5 18t-15.5 44q1 25 20.5 43t45.5 19q27 0 43 -18t14 -44t-20.5 -44t-43.5 -18z" />
    <glyph glyph-name="semicolon" unicode=";" horiz-adv-x="347" 
d="M180 291q-26 0 -43 18t-16 44q2 25 21 43t45 18q27 0 43.5 -18t14.5 -43q-3 -26 -21.5 -44t-43.5 -18zM89 -144q-13 -9 -28.5 -2.5t-20 19t3.5 21.5q18 16 38 43.5t28 55.5q-17 7 -27.5 22.5t-9.5 35.5q1 25 20.5 42.5t45.5 18.5q27 1 43 -17t15 -49q-1 -52 -31.5 -105
t-76.5 -85z" />
    <glyph glyph-name="less" unicode="&#x3c;" horiz-adv-x="404" 
d="M177 96l-105 166q-29 46 16 82l177 142q19 15 40 5t26 -30t-9 -36l-159 -134l96 -154q8 -15 -7.5 -34t-37 -23t-37.5 16z" />
    <glyph glyph-name="equal" unicode="=" horiz-adv-x="557" 
d="M147 325q-16 0 -21 20.5t4 41.5t27 21h291q18 0 24 -20.5t-3 -41t-27 -20.5zM123 177q-16 0 -21 20.5t4 41.5t27 21h290q18 0 24 -20.5t-3 -41t-26 -20.5z" />
    <glyph glyph-name="greater" unicode="&#x3e;" horiz-adv-x="404" 
d="M218 478l105 -167q28 -46 -16 -81l-178 -143q-18 -15 -39.5 -4.5t-26.5 30t9 35.5l162 136l-96 153q-9 14 6.5 33t36.5 23t37 -15z" />
    <glyph glyph-name="question" unicode="?" horiz-adv-x="507" 
d="M141 203q1 47 21 83.5t58 77.5q5 6 36 38.5t41 45t24.5 40t16.5 53.5q8 62 -45 70q-35 5 -63.5 -24t-35.5 -88q-2 -19 -27 -25.5t-48.5 3t-22.5 28.5q4 99 59.5 144.5t144.5 42.5q74 -3 118.5 -43.5t39.5 -108.5q-2 -29 -10.5 -54.5t-27.5 -51t-30 -38t-41 -41l-37 -35.5
q-22 -22 -35 -37t-24.5 -37t-13.5 -45q-2 -16 -26.5 -22t-48 1t-23.5 23zM156 -10q-25 0 -42 18t-15 44q2 25 21.5 43t44.5 18q27 0 43 -18t14 -43q-3 -26 -22 -44t-44 -18z" />
    <glyph glyph-name="at" unicode="@" horiz-adv-x="829" 
d="M458 535q127 -1 211 -59.5t85 -167.5q2 -120 -73.5 -201t-160.5 -82q-36 -1 -61 24t-24 80q-24 -43 -51.5 -68t-69.5 -26q-54 -1 -76.5 38.5t-9 96t53.5 103.5q60 72 138 84q43 7 90 -2.5t77 -38.5q10 -10 -4.5 -31t-26.5 -13q-45 33 -103 29q-57 -6 -96 -63
q-23 -34 -32.5 -81t8.5 -59q25 -17 66 41.5t58 121.5q3 13 24.5 14.5t40 -7t15.5 -19.5q-25 -91 -28 -115t2 -34t19 -9q46 1 83 60.5t38 140.5q1 78 -55 120t-144 40q-113 -1 -196 -79.5t-101 -196.5q-9 -60 2.5 -107t39.5 -75.5t66.5 -43t85 -12.5t94.5 19q11 4 19 -12
t6.5 -35.5t-11.5 -24.5q-62 -28 -126.5 -31t-118.5 18.5t-95 61t-60 102.5t-9 137q10 72 42 137t83 115.5t125 80t160 29.5z" />
    <glyph glyph-name="A" unicode="A" horiz-adv-x="867" 
d="M234 -9q-89 -1 -130 40.5t-29 113.5q16 89 104.5 135.5t206.5 37.5l54 124.5t50 93t66 91.5q43 46 99 59t96.5 -10.5t44.5 -73.5q8 -102 -49 -316q103 3 148 47q15 13 27.5 -6t3.5 -29q-60 -68 -189 -78q-33 -133 -43 -201q-17 -23 -70 -23t-67 23q10 70 44 199
q-24 2 -118 11q-24 -58 -46 -97.5t-51.5 -73t-67 -50t-84.5 -17.5zM617 291q57 203 68 280q4 26 -10 30t-33 -21q-55 -71 -129 -278q43 -6 104 -11zM235 71q34 1 59.5 40t60.5 126q-54 2 -95.5 -22t-55.5 -70q-10 -26 -2.5 -50.5t33.5 -23.5z" />
    <glyph glyph-name="B" unicode="B" horiz-adv-x="872" 
d="M563 694q128 -1 208 -58.5t63 -148.5q-11 -57 -61.5 -92t-107.5 -36q77 -10 117.5 -73t23.5 -135q-19 -77 -76.5 -117.5t-137.5 -41.5q-108 -1 -195 68q-54 -67 -154 -68q-73 -2 -122 26.5t-46 86.5q2 55 44 85t102.5 27.5t116.5 -35.5q13 33 40.5 135.5t56 163
t69.5 80.5q25 10 56 1t33 -23q-26 -23 -68 -149q66 2 115.5 29t62.5 76q15 55 -25.5 85.5t-120.5 31.5q-77 1 -139 -26t-88 -75t1 -112q-4 -22 -30.5 -40t-50.5 -11q-68 46 -65 120t62 128q53 48 137 73.5t179 24.5zM503 324q-55 -173 -67 -200q46 -38 96.5 -50t93.5 14.5
t56 94.5q9 52 -15 86t-69 47q-40 13 -95 8zM249 145q-45 5 -59 -25q-11 -25 11 -41q16 -12 45 -7q41 7 65 49q-39 22 -62 24z" />
    <glyph glyph-name="C" unicode="C" horiz-adv-x="646" 
d="M540 693q85 -4 125 -54t21 -122q-12 -47 -51 -80.5t-91 -45.5t-115.5 0.5t-120.5 52.5q-38 -86 -36 -173q1 -110 53 -159t134 -40q54 5 108 39.5t88 102.5q5 5 14.5 2.5t18 -11t5.5 -13.5q-49 -100 -119.5 -149t-177.5 -53q-119 -4 -192.5 74.5t-63.5 218.5
q11 145 93 254q-43 71 -48 135q-1 11 12.5 17t29 2.5t17.5 -13.5q8 -47 34 -91q114 114 262 106zM519 611q-100 5 -174 -100q39 -28 87.5 -34.5t86 12t45.5 57.5q8 25 -4.5 44.5t-40.5 20.5z" />
    <glyph glyph-name="D" unicode="D" horiz-adv-x="916" 
d="M539 694q142 -4 236 -92t90 -247q-4 -166 -84 -265.5t-201 -97.5q-97 0 -186 66q-58 -66 -158 -67q-79 -1 -123.5 30.5t-40.5 86.5q5 56 49.5 84t104 24t109.5 -35q15 37 41 128.5t52.5 154t62.5 92.5q22 15 62 7t39 -24q-43 -56 -91.5 -213.5t-71.5 -199.5
q37 -28 80.5 -42t78.5 -9q68 10 107 87.5t41 192.5q4 258 -220 258q-60 0 -113.5 -29.5t-76 -77t3.5 -106.5q3 -18 -26.5 -39.5t-57.5 -10.5q-58 39 -60 110t49 126q48 55 131 82.5t173 25.5zM236 146q-40 -1 -49 -30q-9 -27 15 -41q10 -6 24 -6q51 -2 84 52q-44 25 -74 25z
" />
    <glyph glyph-name="E" unicode="E" horiz-adv-x="582" 
d="M280 706q2 -36 12 -60q38 32 95.5 43.5t109 2t87.5 -42t34 -81.5q-2 -58 -44.5 -89.5t-113.5 -29.5q-34 1 -68 16t-55 37q-4 -44 28.5 -80.5t92.5 -44.5q14 -11 6.5 -41.5t-25.5 -33.5q-42 6 -84.5 -2.5t-78 -37t-42.5 -74.5q-7 -41 13.5 -68.5t50 -37t64.5 -10.5
q72 -2 133 34.5t97 107.5q5 6 14 3t17.5 -11.5t6.5 -13.5q-46 -100 -124 -149.5t-176 -51.5q-36 -1 -70.5 5.5t-66.5 22t-54.5 38t-33.5 57.5t-5 77q11 80 70.5 128t134.5 52q-42 17 -63.5 59.5t-18.5 90t25 81.5q-20 43 -20 102q0 16 25 18t27 -16zM357 568q44 -44 94 -42
q24 -1 37.5 11t14.5 32q1 26 -27 37t-64 1t-55 -39z" />
    <glyph glyph-name="F" unicode="F" horiz-adv-x="669" 
d="M553 678q22 24 84 16q49 -6 50 -23q1 -2 0 -4q-34 -94 -106 -326q7 0 56 2q13 -9 11.5 -36t-18.5 -39q-13 0 -37 -0.5t-36 -1.5l-23.5 -72.5t-22.5 -59.5t-26 -52t-30 -38t-39.5 -29.5t-49.5 -16.5t-63 -7q-46 0 -81.5 14.5t-54.5 38.5t-25.5 53.5t0.5 58.5t28.5 55
t53.5 42q21 9 54 -15t17 -43q-35 -42 -28 -83t47 -41q13 0 24 5.5t21 20t17 27.5t16.5 40.5t15 46l16.5 55.5h-60q-16 8 -11 38t21 36q51 0 72 1q49 169 83 248q-28 -26 -65 -32t-67.5 0.5t-66 5t-59.5 -18.5q-20 -13 -26.5 -32.5t2.5 -32.5q7 -17 29.5 -20t46.5 13
q17 12 36.5 -11t10.5 -34q-43 -50 -120 -46t-111 47q-24 29 -26 68t21.5 76t69.5 56q42 18 84.5 20t75 -4.5t64.5 -10.5t63.5 5.5t61.5 39.5z" />
    <glyph glyph-name="G" unicode="G" horiz-adv-x="718" 
d="M493 693q99 -1 148.5 -59t15.5 -137q-31 -72 -100 -101.5t-146.5 -14.5t-140.5 65q-24 -46 -38.5 -105t-16 -116t25.5 -96t81 -40q115 -2 187 188q6 16 58 15q55 -2 58 -23q1 -3 0 -6q-54 -188 -71 -253q104 53 174 204q4 5 14 2.5t18.5 -11t6.5 -13.5
q-52 -103 -103.5 -160t-128.5 -89q-16 -62 -32 -102t-40.5 -73.5t-60.5 -48.5t-86 -15q-58 -1 -93.5 25.5t-29.5 79.5q3 29 17 53t34 40t51 31t58 24t65 19l27 94q-62 -64 -150 -61q-93 3 -145.5 60t-58.5 138t20.5 171.5t81.5 158.5q-45 69 -50 142q-1 11 13.5 15t30 -0.5
t16.5 -14.5q7 -50 35 -93q112 110 255 107zM487 612q-103 0 -179 -103q61 -50 135.5 -41.5t96.5 71.5q11 31 -4 52t-49 21zM404 -90q-38 -15 -67 -37.5t-36 -44.5q-13 -35 10 -41q22 -5 42 21q6 7 9 15q24 18 42 87z" />
    <glyph glyph-name="H" unicode="H" horiz-adv-x="910" 
d="M542 679q20 20 71.5 15t59.5 -27q-26 -75 -115 -363q8 -1 52 -9t67 -11l21.5 75.5t25 86l22.5 73t26 79.5t25 63q12 14 64 7.5t64 -28.5q-46 -113 -113 -364q77 5 133 46q10 7 19.5 -1t10.5 -20t-6 -21q-72 -58 -175 -67q-49 -174 -55 -197q-17 -21 -72.5 -19.5
t-63.5 26.5l56 194q-24 3 -66.5 9l-57.5 8q-18 -54 -30.5 -86t-33 -66t-43.5 -51t-57.5 -28.5t-80.5 -11.5q-97 0 -133 47.5t-22 111.5q16 81 94.5 129t196.5 42q59 186 88 267q-23 -23 -55 -30.5t-60 -2.5t-60.5 5t-57.5 -8q-53 -15 -52 -57q2 -25 27 -34t55 11
q15 2 28 -17.5t6 -35.5q-48 -50 -118 -45t-101 53q-35 51 -21 109q18 78 115 98q50 13 96 11.5t80 -9.5t72.5 0.5t73.5 42.5zM404 238q-111 -4 -139 -91q-11 -26 -2 -51t36 -25q34 -1 58 41t47 126z" />
    <glyph glyph-name="I" unicode="I" horiz-adv-x="558" 
d="M475 670q20 21 73.5 19.5t62.5 -22.5q-22 -62 -125 -389l-20 -63.5t-19 -54t-22 -50.5t-24.5 -40t-31 -35t-37 -23.5t-47.5 -17t-58 -4.5q-54 0 -93.5 21.5t-54.5 55t-15 69.5t22.5 68t61.5 46q22 4 47.5 -15t23.5 -40q-23 -26 -27.5 -55.5t9 -49t39.5 -19.5q10 0 18.5 4
t16.5 13t14.5 18t14 25.5t12.5 29t12 35.5l11.5 37.5l12.5 42t13 42.5q71 241 75 253q-23 -26 -58 -43.5t-63 -25t-52 -23.5t-30 -40q-15 -55 32 -65q10 -11 2 -35t-25 -28q-68 -6 -110 35t-30 99q8 41 38 66t72.5 38.5t87.5 25t92.5 35t78.5 60.5z" />
    <glyph glyph-name="J" unicode="J" horiz-adv-x="596" 
d="M164 -295q-45 0 -76 17.5t-42.5 45t-6 60.5t28.5 62q43 67 214 107q96 351 164 574q-28 -33 -75.5 -52l-83 -34t-43.5 -44q-15 -55 30 -67q7 -4 7 -18t-10 -29.5t-23 -15.5q-68 -4 -108.5 38t-25.5 99q10 40 41 64.5t73 37t86.5 24t91.5 36t77 62.5q23 21 75.5 18
t56.5 -24q-108 -322 -197 -641q115 43 189 189q4 4 13.5 1.5t18.5 -10.5t6 -14q-48 -98 -107.5 -149.5t-138.5 -82.5q-33 -117 -62 -164q-55 -90 -173 -90zM168 -215q17 -2 37 13.5t32 43.5q17 38 25 82q-97 -31 -118 -81q-9 -26 -1.5 -41.5t25.5 -16.5z" />
    <glyph glyph-name="K" unicode="K" horiz-adv-x="862" 
d="M752 674q21 21 72 14.5t56 -25.5q-36 -117 -102.5 -206.5t-157.5 -122.5q50 -24 68 -100q6 -23 12.5 -60t12 -64.5t15 -57t26.5 -50.5t42 -32q15 -22 -11.5 -58.5t-68.5 -33.5q-36 9 -61.5 33.5t-38.5 64t-19.5 72t-12 81t-9.5 67.5q-9 46 -26.5 69t-50.5 25
q-19 -68 -32.5 -107.5t-34.5 -81t-45.5 -62.5t-61 -34.5t-85.5 -13.5q-54 -1 -93 20.5t-54 54.5t-15 68.5t22 67.5t60 48q21 4 47.5 -13.5t25.5 -40.5q-23 -26 -28 -56t9 -50t41 -20q31 1 51.5 38t43.5 113l53.5 182l49.5 168q-23 -25 -58.5 -43t-63.5 -26.5t-51.5 -24.5
t-29.5 -40q-13 -51 31 -65q5 -4 6 -16.5t-7 -27t-21 -17.5q-68 -6 -110.5 36.5t-28.5 100.5q10 40 41 65t73.5 38t87 24.5t91.5 35.5t77 60q15 22 73 19.5t60 -23.5q-36 -98 -92 -280q27 10 51 26t41.5 31t35 38.5t27.5 39.5t22.5 43t17.5 39t15 38.5z" />
    <glyph glyph-name="L" unicode="L" horiz-adv-x="610" 
d="M484 665q19 27 74.5 24t62.5 -24q-18 -50 -83.5 -269.5t-98.5 -282.5l38 -42.5l35.5 -40l31.5 -33t32 -29t30 -19.5t33 -13t33 -1.5t37 7.5q23 -2 30.5 -43t-14.5 -63q-34 -12 -67.5 -11.5t-59 7t-56 27.5t-49 36t-46.5 48t-40 48.5l-38 50.5q-65 -48 -147 -51
q-67 -2 -108.5 28t-37.5 88q2 52 48 81.5t106 28.5t108 -29q29 82 66 213.5t51 173.5q-22 -27 -57.5 -46t-64.5 -27t-54 -23.5t-31 -39.5q-14 -52 31 -65q8 -11 1 -34.5t-22 -28.5q-69 -6 -111 35t-29 101q8 40 38 64.5t72 37t86.5 24t92 34t77.5 58.5zM195 122
q-12 -17 -1.5 -34.5t39.5 -17.5q44 -1 75 45q-25 25 -63.5 27t-49.5 -20z" />
    <glyph glyph-name="M" unicode="M" horiz-adv-x="1192" 
d="M1015 -82q-31 10 -51 32.5t-29.5 50t-9 69.5t5 79.5t18 93t25.5 96.5l31 102q3 10 9.5 29t10 32l8 30.5t5 29t-1 22.5t-8.5 16.5t-19 5.5q-41 -1 -98.5 -65.5t-95.5 -145.5q-30 -89 -55 -176l-39 -139t-21 -70q-13 -20 -72 -19t-61 28q21 64 62 211l64 225q7 23 9.5 33.5
l8 32t5.5 33t-0.5 25.5t-7.5 20.5t-18 6.5q-45 2 -111 -90t-110 -190q-22 -67 -55.5 -185t-37.5 -130q-20 -22 -73.5 -20t-60.5 28q17 51 86 287q32 113 79 263q-23 -25 -58 -42t-63.5 -25t-52 -23.5t-29.5 -39.5q-12 -53 33 -66q7 -4 7.5 -17.5t-8 -28.5t-21.5 -16
q-69 -5 -111.5 35.5t-29.5 100.5q9 40 39 64.5t72 38t87 25.5t93.5 37t80.5 63q18 20 64.5 15.5t51.5 -24.5l-40 -126q45 65 107 109.5t123 44.5q61 -1 83.5 -39.5t11.5 -103.5q109 144 217 143q31 0 53 -9.5t33.5 -23t16 -36t4.5 -41.5t-5 -47.5t-9.5 -45t-12.5 -43.5
l-10 -34l-22.5 -77.5l-22.5 -75.5t-18.5 -67.5t-12.5 -63t-1 -51t12.5 -43t30.5 -27.5q16 -22 -13.5 -60.5t-71.5 -30.5z" />
    <glyph glyph-name="N" unicode="N" horiz-adv-x="889" 
d="M755 694q26 0 45.5 -6.5t32.5 -15.5t21 -24.5t12 -30t3.5 -35.5t-2 -36t-6.5 -37.5t-8.5 -35l-9 -33t-7.5 -26.5l-22.5 -77l-22.5 -75.5t-18.5 -68t-12.5 -63.5t-1.5 -51t12.5 -42.5t30 -27.5q18 -18 -11 -58t-64 -34q-25 5 -43.5 16t-29.5 29t-18.5 38t-8 49.5t0.5 54.5
t8 62.5t13 65t18 69.5l20 69.5l21 70.5v165q-55 0 -127 -88.5t-113 -202.5l-43 -142l-31.5 -108.5t-17.5 -52.5q-9 -24 -69.5 -21.5t-63.5 29.5q25 76 80.5 266l85.5 285q-23 -26 -58.5 -44t-64 -25.5t-52.5 -23t-29 -38.5q-12 -53 33 -67q7 -4 7.5 -17.5t-8.5 -28.5
t-22 -16q-68 -6 -110 36t-30 100q11 49 56.5 77.5t98.5 39t117 38t101 73.5q17 20 63.5 16t51.5 -26l-44 -141q45 70 108 120.5t129 49.5z" />
    <glyph glyph-name="O" unicode="O" horiz-adv-x="754" 
d="M471 693q73 -3 121 -35.5t67.5 -78t23 -103t-4.5 -105.5t-22 -92q33 3 72.5 16t65.5 30q8 5 10 -10q1 -27 -11 -39q-71 -49 -158 -59q-40 -99 -117.5 -162t-181.5 -64q-135 0 -187 89q-33 55 -27 139.5t49 137.5q20 15 56 -7.5t30 -42.5q-25 -42 -26.5 -96.5t26.5 -97
t81 -43.5q109 -1 167 154q-130 17 -212.5 105t-62.5 204q10 58 50.5 96.5t89.5 52.5t101 11zM461 611q-43 2 -70.5 -22t-34.5 -68q-11 -71 36 -140t135 -88q9 36 15 81.5t6 102t-21.5 95t-65.5 39.5z" />
    <glyph glyph-name="P" unicode="P" horiz-adv-x="793" 
d="M432 561q19 7 40.5 5.5t38.5 -10t15 -17.5q-41 -29 -100 -241q84 -18 145 18.5t76 120.5q15 81 -35 127t-129 48q-76 2 -139 -26t-88 -76t3 -111q2 -18 -26.5 -38.5t-51.5 -12.5q-66 36 -66 112q0 74 54.5 129t137 80.5t178.5 24.5q63 -1 119.5 -18t100.5 -49t65 -83.5
t9 -115.5q-21 -121 -123.5 -181.5t-250.5 -22.5q-51 -190 -59 -210q-14 -20 -70 -17t-54 31q14 33 47 164.5t73.5 235t89.5 133.5z" />
    <glyph glyph-name="Q" unicode="Q" horiz-adv-x="699" 
d="M623 -151q-114 26 -244 190q-64 -44 -136 -47q-82 -2 -126 27.5t-43 84.5q2 52 45.5 84t108.5 30q85 -3 158 -58q129 137 137 313q2 67 -29.5 103.5t-91.5 36.5q-71 0 -116.5 -38.5t-53.5 -98.5q-14 -104 58 -147q16 -13 -10 -38q-30 -27 -57 -20q-4 1 -7 3
q-63 26 -92 79t-24 119q8 95 90.5 159t223.5 63q115 -1 183 -61t62 -157q-10 -197 -192 -379l27 -26.5l27.5 -27t25 -23t26.5 -22l23 -17t25 -14.5t23 -8q36 -14 70 -1q22 -4 28 -45t-16 -62q-48 -17 -103 -2zM239 68q39 0 85 36q-40 38 -79 38q-21 0 -34.5 -11.5
t-15.5 -26.5q-2 -14 9.5 -25t34.5 -11z" />
    <glyph glyph-name="R" unicode="R" horiz-adv-x="790" 
d="M672 -104q-28 3 -52 15.5t-42.5 38t-31.5 46t-26.5 59.5t-18.5 56l-16 57q-12 55 -39 75h-16h-19.5h-14.5q-51 -172 -70 -228q-9 -13 -40.5 -16.5t-58.5 4.5t-25 26q13 30 60.5 193t62.5 201q38 101 82 135q19 11 43.5 10.5t44 -9t16.5 -17.5q-42 -44 -95 -227
q91 -2 151 40t67 120q4 62 -44.5 99t-126.5 38q-65 0 -120 -25t-78 -65q-53 -54 -21 -122q2 -18 -26 -38.5t-51 -13.5q-33 17 -51.5 50t-16.5 69q6 109 115.5 168.5t258.5 58.5q129 -1 213 -61t77 -157q-12 -163 -200 -216q24 -21 39 -83q10 -34 19 -57.5t24.5 -52t36.5 -46
t47 -22.5q13 -16 10.5 -40t-22.5 -45t-45 -18z" />
    <glyph glyph-name="S" unicode="S" horiz-adv-x="603" 
d="M588 517q-10 -24 -55.5 -22.5t-51.5 25.5q9 92 -68 94q-27 -1 -48.5 -20t-24.5 -62q-3 -34 17 -68t50 -64l60 -62t50 -73.5t17 -86.5q-6 -92 -72.5 -140t-175.5 -47q-71 1 -118.5 27t-66 68t-19 90.5t16.5 98.5q15 19 60.5 12.5t47.5 -29.5q-21 -84 7 -135t82 -53
q47 -1 74.5 26.5t30.5 76.5q2 37 -18.5 73.5t-51.5 66.5l-61 62t-49.5 74.5t-14.5 89.5q8 74 62 115.5t146 40.5q96 -2 142 -50t32 -128z" />
    <glyph glyph-name="T" unicode="T" horiz-adv-x="716" 
d="M230 675q59 23 125 17.5t111.5 -21.5t106.5 -31.5t110 -11.5q46 4 65.5 25t17.5 62q10 14 34 16.5t37 -8.5q25 -42 15 -90t-40 -70q-43 -33 -103 -38t-114 6l-74 -253q-46 -141 -74 -187q-51 -86 -148 -98q-18 -2 -38 -2q-47 0 -83 15t-54 40t-24.5 53.5t-0.5 57.5
q15 69 81 93q25 4 50 -15.5t21 -38.5q-23 -26 -27 -56.5t10.5 -50.5t40.5 -19q34 1 58 52.5t54 154.5q82 286 85 294q-128 48 -174 25q-40 -17 -41 -53q-1 -30 26 -38q24 -7 57 14q16 1 28 -15.5t11 -33.5q-35 -41 -83 -52.5t-90 6.5t-63 58q-15 34 -14 70.5t28 71.5t73 51z
" />
    <glyph glyph-name="U" unicode="U" horiz-adv-x="918" 
d="M464 673q20 20 75 16.5t56 -25.5q-78 -238 -138 -444q-43 -148 33 -148q48 0 96.5 53t72.5 130l120 402q23 22 76 12.5t54 -35.5q-50 -135 -138 -459q-25 -101 13 -102q33 -2 73 36.5t71 104.5q4 5 13.5 2t18 -11t6.5 -13q-35 -75 -95.5 -137.5t-132.5 -62.5
q-41 0 -67 28.5t-25 79.5q-36 -50 -90 -80t-103 -29q-193 0 -123 265q0 1 97 314q-22 -26 -57.5 -43.5t-63.5 -25t-52.5 -23t-29.5 -39.5q-12 -51 31 -65q12 -7 3.5 -34t-25.5 -28q-69 -6 -111.5 35.5t-27.5 99.5q10 40 40.5 64.5t72.5 38t86.5 25.5t92 36.5t78.5 61.5z" />
    <glyph glyph-name="V" unicode="V" horiz-adv-x="877" 
d="M810 819q75 -78 80 -201q3 -80 -30 -160.5t-93 -143.5q-31 -31 -100.5 -89t-118.5 -109t-75 -104q-15 -22 -65 -19t-54 34q14 86 23.5 257t36.5 300q-20 -23 -54.5 -41t-63.5 -27t-54.5 -25.5t-31.5 -39.5q-14 -55 32 -67q7 -4 7.5 -17.5t-8.5 -29t-22 -16.5
q-66 -6 -111 35.5t-30 102.5q10 38 38.5 62t68 36.5t80.5 23.5t85.5 31.5t74.5 51.5q27 26 74.5 23.5t51.5 -23.5q-16 -50 -27.5 -118t-15.5 -110t-10.5 -134t-8.5 -115q26 35 57 68t73.5 74l63.5 62q90 90 87 219q0 81 -52 145q-5 23 29.5 47t62.5 17z" />
    <glyph glyph-name="W" unicode="W" horiz-adv-x="1196" 
d="M1174 732q33 7 63.5 -29.5t15.5 -58.5q-28 -17 -53.5 -56t-48.5 -101t-37.5 -109.5t-35.5 -123.5q-36 -128 -101.5 -195.5t-179.5 -67.5q-71 0 -106 39.5t-36 95.5q-33 -65 -85 -100t-116 -35q-195 1 -124 271q15 53 52 169l44 139q-22 -26 -57.5 -43.5t-64 -25t-53 -23
t-30.5 -39.5q-12 -52 33 -66q11 -6 3 -32.5t-24 -28.5q-73 -4 -112 35t-29 98q7 38 36.5 63t72.5 39t88.5 26.5t93.5 37t78 59.5q20 22 76.5 18.5t55.5 -26.5q-90 -282 -137 -442q-19 -54 -13.5 -101.5t46.5 -46.5q38 0 81.5 55t69.5 143q16 55 40 129.5l51 156.5l37 113
q12 23 69 15.5t60 -37.5q-88 -260 -141 -457q-15 -44 -4 -81.5t52 -37.5t77.5 47t57.5 119q75 255 94 306q52 141 116 178q12 7 25 11z" />
    <glyph glyph-name="X" unicode="X" horiz-adv-x="861" 
d="M856 713q28 7 57.5 -26.5t14.5 -59.5q-45 -27 -102.5 -92.5t-98 -123.5l-98.5 -148q25 -75 48.5 -126.5t65 -103.5t93.5 -76q23 -22 1 -67t-53 -39q-44 9 -83 38.5t-69.5 74.5t-52 89t-43.5 101q-110 -165 -263 -163q-81 1 -122 43.5t-39 101.5q1 36 23.5 69.5t58.5 42.5
q24 7 51 -13t22 -41q-28 -25 -28 -68q-1 -25 11.5 -40.5t40.5 -15.5q37 0 91.5 58t108.5 152q-40 155 -23 301q-32 -38 -82.5 -58.5l-85.5 -35.5t-43 -43q-15 -52 30 -67q7 -2 8 -16t-7 -28.5t-21 -17.5q-66 -7 -110 32t-31 101q8 38 36.5 62.5t69 37.5t83.5 24.5t91 34
t80 55.5q19 24 69.5 22.5t55.5 -24.5q-36 -129 -17 -258q35 62 62 104t62.5 91t70.5 78.5t67 37.5z" />
    <glyph glyph-name="Y" unicode="Y" horiz-adv-x="901" 
d="M911 213q4 5 13.5 2.5t18.5 -10.5t6 -14q-52 -102 -110.5 -159t-139.5 -89q-14 -56 -29 -98q-28 -72 -72.5 -106.5t-124.5 -34.5q-57 -1 -89.5 30t-25.5 80q5 30 21 54t35.5 39.5t51.5 29.5t55.5 21t60.5 17q6 18 20.5 67t18.5 61q-72 -96 -167 -96q-93 0 -122.5 70.5
t4.5 194.5q6 24 91 298q-22 -26 -57.5 -43.5t-64 -25t-52.5 -23t-30 -39.5q-12 -52 30 -65q8 -3 8.5 -18t-8 -29t-21.5 -15q-69 -4 -110.5 35.5t-28.5 97.5q9 41 39.5 66t73 38t87.5 25t93 37t79 63q20 14 52 15.5t55 -6.5t23 -19q-92 -284 -133 -428q-43 -149 29 -150
q50 0 97.5 51t77.5 134l116 389q18 20 74 11.5t57 -31.5q-28 -77 -92.5 -289l-101.5 -341q118 49 192 203zM569 -90q-34 -12 -64 -35t-39 -44q-8 -21 -3 -34t22 -13q38 2 62 58q13 33 22 68z" />
    <glyph glyph-name="Z" unicode="Z" horiz-adv-x="713" 
d="M643 681q45 18 81 -0.5t37 -50.5q-54 -73 -156.5 -257.5t-168.5 -269.5q10 -9 38 -37.5t39 -38.5l35.5 -31t39 -28t36 -15.5t41 -6.5t40.5 10q23 -6 29 -46t-16 -59q-33 -11 -66 -11t-60.5 7t-57 24t-51.5 34t-48.5 43.5t-43 46l-39.5 47.5q-36 -27 -66.5 -38t-74.5 -12
q-73 -2 -118.5 25.5t-42.5 86.5q2 51 45.5 83t106.5 31q81 -1 153 -52q38 53 118.5 208.5t127.5 225.5q-32 -16 -74.5 -14.5t-76.5 11.5t-73.5 14.5t-66.5 -5.5q-41 -14 -47 -49q-5 -31 21 -42q26 -10 65 12q17 9 33 -17t5 -37q-58 -55 -136 -44t-104 72q-23 55 6.5 114.5
t107.5 78.5q50 12 105.5 5t93.5 -20.5t89.5 -16t93.5 18.5zM223 141q-30 1 -45.5 -17.5t-4.5 -37t46 -18.5q44 2 78 40q-31 33 -74 33z" />
    <glyph glyph-name="bracketleft" unicode="[" horiz-adv-x="492" 
d="M102 -164q-37 0 -49.5 16t-0.5 58l197 721q10 35 25.5 45t44.5 10h142q13 0 14 -22.5t-8.5 -45t-22.5 -22.5h-82l-185 -670h77q12 0 12.5 -22.5t-8.5 -45t-21 -22.5h-135z" />
    <glyph glyph-name="backslash" unicode="\" horiz-adv-x="603" 
d="M443 3q-42 55 -179.5 301t-189.5 310q-15 19 19 39q38 21 67 10q8 -3 13 -9q53 -67 195 -320.5t176 -298.5q15 -20 -22 -35q-40 -16 -69 -4q-6 2 -10 7z" />
    <glyph glyph-name="bracketright" unicode="]" horiz-adv-x="491" 
d="M381 687q37 0 49 -16t1 -58l-187 -722q-10 -35 -25.5 -44.5t-44.5 -9.5h-142q-13 0 -14.5 22.5t8 44.5t22.5 22h82l176 671h-76q-12 0 -13 22.5t7.5 45t20.5 22.5h136z" />
    <glyph glyph-name="asciicircum" unicode="^" horiz-adv-x="500" 
d="M417 470q3 -24 -26.5 -43.5t-52.5 -2.5l-80 132l-117 -130q-18 -11 -38 -7t-33 21t-3 32l153 174q19 21 51.5 20t43.5 -21z" />
    <glyph glyph-name="underscore" unicode="_" horiz-adv-x="483" 
d="M123 -77q-20 0 -22 29q-3 32 17 44q6 4 14 4l242 -1q17 0 23.5 -19t-1.5 -38t-26 -19h-247z" />
    <glyph glyph-name="grave" unicode="`" horiz-adv-x="249" 
d="M144 849q5 -8 28 -40t34 -49q15 -21 -15 -32q-31 -10 -50 3l-4 4l-82 96q-14 16 17 28q37 13 63 -2q6 -3 9 -8z" />
    <glyph glyph-name="a" unicode="a" horiz-adv-x="523" 
d="M252 424q59 9 126.5 -5t107.5 -55q7 -14 -15.5 -40.5t-35.5 -21.5q-65 50 -146 42q-44 -4 -83 -38.5t-60 -86.5q-21 -46 -24 -85.5t12 -52.5q35 -34 95 59q46 71 71 154q18 17 63 6.5t51 -28.5q-28 -100 -33 -124q-17 -75 17 -75q27 1 68.5 42.5t65.5 97.5q4 5 14 2.5
t19 -10.5t6 -13q-45 -90 -105 -144t-129 -54q-37 0 -54.5 32.5t-9.5 87.5q-32 -56 -69 -88.5t-94 -33.5q-58 -2 -93.5 38t-23.5 124q15 103 93 179.5t166 90.5z" />
    <glyph glyph-name="b" unicode="b" horiz-adv-x="513" 
d="M163 -8q-130 1 -144 133q-32 146 119 554q23 15 75 7t55 -29q-38 -109 -86 -274q71 48 146 36q65 -11 90.5 -66t12.5 -123.5t-55 -128.5q96 -4 147 113q4 5 13.5 2.5t19 -10.5t6.5 -14q-78 -164 -232 -138q-71 -62 -167 -62zM163 70q41 -7 73 30q-12 22 1.5 44t36.5 20
q10 24 18 52t11 58t-7.5 51t-35.5 23q-44 3 -101 -47q-83 -216 4 -231z" />
    <glyph glyph-name="c" unicode="c" horiz-adv-x="426" 
d="M264 425q64 -1 95.5 -29t29.5 -64t-26 -68q-18 -21 -65.5 -21t-51.5 21q7 9 13 21.5t9.5 25.5t0 22.5t-15.5 10.5q-36 4 -71.5 -43.5t-41.5 -115.5q-4 -54 24 -84t78 -30q58 0 109.5 35t84.5 108q4 5 13.5 2t18.5 -11t7 -13q-101 -207 -300 -200q-78 4 -126 58t-46 130
q4 99 78.5 172.5t182.5 72.5z" />
    <glyph glyph-name="d" unicode="d" horiz-adv-x="529" 
d="M411 678q12 16 69.5 8.5t58.5 -29.5l-26 -80l-33.5 -104.5l-33.5 -110t-30 -110.5t-18.5 -90.5t-3 -66.5t20.5 -22q25 1 62 43t62 98q4 5 13.5 2.5t18.5 -11t6 -13.5q-43 -88 -101 -142.5t-124 -55.5q-41 0 -63 32t-16 88q-61 -121 -163 -123q-76 -1 -103.5 56.5
t-5.5 136.5t76 141q52 61 121 83t133 13q17 65 80 257zM307 340q-35 5 -74 -14.5t-68 -67.5q-17 -27 -29.5 -64.5t-14.5 -71.5t18 -45q21 -14 54.5 16t62.5 93q22 44 51 154z" />
    <glyph glyph-name="e" unicode="e" horiz-adv-x="456" 
d="M266 424q57 -1 92.5 -29t39 -65t-13.5 -77q-27 -56 -93 -79.5t-151 -6.5q-1 -44 27 -69t81 -28q57 -4 118.5 30t99.5 114q4 5 14 2.5t18.5 -11t6.5 -13.5q-100 -206 -296 -202q-114 3 -165 65t-36 151q16 100 88.5 160.5t169.5 57.5zM253 343q-31 3 -62.5 -32t-44.5 -88
q48 -5 81 13.5t45 50.5q10 20 5.5 37.5t-24.5 18.5z" />
    <glyph glyph-name="f" unicode="f" horiz-adv-x="372" 
d="M163 610q25 35 57.5 56t63 24t59.5 -5.5t47 -32.5t26 -58t-4 -80q-19 -91 -96.5 -167.5t-173.5 -113.5q-11 -38 -26 -97q198 -72 265 78q4 5 13.5 2t18.5 -10.5t7 -12.5q-20 -46 -48 -75t-57 -39.5t-61 -14.5t-60 1q50 -63 51.5 -146.5t-40.5 -140.5q-53 -74 -149 -73
q-70 1 -95.5 42t-19.5 121q6 111 68 347q77 285 154 395zM254 561q-48 -91 -93 -247q52 34 94.5 99t57.5 129q12 50 -10 59t-49 -40zM95 57q-36 -139 -40 -218q-1 -50 23 -50q23 0 42 41q2 5 4 11q20 45 14 112.5t-43 103.5z" />
    <glyph glyph-name="g" unicode="g" horiz-adv-x="517" 
d="M258 424q59 8 123.5 -6t109.5 -54q6 -13 -16.5 -40.5t-35.5 -21.5q-59 49 -145 43q-45 -3 -83.5 -37t-63.5 -88q-22 -49 -24.5 -89t13.5 -52q20 -16 56 12t67 91q25 50 46 113q14 16 62 5t52 -28q-16 -53 -37.5 -137.5t-32.5 -123.5q53 22 95 70t84 133q4 5 13.5 2
t18 -11t5.5 -14q-54 -107 -105.5 -162t-129.5 -87q-37 -129 -80 -183.5t-135 -54.5q-56 -1 -89 28t-27 80q4 30 20 54t35 39.5t52 30t56.5 21.5l62.5 18l43 128q-66 -110 -158 -111q-70 -2 -100 48t-16.5 121.5t60.5 134.5q39 54 94.5 87.5t109.5 40.5zM207 -94
q-77 -28 -96 -72q-16 -33 6 -45q23 -12 49 15q16 16 25 43q5 15 16 59z" />
    <glyph glyph-name="h" unicode="h" horiz-adv-x="503" 
d="M148 679q20 16 76 7t53 -30q-38 -100 -97 -316q89 87 159 87q61 0 80.5 -38.5t-0.5 -98.5q-6 -22 -19 -62t-19.5 -62.5t-11.5 -47.5t-0.5 -36.5t18.5 -10.5q27 1 64.5 44t60.5 99q4 5 14 2.5t19 -11t6 -13.5q-97 -194 -218 -201q-63 -3 -84 27t-14 83q5 34 47 178
q9 21 4.5 38.5t-27.5 15.5q-20 -1 -48.5 -22.5t-52.5 -52.5q-39 -144 -63 -248q-3 -14 -60 -18q-68 -5 -77 18q-1 4 0 9q99 393 190 660z" />
    <glyph glyph-name="i" unicode="i" horiz-adv-x="260" 
d="M157 483q-29 0 -46.5 21t-12.5 49q5 31 28 51t56 20q31 -1 48.5 -21t12.5 -50q-5 -31 -28 -50.5t-58 -19.5zM81 -8q-66 -2 -87.5 32t-7.5 96q20 86 81 296q15 17 66.5 11t60.5 -27q-71 -247 -75 -267q-6 -29 -3 -46t16 -16q31 0 71.5 42t66.5 100q4 6 13.5 3t18.5 -11.5
t7 -13.5q-98 -195 -228 -199z" />
    <glyph glyph-name="j" unicode="j" horiz-adv-x="256" 
d="M154 483q-29 0 -46.5 21t-12.5 49q5 31 28 51t56 20q32 -1 49 -21t12 -50q-5 -31 -28 -50.5t-58 -19.5zM-156 -296q-55 -1 -84.5 26.5t-28 67t31.5 75.5q22 35 67.5 57.5t117.5 43.5l114 441q11 17 67.5 10.5t59.5 -26.5q-21 -67 -109 -389q110 48 186 204q4 5 13.5 1.5
t18 -11.5t6.5 -12q-52 -104 -107.5 -160.5t-134.5 -89.5q-36 -131 -81 -184t-137 -54zM-140 -214q15 -1 33.5 15t28.5 46q9 27 17 59q-35 -14 -61.5 -33.5t-35.5 -38.5q-9 -22 -3.5 -35t21.5 -13z" />
    <glyph glyph-name="k" unicode="k" horiz-adv-x="482" 
d="M493 214q4 5 13.5 2t18 -11t6.5 -13q-47 -95 -109 -148t-127 -53q-138 -2 -120 208q89 30 118 82q21 35 -6 49q-3 2 -7 3q-31 11 -76.5 -25.5t-58.5 -87.5q-40 -147 -53 -209q-6 -11 -39.5 -17t-65 0t-30.5 23q78 309 187 661q11 16 68.5 8.5t58.5 -30.5
q-80 -267 -92 -312q51 58 120.5 76t103.5 -12q25 -20 28 -53.5t-12.5 -67.5t-52.5 -64.5t-87 -43.5q-2 -108 55 -109q88 -3 159 144z" />
    <glyph glyph-name="l" unicode="l" horiz-adv-x="361" 
d="M209 668q38 23 78.5 22.5t69 -23t42 -64t-2.5 -100.5q-24 -91 -91.5 -161t-170.5 -105q-36 -162 57 -168q46 -3 95.5 36t84.5 109q4 5 13.5 2t18 -11t6.5 -13q-25 -49 -47.5 -83t-55 -65t-74 -44t-92.5 -8q-69 7 -101.5 54.5t-30 121t21.5 168.5q25 114 72 204.5
t107 127.5zM283 601q-17 1 -35.5 -29.5t-40.5 -85.5q-43 -120 -57 -171q37 22 70 65t52 89q14 34 21.5 64.5t5 49t-15.5 18.5z" />
    <glyph glyph-name="m" unicode="m" horiz-adv-x="735" 
d="M565 -9q-64 -2 -87 29.5t-11 89.5q3 16 10.5 46.5l17.5 68.5t14 55q7 20 3 37.5t-24 16.5q-21 -1 -49 -25.5t-46 -55.5q-3 -13 -59 -242q-10 -18 -68 -18t-64 22q22 96 66 271q5 17 1 32t-21 14q-42 -2 -97 -80q-31 -109 -61 -241q-4 -9 -26 -13.5t-45.5 -4.5t-42.5 7.5
t-19 20.5l109 395q16 17 66.5 11.5t57.5 -28.5q-4 -11 -10.5 -34t-9.5 -31q33 37 76.5 65t82.5 28t59 -23.5t15 -64.5q76 88 159 88q117 0 84 -132q-3 -13 -9.5 -35l-12.5 -41.5l-12.5 -42t-10 -41t-4 -33.5t4.5 -23t16 -8q25 0 62.5 41.5t64.5 101.5q4 5 13.5 2.5t18.5 -11
t6 -13.5q-98 -195 -218 -201z" />
    <glyph glyph-name="n" unicode="n" 
d="M337 427q56 -1 74.5 -37.5t3.5 -99.5q-5 -20 -21 -72t-22 -77q-15 -70 14 -70t65.5 42t62.5 101q5 5 14.5 2.5t18 -11t6.5 -13.5q-17 -35 -37.5 -66t-48 -63t-62.5 -51.5t-72 -20.5q-63 -1 -85.5 30.5t-9.5 88.5q4 19 21 90.5t19 78.5q7 22 3 38t-25 15q-43 -3 -102 -73
q-20 -68 -64 -249q-9 -18 -68.5 -17t-64.5 24q32 131 110 399q15 16 63.5 11.5t59.5 -27.5l-19 -66q94 94 166 93z" />
    <glyph glyph-name="o" unicode="o" horiz-adv-x="511" 
d="M267 427q86 0 127 -51.5t34 -125.5t-52 -148q92 -9 145 112q4 5 14 2.5t19 -10.5t6 -14q-24 -50 -53.5 -81.5t-58 -43t-59 -15t-56.5 3.5q-72 -66 -173 -66q-87 0 -132.5 51.5t-21.5 161.5q22 103 95 163t166 61zM250 346q-35 -1 -64 -42.5t-43 -99.5q-31 -134 37 -134
q30 0 54 27q-13 22 0 44.5t37 20.5q13 34 19.5 66.5t6.5 59.5t-12 43t-35 15z" />
    <glyph glyph-name="p" unicode="p" horiz-adv-x="515" 
d="M336 424q51 -2 76.5 -39t24.5 -88t-17.5 -104.5t-43.5 -90.5q96 -9 149 112q4 5 14 2t18.5 -11t6.5 -13q-42 -90 -101 -119.5t-122 -16.5q-55 -56 -129 -63t-123 35l-74 -305q-10 -18 -69 -15.5t-60 22.5q90 367 179 685q4 16 60 12.5t64 -29.5q-1 -5 -4 -13l-7 -18
t-5 -13q82 76 163 70zM262 334q-21 1 -50.5 -13.5t-54.5 -38.5q-10 -34 -26 -94l-23 -85q23 -28 62 -30.5t64 20.5q-18 22 -1.5 48.5t35.5 17.5q20 43 27.5 82t-0.5 65t-33 28z" />
    <glyph glyph-name="q" unicode="q" horiz-adv-x="517" 
d="M254 426q56 7 125 -11t108 -60q4 -16 -15.5 -40t-34.5 -22q-29 26 -67.5 40.5t-73.5 13.5q-103 -4 -158 -150q-34 -91 -7 -117q22 -21 63 20q27 26 50 70q31 58 51 123q10 11 35 10.5t51.5 -10.5t27.5 -22q-65 -226 -80 -282q9 9 60 54.5t83 83.5t55 87q4 5 14 2.5
t18.5 -10.5t6.5 -14q-10 -22 -23 -43.5t-23 -35.5t-27.5 -34.5l-24 -28t-26.5 -28l-23 -23.5l-54.5 -60t-41 -60t-35.5 -83l-15 -71q-12 -20 -71 -17.5t-60 22.5q7 28 22 93.5l23 98t26 83t41 93.5q-30 -49 -70.5 -78t-81.5 -30q-57 -2 -88.5 42t-19.5 115q18 114 94.5 191
t165.5 88z" />
    <glyph glyph-name="r" unicode="r" horiz-adv-x="402" 
d="M33 162q-5 -6 -15 -4t-18.5 10t-4.5 15q60 119 86 215q-42 63 -8 107q25 31 60 27q36 -4 40 -46q2 -17 -4 -40l33 -29.5l35.5 -31t30 -30t22 -32.5t4.5 -33t-15 -35q-66 -87 -72 -136q-3 -22 6 -35t31 -12q39 0 86 34t83 108q4 5 13.5 2t18 -11t6.5 -13
q-93 -200 -255 -200q-62 -1 -93.5 28t-30.5 79q0 29 14 65t28 60t39 62q5 7 6.5 14t-0.5 14.5t-3.5 12.5t-8 13l-9 11t-10.5 11l-9 9q-28 -103 -86 -209z" />
    <glyph glyph-name="s" unicode="s" horiz-adv-x="465" 
d="M168 -12q-46 0 -83 27.5t-43 77.5q7 21 32.5 31.5t40.5 1.5q-1 -24 13.5 -40.5t36.5 -16.5q24 0 38 18q-19 18 -12.5 43.5t29.5 27.5q-1 41 -20 119t-23 105q-64 -64 -144 -220q-5 -6 -15 -4t-18.5 10t-4.5 15q77 162 166 247q48 47 104 42q43 -3 49 -33q4 -22 -16 -49
q6 -31 15.5 -67.5t16.5 -59.5t13.5 -54.5t6 -52.5t-5.5 -55q81 4 131 113q4 5 13.5 2t18 -11t6.5 -13q-69 -143 -192 -141q-48 -63 -153 -63z" />
    <glyph glyph-name="t" unicode="t" horiz-adv-x="321" 
d="M142 -9q-44 0 -74 14t-43.5 43t-18.5 60.5t1 79t14 86t22 93.5h-28q-14 8 -8.5 39.5t20.5 35.5h37q46 148 74 226q13 18 69 10.5t60 -31.5q-30 -87 -65 -205h75q15 -13 10 -41t-18 -34h-87q-31 -105 -39 -143q-36 -151 23 -155q39 -1 85 35.5t80 109.5q4 5 13.5 2.5
t18.5 -11t6 -14.5q-90 -199 -227 -200z" />
    <glyph glyph-name="u" unicode="u" 
d="M320 414q10 17 62.5 12.5t62.5 -27.5q-4 -17 -13.5 -49l-17.5 -59.5l-17 -61.5t-14.5 -60.5t-8 -49.5t0.5 -35.5t13 -12.5q25 0 63 42t64 100q5 6 14.5 3.5t18 -11t5.5 -13.5q-103 -201 -219 -199q-40 1 -57.5 37.5t-5.5 85.5q-79 -128 -190 -125q-64 0 -84.5 40
t-7.5 100q11 57 43 166l34 116q10 19 66 14t58 -27q-3 -10 -24 -88.5t-31 -122.5q-20 -82 -15 -100q4 -15 20 -15q28 1 64.5 43t56.5 98q30 96 59 199z" />
    <glyph glyph-name="v" unicode="v" horiz-adv-x="492" 
d="M69 411q16 20 67.5 16t57.5 -29q-7 -25 -23.5 -78.5t-26.5 -89t-19 -75t-5.5 -60.5t18.5 -22q25 -3 55 26q-16 24 2 48t43 14q30 52 51 122.5t24 129.5q8 11 36 14.5t56.5 -3.5t33.5 -25q-14 -180 -113 -296q115 -21 176 110q4 6 13.5 3.5t18.5 -10.5t6 -14
q-27 -55 -60 -88t-69.5 -43t-65 -10t-66.5 7q-83 -68 -181 -67q-64 1 -89 34t-15 106q5 34 14.5 74t17 66.5t22.5 74z" />
    <glyph glyph-name="w" unicode="w" horiz-adv-x="738" 
d="M357 -8q-45 0 -72 29t-21 84q-39 -62 -89 -88t-96 -25q-65 1 -83 39t-5 108q13 69 76 271q14 14 45.5 16.5t56.5 -7t24 -24.5q-57 -188 -68 -239q-9 -34 -7 -57.5t22 -24.5q26 -2 59.5 33.5t57.5 97.5q34 98 67 205q14 20 67.5 16t57.5 -29q-57 -161 -69 -214
q-28 -110 7 -110q27 0 52 28q-15 25 3 47.5t42 11.5q28 46 51 119.5t24 132.5q5 11 35 15t59 -3t32 -24q-2 -76 -35 -161t-77 -136q113 -23 176 111q4 5 13.5 2t18 -11t6.5 -14q-26 -54 -58.5 -86.5t-68 -43.5t-66 -11t-68.5 8q-69 -68 -169 -66z" />
    <glyph glyph-name="x" unicode="x" horiz-adv-x="526" 
d="M536 213q5 5 14 2t17.5 -11t6.5 -12q-37 -79 -89 -132t-104 -65q-81 -17 -121 45q-17 24 -35 65l-81 -97q-18 -20 -78 -18q-50 3 -48 18q1 3 4 6l158 188l-27 77q-11 30 -20 37t-21 -9q-6 -10 -17 -30l-28.5 -53l-34.5 -63q-4 -4 -14 -2t-18.5 9.5t-4.5 14.5
q15 28 40.5 80t40.5 80t39 53.5t49 28.5q55 8 83 -39q12 -20 34 -84l78 95q20 24 82 16q45 -5 43 -18q0 -2 -2 -4l-158 -190l10 -30t13 -34q13 -33 26 -50t29 -16q32 3 67 39.5t67 102.5z" />
    <glyph glyph-name="y" unicode="y" 
d="M103 -296q-57 -1 -90 28t-26 80q4 30 19.5 54t34.5 39.5t51.5 30t56.5 21.5l63 18q17 44 41 124q-40 -59 -86.5 -84t-90.5 -23q-66 2 -84.5 43t-2.5 104q12 50 39 142.5t37 131.5q12 18 65.5 13.5t57.5 -26.5q-39 -147 -63 -247q-10 -34 -8.5 -57t22.5 -22q28 2 62 44.5
t56 98.5q30 79 61 197q16 19 68 12t57 -28l-107 -387q54 23 96 71t83 132q4 5 13.5 2.5t18.5 -10.5t6 -14q-53 -106 -105.5 -161.5t-129.5 -88.5q-41 -139 -83.5 -188.5t-131.5 -49.5zM122 -214q36 8 56 61q4 11 10 32.5t7 26.5q-59 -23 -86 -56q-20 -23 -16.5 -45.5
t29.5 -18.5z" />
    <glyph glyph-name="z" unicode="z" horiz-adv-x="482" 
d="M170 436q42 -62 147 -39q24 7 46 7t36 -6.5t23.5 -16.5t9 -22.5t-7.5 -24.5q-101 -155 -194 -250q10 -1 44.5 -10t58.5 -7q91 6 159 147q4 5 13.5 2t18 -11t6.5 -13q-44 -95 -108 -151t-134 -58q-32 -1 -73.5 12t-70.5 11q-60 -44 -102 -19q-29 18 -22 52q8 39 61 55
q128 129 183 220q-36 -7 -77.5 8.5t-62.5 46.5q-30 -93 -91 -207q-5 -6 -15 -4t-18.5 10t-5.5 15q68 137 94 225q-37 57 -4 98q23 28 54 23q37 -7 37 -57q0 -16 -5 -36z" />
    <glyph glyph-name="braceleft" unicode="{" horiz-adv-x="476" 
d="M300 -146q-28 -13 -67.5 -16.5t-76.5 11t-46 48.5q-17 60 2 144q8 37 40 138q6 20 -9 32.5t-42 14.5q-14 1 -16.5 19t5 35.5t19.5 18.5q66 2 81 39q11 24 33 135t37 144q24 54 84 70t115 -9q13 -8 12 -25.5t-11.5 -34t-21.5 -15.5q-30 4 -47 -7t-30 -42
q-10 -24 -27.5 -120t-28.5 -121q-10 -23 -30 -39t-41 -17q55 -28 35 -96q-4 -16 -17.5 -57.5t-18.5 -64.5q-22 -88 7 -110q20 -13 55 -2q18 0 19.5 -31.5t-14.5 -41.5z" />
    <glyph glyph-name="bar" unicode="|" horiz-adv-x="477" 
d="M172 -269q-7 -23 -55.5 -26t-59.5 18q-3 6 -1 13l234 940q5 17 35 22.5t56.5 -3.5t22.5 -26z" />
    <glyph glyph-name="braceright" unicode="}" horiz-adv-x="503" 
d="M49 -154q-13 8 -12 25.5t11.5 34t21.5 15.5q30 -4 47.5 7t29.5 42q10 24 27.5 120t28.5 121q10 23 30.5 39t41.5 17q-55 27 -36 96q5 18 18.5 59t18.5 63q20 87 -8 110q-19 13 -55 2q-18 0 -19 31.5t14 41.5q28 13 67.5 16.5t77 -11t46.5 -48.5q16 -61 -3 -145
q-7 -30 -40 -138q-6 -19 9.5 -31.5t41.5 -14.5q14 -1 17 -19t-5 -35.5t-20 -18.5q-66 -2 -81 -39q-10 -23 -32 -134t-38 -146q-24 -53 -84 -69t-115 9z" />
    <glyph glyph-name="asciitilde" unicode="~" horiz-adv-x="521" 
d="M333 237q-29 0 -68 22t-58 22q-35 0 -60 -34q-6 -5 -18 -0.5t-22 17.5t-6 22q11 28 39.5 52t66.5 25q30 0 68 -22t58 -22q35 0 60 34q6 5 17.5 0.5t21 -17t5.5 -21.5q-12 -28 -39 -52.5t-65 -25.5z" />
    <glyph glyph-name="exclamdown" unicode="&#xa1;" horiz-adv-x="369" 
d="M251 408q26 0 43 -18t15 -44q-2 -25 -21.5 -43t-45.5 -18q-27 0 -42.5 18t-13.5 43q3 26 21.5 44t43.5 18zM262 192l-59.5 -221.5t-66.5 -241.5q-6 -20 -39.5 -23t-62.5 8t-24 26q25 71 74.5 229t73.5 227q7 18 34.5 22t50 -5t19.5 -21z" />
    <glyph glyph-name="cent" unicode="&#xa2;" horiz-adv-x="530" 
d="M476 188q-88 -75 -189 -80q-6 -23 -14.5 -61t-10.5 -45q-3 -12 -23 -16.5t-37.5 2.5t-13.5 23q3 15 12.5 52.5l12.5 49.5q-94 16 -130 87t-12 151q21 76 91 134t153 62q12 52 22 89q6 23 39 25q31 2 36 -18q1 -4 0 -10l-21 -88q53 -7 79 -36t25 -63t-20 -64
q-16 -27 -56 -25q-31 1 -31 19q0 4 2 8q8 14 12 29t-2.5 31t-28.5 20l-29.5 -125t-34.5 -152q80 -2 140 46q9 6 20 -2.5t14 -21t-5 -21.5zM180 307q-8 -93 53 -111l63 269q-45 -5 -77.5 -50.5t-38.5 -107.5z" />
    <glyph glyph-name="sterling" unicode="&#xa3;" horiz-adv-x="604" 
d="M139 -5q-16 -13 -35 -11.5t-29.5 13t-13 28t13.5 33.5q39 41 57.5 95.5t26.5 135.5h-48q-15 0 -20 17.5t2 35t21 17.5q33 0 49 -1q7 149 54.5 228.5t157.5 79.5q87 0 133 -55.5t17 -151.5q-6 -21 -43 -25q-38 -4 -44 16q-1 5 0 11q14 60 -2.5 92.5t-60.5 28.5
q-54 -3 -75 -59t-24 -166q55 0 83 1q13 0 16.5 -17t-5 -34.5t-23.5 -18.5q-20 -1 -75 -1q-12 -107 -55 -191q36 11 73 2q11 -2 36 -9t38 -9.5t33 -3t36.5 7.5t32.5 24q16 15 35.5 -8.5t9.5 -39.5q-11 -19 -25.5 -31.5t-26 -19t-30.5 -9.5t-28 -3.5t-30.5 0t-26.5 0.5
q-29 0 -72 11t-74 10.5t-59 -23.5z" />
    <glyph glyph-name="currency" unicode="&#xa4;" horiz-adv-x="648" 
d="M222 564l20 -29q48 21 103 20.5t98 -24.5q17 17 30 33q25 25 51 23.5t43 -21.5t6 -39q-14 -14 -62 -68q27 -61 13 -134t-62 -128q44 -58 55 -76q12 -18 -4.5 -39.5t-40.5 -25.5t-42 15q-18 27 -48 64q-45 -25 -98 -29.5t-95 11.5l-42 -49q-18 -22 -45 -14.5t-36 29.5
t5 45l37 46q-47 67 -31.5 156t79.5 150q-20 32 -31 48q-14 20 11 44q28 27 60 14q15 -7 26 -22zM341 467q-62 1 -101.5 -38.5t-51.5 -105.5q-10 -60 12 -94t64 -35q60 -1 98.5 39t50.5 105q10 60 -10.5 94t-61.5 35z" />
    <glyph glyph-name="yen" unicode="&#xa5;" horiz-adv-x="548" 
d="M462 653q15 16 38 12t41.5 -22.5t8.5 -33.5q-103 -167 -208 -294h47q12 0 15 -17t-5.5 -34t-24.5 -17q-11 0 -35 0.5t-36 0.5l-11 -44h22.5h27.5h22q17 0 15 -28q-2 -31 -23 -39q-4 -1 -8 -1h-22h-27h-23l-29 -120q-6 -22 -34.5 -27.5t-52.5 3.5t-20 25q8 32 28 120
q-10 0 -31 0.5t-32 0.5q-14 0 -18 17t3.5 33.5t22.5 16.5q12 0 35 -0.5t34 -0.5l10 44q-42 2 -66 2q-14 0 -17.5 17t4.5 33.5t23 16.5q18 -1 53 -1q-48 160 -77 313q-1 17 24.5 28t53 7t30.5 -25q26 -161 57 -267q57 74 185 281z" />
    <glyph glyph-name="brokenbar" unicode="&#xa6;" horiz-adv-x="469" 
d="M307 291q-7 -27 -57 -28q-45 -1 -57 18q-4 6 -2 12l97 384q4 17 34.5 22t57.5 -4t22 -27zM166 -269q-4 -17 -35 -23.5t-58.5 1.5t-22.5 27l97 385q8 28 58 28q45 0 56 -20q3 -5 2 -10z" />
    <glyph glyph-name="section" unicode="&#xa7;" horiz-adv-x="523" 
d="M286 696q135 0 165 -124q0 -14 -16 -23.5t-35 -8.5t-26 13q-8 34 -37 51t-56 7.5t-29 -40.5q-1 -22 18 -44.5t46.5 -43.5t54.5 -44.5t46 -57t18 -71.5q-1 -39 -23 -75t-62 -58q25 -65 -18.5 -126.5t-123.5 -60.5q-75 0 -114.5 36.5t-41.5 103.5q5 23 39 23.5t42 -21.5
q3 -29 19.5 -44.5t41.5 -15.5q28 0 44.5 19t16.5 52q0 24 -16.5 47.5t-40.5 44t-47.5 43t-39.5 54t-14 67.5q2 33 22.5 61.5t52.5 38.5q-26 36 -22 83q4 53 42.5 83.5t93.5 30.5zM230 446q-33 -11 -33 -48q0 -22 18 -45.5t50 -53.5t45 -47q23 23 24 63q0 27 -18.5 54t-35 40
t-50.5 37z" />
    <glyph glyph-name="dieresis" unicode="&#xa8;" horiz-adv-x="380" 
d="M105 734q-30 0 -45 18t-13 42q3 23 21.5 41t47.5 19q28 0 43.5 -18.5t12.5 -42.5q-2 -23 -20.5 -41t-46.5 -18zM268 734q-30 0 -44.5 18t-11.5 42q2 23 20 41t46 19q31 0 45.5 -17.5t14.5 -42.5q-2 -24 -21 -42t-49 -18z" />
    <glyph glyph-name="copyright" unicode="&#xa9;" horiz-adv-x="891" 
d="M386 -172q-160 -2 -250.5 96t-71.5 256q18 151 132 260.5t289 113.5q164 3 257 -97t75 -257q-8 -73 -39.5 -138t-83.5 -117.5t-131.5 -84t-176.5 -32.5zM384 -90q136 0 219 82t99 214q14 124 -42 194.5t-164 71.5q-134 1 -215.5 -83.5t-98.5 -214.5q-16 -120 43 -191.5
t159 -72.5zM424 28q-65 2 -104.5 43t-34.5 110q6 80 64.5 135.5t140.5 54.5q47 -1 69.5 -25t21.5 -52.5t-17 -50.5q-14 -17 -48 -11q-25 5 -23 20q0 2 1 4q11 14 9 32t-21 18q-30 0 -58 -35.5t-33 -91.5q-4 -42 17.5 -65.5t59.5 -23.5q43 0 78 25q8 3 17.5 -13t4.5 -23
q-60 -53 -144 -51z" />
    <glyph glyph-name="guillemotleft" unicode="&#xab;" horiz-adv-x="646" 
d="M225 130l-124 119q-19 19 -21 38t7.5 31.5t24.5 21.5q70 43 156 105q21 15 43 3.5t26 -32t-12 -35.5q-25 -18 -134 -91l55.5 -56.5t55.5 -57.5q10 -11 -2.5 -30t-33.5 -25t-41 9zM467 130l-124 119q-18 19 -20 38t7 31.5t24 21.5q60 37 157 105q20 15 42 3.5t26 -32
t-12 -35.5q-25 -18 -134 -91q16 -17 56.5 -57t55.5 -57q10 -11 -3 -30t-34 -25t-41 9z" />
    <glyph glyph-name="logicalnot" unicode="&#xac;" horiz-adv-x="539" 
d="M428 168q-4 -17 -42 -15q-37 2 -38 18v3l17 78h-243q-16 0 -21 20.5t4 41t27 20.5h291q18 0 27.5 -11.5t4.5 -31.5z" />
    <glyph glyph-name="registered" unicode="&#xae;" horiz-adv-x="901" 
d="M388 -172q-162 -2 -252.5 96t-71.5 256q18 151 133 260.5t293 113.5q169 3 262 -97t75 -257q-8 -73 -40 -138t-85 -117.5t-134 -84t-180 -32.5zM386 -90q140 0 225 82t101 214q14 125 -42.5 195t-168.5 71q-136 1 -219 -84t-100 -214q-16 -121 43 -192t161 -72zM466 20
q-21 21 -25 64t1 73q0 28 -32 28q-6 -20 -14.5 -54.5t-15.5 -59t-11 -35.5q-4 -13 -27 -13.5t-42 10t-14 23.5q15 39 36 121.5t42 125.5q45 92 139 89q55 -1 79 -31.5t14 -71.5q-8 -32 -35 -57.5t-56 -33.5q4 -10 9.5 -65t23.5 -78q4 -20 -26 -33.5t-46 -1.5zM421 229
q38 3 62 20.5t31 40.5q6 13 1.5 24t-20.5 12q-27 2 -44.5 -25.5t-29.5 -71.5z" />
    <glyph glyph-name="macron" unicode="&#xaf;" horiz-adv-x="328" 
d="M59 744q-15 0 -19 18.5t4.5 36t23.5 17.5q138 -2 213 -1q15 0 17.5 -17.5t-5.5 -35.5t-21 -18h-213z" />
    <glyph glyph-name="degree" unicode="&#xb0;" horiz-adv-x="448" 
d="M237 670q68 0 107.5 -41.5t30.5 -101.5q-7 -57 -57 -98t-116 -41q-70 0 -109 42t-30 102q8 57 56.5 97.5t117.5 40.5zM230 593q-28 0 -48 -17t-25 -43q-7 -26 7 -46.5t44 -20.5q33 0 54 21.5t22 50.5q2 23 -13 39t-41 16z" />
    <glyph glyph-name="plusminus" unicode="&#xb1;" horiz-adv-x="533" 
d="M436 386q18 0 24 -21t-2.5 -41.5t-26.5 -20.5h-111l-21 -74q-3 -12 -26.5 -16t-44 2.5t-16.5 19.5l19 68h-95q-16 0 -21 20.5t4 41.5t27 21h108l24 84q5 16 28.5 20t43 -4.5t15.5 -22.5l-21 -77h92zM384 170q18 0 24 -20.5t-3 -41t-26 -20.5l-296 -1q-16 0 -20.5 20.5
t4.5 41.5t27 21h290z" />
    <glyph glyph-name="uni00B2" unicode="&#xb2;" horiz-adv-x="330" 
d="M87 392q-11 -2 -18 10t-6 27t8 19q91 58 110 124q8 35 -18 35q-11 1 -18.5 -8t-9.5 -23q-2 -11 -19.5 -13.5t-33.5 4.5t-14 20q4 36 34 56.5t70 21.5q45 1 72 -25t21 -73q-5 -34 -35.5 -67.5t-64.5 -49.5h84q12 0 15.5 -14t-1.5 -28t-15 -14z" />
    <glyph glyph-name="uni00B3" unicode="&#xb3;" horiz-adv-x="336" 
d="M178 666q44 0 70.5 -18.5t24.5 -50.5q-1 -46 -44 -66q42 -20 37 -67q-4 -34 -33 -53t-75 -19q-43 0 -72.5 25.5t-21.5 64.5q2 13 31 14t30 -15q1 -14 10 -22t23 -8q28 0 32 25q2 14 -6 21.5t-26 8.5q-11 1 -14.5 14t3 25.5t18.5 12.5q16 -1 28 5.5t12 18.5q0 25 -30 25
q-27 -4 -37 -26q-6 -16 -34.5 -9t-23.5 27q8 32 35.5 49t62.5 18z" />
    <glyph glyph-name="acute" unicode="&#xb4;" horiz-adv-x="250" 
d="M114 849q16 22 59 13q34 -6 34 -22q0 -4 -4 -9l-82 -96q-14 -17 -48 -8q-30 7 -25 26q1 3 4 7z" />
    <glyph glyph-name="paragraph" unicode="&#xb6;" horiz-adv-x="691" 
d="M678 680q21 0 19 -32q-2 -33 -23 -43q-5 -3 -11 -3h-76l-94 -343q-19 -70 -38 -115t-47.5 -81.5t-68.5 -53.5t-96 -18q-55 -1 -93 15.5t-53.5 42t-18.5 56t6.5 59.5t26.5 52q16 13 40.5 12.5t43.5 -14t11 -30.5q-23 -45 -12 -79.5t52 -33.5q37 0 61 43t46 124l101 364
h-76l-63 -217q-26 -91 -107 -83q-63 4 -89.5 66.5t-5.5 147.5q21 88 69.5 126t135.5 38h360z" />
    <glyph glyph-name="periodcentered" unicode="&#xb7;" horiz-adv-x="279" 
d="M126 317q-26 0 -43.5 18.5t-15.5 43.5q2 26 21 43.5t45 17.5q27 0 43 -17.5t14 -43.5t-20.5 -44t-43.5 -18z" />
    <glyph glyph-name="cedilla" unicode="&#xb8;" horiz-adv-x="284" 
d="M164 43l65 -7l-61 -83q45 -6 62.5 -38t-0.5 -66q-21 -46 -75.5 -59.5t-120.5 27.5q-5 6 -2 17.5t12 21t15 5.5q29 -18 55 -18t39 24q11 17 2.5 32.5t-40.5 14.5q-13 0 -17.5 8.5t3.5 21.5z" />
    <glyph glyph-name="uni00B9" unicode="&#xb9;" horiz-adv-x="328" 
d="M178 655q9 12 31.5 12t40.5 -8.5t15 -17.5q-41 -126 -61 -232q-9 -16 -43.5 -14t-35.5 22q9 59 40 140q-33 -32 -62 -43q-9 -4 -21.5 6.5t-16.5 23t5 19.5q65 37 108 92z" />
    <glyph glyph-name="guillemotright" unicode="&#xbb;" horiz-adv-x="646" 
d="M149 126q-20 -15 -42 -3.5t-26 32t12 35.5q25 18 134 91q-16 17 -56.5 57t-55.5 57q-10 11 3 30t33.5 25.5t41.5 -8.5q21 -22 66 -64.5l58 -55.5q18 -18 20 -37t-7 -32t-24 -22q-60 -37 -157 -105zM392 126q-21 -15 -43 -3.5t-26 32t12 35.5q25 18 134 91l-55.5 56.5
t-55.5 57.5q-10 11 2.5 30.5t33.5 25.5t41 -9q21 -22 66 -64.5l58 -55.5q14 -14 19 -28t1 -26t-12 -21t-19 -16q-70 -43 -156 -105z" />
    <glyph glyph-name="onequarter" unicode="&#xbc;" horiz-adv-x="727" 
d="M223 3q-14 -19 -59 -7q-41 10 -42 30q-1 7 4 13q32 43 174.5 294.5t195.5 319.5q20 24 65 7q34 -12 37 -32q1 -7 -4 -13q-52 -64 -190 -310t-181 -302zM206 306q-3 -15 -45 -15q-41 1 -42 16v3l12 53.5l12 52t11 43t16.5 50t21.5 50.5q-37 -50 -84 -66q-16 -4 -28 8
t-12.5 26t5.5 20q90 47 133 107q17 20 61 11q29 -7 27 -19q-14 -41 -30 -101t-36.5 -147.5t-21.5 -91.5zM595 7q-2 -14 -41 -14q-39 1 -38 17l12 58h-108q-22 0 -30.5 22.5t4.5 38.5l167 220q5 7 16 10.5t24 4t25 -1.5t19 -7t6 -12l-37 -220h37q8 0 9 -13t-5.5 -26
t-16.5 -13h-33zM470 123h67l26 133z" />
    <glyph glyph-name="onehalf" unicode="&#xbd;" horiz-adv-x="744" 
d="M221 3q-15 -19 -61 -7q-40 11 -41 30q-1 7 4 13q31 43 174 294t197 320q19 24 63 8q36 -13 38 -33q1 -7 -4 -13q-52 -64 -190 -310t-180 -302zM204 306q-4 -16 -46 -15q-42 3 -42 19l12 53.5l12 52t11 43t16.5 50t21.5 50.5q-37 -50 -84 -66q-16 -4 -28 8t-12.5 26
t5.5 20q92 48 133 107q17 20 61 11q29 -7 27 -19q-26 -78 -87 -340zM457 -5q-20 -1 -21.5 28t16.5 40q96 60 137 167q11 31 5.5 47t-21.5 17q-17 2 -28.5 -12t-11.5 -41q0 -9 -16.5 -12.5t-33 2.5t-16.5 19q-3 55 33 85.5t83 29.5q40 -1 68.5 -26.5t26.5 -70.5
q-1 -57 -36.5 -111.5t-88.5 -93.5l96 -1q13 0 17.5 -16.5t-2 -33t-19.5 -16.5z" />
    <glyph glyph-name="threequarters" unicode="&#xbe;" horiz-adv-x="769" 
d="M265 3q-15 -19 -61 -7q-39 11 -41 30q-1 7 4 13q31 43 174 294t197 320q19 24 64 7q35 -12 38 -32q1 -7 -4 -13q-53 -65 -191 -311t-180 -301zM162 291q-45 2 -72.5 30.5t-21.5 83.5q1 12 19 15.5t34.5 -2.5t14.5 -19q-2 -21 8 -33t25 -12q32 -2 41 35q8 30 -5 46.5
t-54 19.5q-11 0 -14 13.5t2.5 26t14.5 12.5q68 0 74 57q1 18 -6.5 28t-20.5 10q-15 1 -27 -11.5t-14 -35.5q0 -7 -17 -10.5t-33.5 0.5t-16.5 15q-2 53 35.5 80.5t86.5 26.5q45 -2 72 -28.5t24 -68.5q-3 -37 -25 -59.5t-52 -26.5q30 -9 46 -37t10 -64q-7 -46 -44 -70t-84 -22
zM636 7q-1 -14 -40 -14q-38 2 -38 17l11 58h-108q-22 0 -30 22.5t5 38.5l166 220q5 7 16 10.5t24 4t25 -1.5t19 -7t6 -12l-37 -220h37q13 0 8 -25q-6 -26 -21 -27h-33zM511 123h67l27 133z" />
    <glyph glyph-name="questiondown" unicode="&#xbf;" horiz-adv-x="458" 
d="M328 408q25 0 42 -18t15 -44q-2 -24 -21.5 -42t-44.5 -18q-27 0 -43 18t-13 43q2 25 21 43t44 18zM343 195q-1 -46 -21 -82.5t-58 -77.5q-8 -9 -29.5 -31.5t-32.5 -35t-25 -32t-21.5 -39t-9.5 -40.5q-8 -62 45 -69q35 -6 63.5 23.5t35.5 88.5q2 19 27 25.5t48.5 -3
t22.5 -28.5q-4 -99 -59.5 -144.5t-144.5 -42.5q-74 2 -118.5 42.5t-39.5 109.5q2 29 10.5 54.5t27.5 50.5t30.5 38t40.5 40.5l37 35.5q23 24 35 38t24 36.5t14 45.5q2 16 26.5 21.5t48 -1.5t23.5 -23z" />
    <glyph glyph-name="Agrave" unicode="&#xc0;" horiz-adv-x="867" 
d="M696 879q5 -8 28 -40t34 -49q15 -21 -15 -32q-31 -10 -50 3l-4 4l-82 96q-14 16 17 28q37 13 63 -2q6 -3 9 -8zM234 -9q-89 -1 -130 40.5t-29 113.5q16 89 104.5 135.5t206.5 37.5l54 124.5t50 93t66 91.5q43 46 99 59t96.5 -10.5t44.5 -73.5q8 -102 -49 -316
q103 3 148 47q15 13 27.5 -6t3.5 -29q-60 -68 -189 -78q-33 -133 -43 -201q-17 -23 -70 -23t-67 23q10 70 44 199q-24 2 -118 11q-24 -58 -46 -97.5t-51.5 -73t-67 -50t-84.5 -17.5zM617 291q57 203 68 280q4 26 -10 30t-33 -21q-55 -71 -129 -278q43 -6 104 -11zM235 71
q34 1 59.5 40t60.5 126q-54 2 -95.5 -22t-55.5 -70q-10 -26 -2.5 -50.5t33.5 -23.5z" />
    <glyph glyph-name="Aacute" unicode="&#xc1;" horiz-adv-x="867" 
d="M726 879q15 22 60 13q35 -6 36 -22q0 -5 -4 -9l-82 -96q-14 -16 -49 -9q-28 7 -27 23q0 5 4 11q11 17 34 49t28 40zM234 -9q-89 -1 -130 40.5t-29 113.5q16 89 104.5 135.5t206.5 37.5l54 124.5t50 93t66 91.5q43 46 99 59t96.5 -10.5t44.5 -73.5q8 -102 -49 -316
q103 3 148 47q15 13 27.5 -6t3.5 -29q-60 -68 -189 -78q-33 -133 -43 -201q-17 -23 -70 -23t-67 23q10 70 44 199q-24 2 -118 11q-24 -58 -46 -97.5t-51.5 -73t-67 -50t-84.5 -17.5zM617 291q57 203 68 280q4 26 -10 30t-33 -21q-55 -71 -129 -278q43 -6 104 -11zM235 71
q34 1 59.5 40t60.5 126q-54 2 -95.5 -22t-55.5 -70q-10 -26 -2.5 -50.5t33.5 -23.5z" />
    <glyph glyph-name="Acircumflex" unicode="&#xc2;" horiz-adv-x="867" 
d="M705 884q15 10 39 9.5t36 -9.5q10 -8 28 -27l38.5 -42t24.5 -27q14 -15 -18 -26q-37 -13 -56 -1q-3 1 -4 3l-57 59l-80 -62q-19 -15 -50 0q-28 15 -18 34q2 4 6 8q30 26 111 81zM234 -9q-89 -1 -130 40.5t-29 113.5q16 89 104.5 135.5t206.5 37.5l54 124.5t50 93t66 91.5
q43 46 99 59t96.5 -10.5t44.5 -73.5q8 -102 -49 -316q103 3 148 47q15 13 27.5 -6t3.5 -29q-60 -68 -189 -78q-33 -133 -43 -201q-17 -23 -70 -23t-67 23q10 70 44 199q-24 2 -118 11q-24 -58 -46 -97.5t-51.5 -73t-67 -50t-84.5 -17.5zM617 291q57 203 68 280q4 26 -10 30
t-33 -21q-55 -71 -129 -278q43 -6 104 -11zM235 71q34 1 59.5 40t60.5 126q-54 2 -95.5 -22t-55.5 -70q-10 -26 -2.5 -50.5t33.5 -23.5z" />
    <glyph glyph-name="Atilde" unicode="&#xc3;" horiz-adv-x="867" 
d="M764 764q-22 1 -55.5 18t-47.5 17q-25 1 -47 -27q-5 -6 -18.5 0t-23.5 18t-6 21q13 27 38.5 46.5t58.5 19.5q23 -1 55 -18t48 -17q27 0 48 25q5 6 17.5 -0.5t20.5 -19t4 -20.5q-12 -27 -36.5 -45.5t-55.5 -17.5zM234 -9q-89 -1 -130 40.5t-29 113.5q16 89 104.5 135.5
t206.5 37.5l54 124.5t50 93t66 91.5q43 46 99 59t96.5 -10.5t44.5 -73.5q8 -102 -49 -316q103 3 148 47q15 13 27.5 -6t3.5 -29q-60 -68 -189 -78q-33 -133 -43 -201q-17 -23 -70 -23t-67 23q10 70 44 199q-24 2 -118 11q-24 -58 -46 -97.5t-51.5 -73t-67 -50t-84.5 -17.5z
M617 291q57 203 68 280q4 26 -10 30t-33 -21q-55 -71 -129 -278q43 -6 104 -11zM235 71q34 1 59.5 40t60.5 126q-54 2 -95.5 -22t-55.5 -70q-10 -26 -2.5 -50.5t33.5 -23.5z" />
    <glyph glyph-name="Adieresis" unicode="&#xc4;" horiz-adv-x="867" 
d="M645 756q-30 0 -45 18t-14 42q4 24 22 41.5t47 18.5q29 0 44.5 -18.5t12.5 -42.5q-2 -23 -20.5 -41t-46.5 -18zM808 756q-30 0 -44.5 18.5t-11.5 41.5q2 23 19.5 41t46.5 19q30 0 45 -18t14 -42q-2 -24 -20.5 -42t-48.5 -18zM234 -9q-89 -1 -130 40.5t-29 113.5
q16 89 104.5 135.5t206.5 37.5l54 124.5t50 93t66 91.5q43 46 99 59t96.5 -10.5t44.5 -73.5q8 -102 -49 -316q103 3 148 47q15 13 27.5 -6t3.5 -29q-60 -68 -189 -78q-33 -133 -43 -201q-17 -23 -70 -23t-67 23q10 70 44 199q-24 2 -118 11q-24 -58 -46 -97.5t-51.5 -73
t-67 -50t-84.5 -17.5zM617 291q57 203 68 280q4 26 -10 30t-33 -21q-55 -71 -129 -278q43 -6 104 -11zM235 71q34 1 59.5 40t60.5 126q-54 2 -95.5 -22t-55.5 -70q-10 -26 -2.5 -50.5t33.5 -23.5z" />
    <glyph glyph-name="Aring" unicode="&#xc5;" horiz-adv-x="867" 
d="M738 910q45 -1 69.5 -25.5t18.5 -63.5q-4 -38 -34 -61t-73 -23q-44 0 -68.5 25t-18.5 64q4 37 34 60.5t72 23.5zM734 856q-30 0 -38 -33q-3 -14 4.5 -23t22.5 -9q33 0 39 32q5 33 -28 33zM234 -9q-89 -1 -130 40.5t-29 113.5q16 89 104.5 135.5t206.5 37.5l54 124.5
t50 93t66 91.5q43 46 99 59t96.5 -10.5t44.5 -73.5q8 -102 -49 -316q103 3 148 47q15 13 27.5 -6t3.5 -29q-60 -68 -189 -78q-33 -133 -43 -201q-17 -23 -70 -23t-67 23q10 70 44 199q-24 2 -118 11q-24 -58 -46 -97.5t-51.5 -73t-67 -50t-84.5 -17.5zM617 291
q57 203 68 280q4 26 -10 30t-33 -21q-55 -71 -129 -278q43 -6 104 -11zM235 71q34 1 59.5 40t60.5 126q-54 2 -95.5 -22t-55.5 -70q-10 -26 -2.5 -50.5t33.5 -23.5z" />
    <glyph glyph-name="AE" unicode="&#xc6;" horiz-adv-x="1130" 
d="M872 -29q-135 -2 -192 64q-11 -41 -14 -59q-15 -20 -65.5 -14.5t-56.5 27.5q12 70 58 229q-19 1 -64.5 5.5t-54.5 5.5q-24 -58 -46 -97.5t-51.5 -73t-67 -50t-84.5 -17.5q-89 -1 -130 40.5t-29 113.5q16 89 104.5 135.5t206.5 37.5q50 117 88.5 188.5t88.5 124.5
q41 43 94 55t91.5 -11t42.5 -73q7 -83 -27 -243q48 25 100 25q-42 40 -43 106.5t33 103.5q-18 45 -12 90q1 15 23.5 14.5t23.5 -16.5q0 -31 8 -51q62 47 159 42q60 -4 97.5 -35.5t33.5 -81.5q-4 -49 -42 -81.5t-92 -36.5q-82 -5 -126 54q-8 -46 13 -79.5t62 -43.5
q10 -8 2.5 -38t-22.5 -34q-32 7 -71.5 5t-75 -10t-64 -31.5t-38.5 -58.5q-19 -70 27 -111t124 -39q82 2 152 44.5t104 116.5q5 7 14 4t17.5 -11.5t6.5 -12.5q-46 -104 -126.5 -162.5t-179.5 -59.5zM617 291q57 203 68 280q4 26 -10 30t-33 -21q-55 -71 -129 -278
q43 -6 104 -11zM1031 510q52 3 57 45q1 18 -15.5 29t-42.5 9q-50 -2 -78 -39q31 -46 79 -44zM235 71q34 1 59.5 40t60.5 126q-54 2 -95.5 -22t-55.5 -70q-10 -26 -2.5 -50.5t33.5 -23.5z" />
    <glyph glyph-name="Ccedilla" unicode="&#xc7;" horiz-adv-x="646" 
d="M655 214q5 5 14.5 2.5t18 -11t5.5 -13.5q-46 -94 -110.5 -142.5t-160.5 -57.5l-33 -45q45 -6 62.5 -38t-0.5 -66q-21 -46 -75.5 -59.5t-120.5 27.5q-5 6 -2.5 17.5t11.5 21t16 5.5q29 -18 55 -18t38 24q12 17 3.5 32.5t-40.5 14.5q-14 0 -18 8.5t4 21.5l34 54
q-103 10 -164 87t-52 204q11 145 93 254q-43 71 -48 135q-1 11 12.5 17t29 2.5t17.5 -13.5q8 -47 34 -91q114 114 262 106q85 -4 125 -54t21 -122q-12 -47 -51 -80.5t-91 -45.5t-115.5 0.5t-120.5 52.5q-38 -86 -36 -173q1 -110 53 -159t134 -40q54 5 108 39.5t88 102.5z
M519 611q-100 5 -174 -100q39 -28 87.5 -34.5t86 12t45.5 57.5q8 25 -4.5 44.5t-40.5 20.5z" />
    <glyph glyph-name="Egrave" unicode="&#xc8;" horiz-adv-x="582" 
d="M429 879q5 -8 28 -40t34 -49q15 -21 -15 -32q-31 -10 -50 3l-4 4l-82 96q-14 16 17 28q37 13 63 -2q6 -3 9 -8zM280 706q2 -36 12 -60q38 32 95.5 43.5t109 2t87.5 -42t34 -81.5q-2 -58 -44.5 -89.5t-113.5 -29.5q-34 1 -68 16t-55 37q-4 -44 28.5 -80.5t92.5 -44.5
q14 -11 6.5 -41.5t-25.5 -33.5q-42 6 -84.5 -2.5t-78 -37t-42.5 -74.5q-7 -41 13.5 -68.5t50 -37t64.5 -10.5q72 -2 133 34.5t97 107.5q5 6 14 3t17.5 -11.5t6.5 -13.5q-46 -100 -124 -149.5t-176 -51.5q-36 -1 -70.5 5.5t-66.5 22t-54.5 38t-33.5 57.5t-5 77
q11 80 70.5 128t134.5 52q-42 17 -63.5 59.5t-18.5 90t25 81.5q-20 43 -20 102q0 16 25 18t27 -16zM357 568q44 -44 94 -42q24 -1 37.5 11t14.5 32q1 26 -27 37t-64 1t-55 -39z" />
    <glyph glyph-name="Eacute" unicode="&#xc9;" horiz-adv-x="582" 
d="M458 879q15 22 60 13q35 -6 36 -22q0 -5 -4 -9l-82 -96q-14 -16 -49 -9q-28 7 -27 23q0 5 4 11q11 17 34 49t28 40zM280 706q2 -36 12 -60q38 32 95.5 43.5t109 2t87.5 -42t34 -81.5q-2 -58 -44.5 -89.5t-113.5 -29.5q-34 1 -68 16t-55 37q-4 -44 28.5 -80.5t92.5 -44.5
q14 -11 6.5 -41.5t-25.5 -33.5q-42 6 -84.5 -2.5t-78 -37t-42.5 -74.5q-7 -41 13.5 -68.5t50 -37t64.5 -10.5q72 -2 133 34.5t97 107.5q5 6 14 3t17.5 -11.5t6.5 -13.5q-46 -100 -124 -149.5t-176 -51.5q-36 -1 -70.5 5.5t-66.5 22t-54.5 38t-33.5 57.5t-5 77
q11 80 70.5 128t134.5 52q-42 17 -63.5 59.5t-18.5 90t25 81.5q-20 43 -20 102q0 16 25 18t27 -16zM357 568q44 -44 94 -42q24 -1 37.5 11t14.5 32q1 26 -27 37t-64 1t-55 -39z" />
    <glyph glyph-name="Ecircumflex" unicode="&#xca;" horiz-adv-x="582" 
d="M438 884q15 10 39 9.5t36 -9.5q10 -8 28 -27l38.5 -42t24.5 -27q14 -15 -18 -26q-37 -13 -56 -1q-3 1 -4 3l-57 59l-80 -62q-19 -15 -50 0q-28 15 -18 34q2 4 6 8q30 26 111 81zM280 706q2 -36 12 -60q38 32 95.5 43.5t109 2t87.5 -42t34 -81.5q-2 -58 -44.5 -89.5
t-113.5 -29.5q-34 1 -68 16t-55 37q-4 -44 28.5 -80.5t92.5 -44.5q14 -11 6.5 -41.5t-25.5 -33.5q-42 6 -84.5 -2.5t-78 -37t-42.5 -74.5q-7 -41 13.5 -68.5t50 -37t64.5 -10.5q72 -2 133 34.5t97 107.5q5 6 14 3t17.5 -11.5t6.5 -13.5q-46 -100 -124 -149.5t-176 -51.5
q-36 -1 -70.5 5.5t-66.5 22t-54.5 38t-33.5 57.5t-5 77q11 80 70.5 128t134.5 52q-42 17 -63.5 59.5t-18.5 90t25 81.5q-20 43 -20 102q0 16 25 18t27 -16zM357 568q44 -44 94 -42q24 -1 37.5 11t14.5 32q1 26 -27 37t-64 1t-55 -39z" />
    <glyph glyph-name="Edieresis" unicode="&#xcb;" horiz-adv-x="582" 
d="M378 756q-30 0 -45 18t-14 42q4 24 22 41.5t47 18.5q29 0 44.5 -18.5t12.5 -42.5q-2 -23 -20.5 -41t-46.5 -18zM541 756q-30 0 -44.5 18.5t-11.5 41.5q2 23 19.5 41t46.5 19q30 0 45 -18t14 -42q-2 -24 -20.5 -42t-48.5 -18zM280 706q2 -36 12 -60q38 32 95.5 43.5t109 2
t87.5 -42t34 -81.5q-2 -58 -44.5 -89.5t-113.5 -29.5q-34 1 -68 16t-55 37q-4 -44 28.5 -80.5t92.5 -44.5q14 -11 6.5 -41.5t-25.5 -33.5q-42 6 -84.5 -2.5t-78 -37t-42.5 -74.5q-7 -41 13.5 -68.5t50 -37t64.5 -10.5q72 -2 133 34.5t97 107.5q5 6 14 3t17.5 -11.5
t6.5 -13.5q-46 -100 -124 -149.5t-176 -51.5q-36 -1 -70.5 5.5t-66.5 22t-54.5 38t-33.5 57.5t-5 77q11 80 70.5 128t134.5 52q-42 17 -63.5 59.5t-18.5 90t25 81.5q-20 43 -20 102q0 16 25 18t27 -16zM357 568q44 -44 94 -42q24 -1 37.5 11t14.5 32q1 26 -27 37t-64 1
t-55 -39z" />
    <glyph glyph-name="Igrave" unicode="&#xcc;" horiz-adv-x="558" 
d="M539 879q5 -8 28 -40t34 -49q15 -21 -15 -32q-31 -10 -50 3l-4 4l-82 96q-14 16 17 28q37 13 63 -2q6 -3 9 -8zM475 670q20 21 73.5 19.5t62.5 -22.5q-22 -62 -125 -389l-20 -63.5t-19 -54t-22 -50.5t-24.5 -40t-31 -35t-37 -23.5t-47.5 -17t-58 -4.5q-54 0 -93.5 21.5
t-54.5 55t-15 69.5t22.5 68t61.5 46q22 4 47.5 -15t23.5 -40q-23 -26 -27.5 -55.5t9 -49t39.5 -19.5q10 0 18.5 4t16.5 13t14.5 18t14 25.5t12.5 29t12 35.5l11.5 37.5l12.5 42t13 42.5q71 241 75 253q-23 -26 -58 -43.5t-63 -25t-52 -23.5t-30 -40q-15 -55 32 -65
q10 -11 2 -35t-25 -28q-68 -6 -110 35t-30 99q8 41 38 66t72.5 38.5t87.5 25t92.5 35t78.5 60.5z" />
    <glyph glyph-name="Iacute" unicode="&#xcd;" horiz-adv-x="558" 
d="M568 880q15 22 60 13q35 -6 36 -22q0 -5 -4 -9l-82 -96q-14 -16 -49 -9q-28 7 -27 23q0 5 4 11q11 17 34 49t28 40zM475 670q20 21 73.5 19.5t62.5 -22.5q-22 -62 -125 -389l-20 -63.5t-19 -54t-22 -50.5t-24.5 -40t-31 -35t-37 -23.5t-47.5 -17t-58 -4.5
q-54 0 -93.5 21.5t-54.5 55t-15 69.5t22.5 68t61.5 46q22 4 47.5 -15t23.5 -40q-23 -26 -27.5 -55.5t9 -49t39.5 -19.5q10 0 18.5 4t16.5 13t14.5 18t14 25.5t12.5 29t12 35.5l11.5 37.5l12.5 42t13 42.5q71 241 75 253q-23 -26 -58 -43.5t-63 -25t-52 -23.5t-30 -40
q-15 -55 32 -65q10 -11 2 -35t-25 -28q-68 -6 -110 35t-30 99q8 41 38 66t72.5 38.5t87.5 25t92.5 35t78.5 60.5z" />
    <glyph glyph-name="Icircumflex" unicode="&#xce;" horiz-adv-x="558" 
d="M548 885q15 10 39 9.5t36 -9.5q10 -8 28 -27l38.5 -42t24.5 -27q14 -15 -18 -26q-37 -13 -56 -1q-3 1 -4 3l-57 59l-80 -62q-19 -15 -50 0q-28 15 -18 34q2 4 6 8q30 26 111 81zM475 670q20 21 73.5 19.5t62.5 -22.5q-22 -62 -125 -389l-20 -63.5t-19 -54t-22 -50.5
t-24.5 -40t-31 -35t-37 -23.5t-47.5 -17t-58 -4.5q-54 0 -93.5 21.5t-54.5 55t-15 69.5t22.5 68t61.5 46q22 4 47.5 -15t23.5 -40q-23 -26 -27.5 -55.5t9 -49t39.5 -19.5q10 0 18.5 4t16.5 13t14.5 18t14 25.5t12.5 29t12 35.5l11.5 37.5l12.5 42t13 42.5q71 241 75 253
q-23 -26 -58 -43.5t-63 -25t-52 -23.5t-30 -40q-15 -55 32 -65q10 -11 2 -35t-25 -28q-68 -6 -110 35t-30 99q8 41 38 66t72.5 38.5t87.5 25t92.5 35t78.5 60.5z" />
    <glyph glyph-name="Idieresis" unicode="&#xcf;" horiz-adv-x="558" 
d="M488 756q-30 0 -45 18t-14 42q4 24 22 41.5t47 18.5q29 0 44.5 -18.5t12.5 -42.5q-2 -23 -20.5 -41t-46.5 -18zM651 756q-30 0 -44.5 18.5t-11.5 41.5q2 23 19.5 41t46.5 19q30 0 45 -18t14 -42q-2 -24 -20.5 -42t-48.5 -18zM475 670q20 21 73.5 19.5t62.5 -22.5
q-22 -62 -125 -389l-20 -63.5t-19 -54t-22 -50.5t-24.5 -40t-31 -35t-37 -23.5t-47.5 -17t-58 -4.5q-54 0 -93.5 21.5t-54.5 55t-15 69.5t22.5 68t61.5 46q22 4 47.5 -15t23.5 -40q-23 -26 -27.5 -55.5t9 -49t39.5 -19.5q10 0 18.5 4t16.5 13t14.5 18t14 25.5t12.5 29
t12 35.5l11.5 37.5l12.5 42t13 42.5q71 241 75 253q-23 -26 -58 -43.5t-63 -25t-52 -23.5t-30 -40q-15 -55 32 -65q10 -11 2 -35t-25 -28q-68 -6 -110 35t-30 99q8 41 38 66t72.5 38.5t87.5 25t92.5 35t78.5 60.5z" />
    <glyph glyph-name="Eth" unicode="&#xd0;" horiz-adv-x="916" 
d="M236 -9q-79 -1 -123.5 30.5t-40.5 86.5q5 56 49.5 84t104 24t109.5 -35q9 19 25 73h-48q-12 6 -9.5 30.5t19.5 29.5h56q57 196 113 243q22 14 62 6t39 -24q-46 -57 -95 -226h93q12 -5 7 -30t-17 -30q0 -1 -50.5 -0.5t-51.5 0.5q-27 -89 -49 -127q37 -28 80.5 -42t78.5 -9
q68 10 107 87.5t41 192.5q4 258 -220 258q-60 0 -113.5 -29.5t-76 -77t3.5 -106.5q3 -18 -26.5 -39.5t-57.5 -10.5q-58 39 -60 110t49 126q48 55 131 82.5t173 25.5q142 -4 236 -92t90 -247q-4 -166 -84 -265.5t-201 -97.5q-97 0 -186 66q-58 -66 -158 -67zM226 69
q51 -2 84 52q-44 25 -74 25q-40 -1 -49 -30q-9 -27 15 -41q10 -6 24 -6z" />
    <glyph glyph-name="Ntilde" unicode="&#xd1;" horiz-adv-x="889" 
d="M747 764q-22 1 -55.5 18t-47.5 17q-25 1 -47 -27q-5 -6 -18.5 0t-23.5 18t-6 21q13 27 38.5 46.5t58.5 19.5q23 -1 55 -18t48 -17q27 0 48 25q5 6 17.5 -0.5t20.5 -19t4 -20.5q-12 -27 -36.5 -45.5t-55.5 -17.5zM755 694q26 0 45.5 -6.5t32.5 -15.5t21 -24.5t12 -30
t3.5 -35.5t-2 -36t-6.5 -37.5t-8.5 -35l-9 -33t-7.5 -26.5l-22.5 -77l-22.5 -75.5t-18.5 -68t-12.5 -63.5t-1.5 -51t12.5 -42.5t30 -27.5q18 -18 -11 -58t-64 -34q-25 5 -43.5 16t-29.5 29t-18.5 38t-8 49.5t0.5 54.5t8 62.5t13 65t18 69.5l20 69.5l21 70.5v165
q-55 0 -127 -88.5t-113 -202.5l-43 -142l-31.5 -108.5t-17.5 -52.5q-9 -24 -69.5 -21.5t-63.5 29.5q25 76 80.5 266l85.5 285q-23 -26 -58.5 -44t-64 -25.5t-52.5 -23t-29 -38.5q-12 -53 33 -67q7 -4 7.5 -17.5t-8.5 -28.5t-22 -16q-68 -6 -110 36t-30 100q11 49 56.5 77.5
t98.5 39t117 38t101 73.5q17 20 63.5 16t51.5 -26l-44 -141q45 70 108 120.5t129 49.5z" />
    <glyph glyph-name="Ograve" unicode="&#xd2;" horiz-adv-x="754" 
d="M476 879q5 -8 28 -40t34 -49q15 -21 -15 -32q-31 -10 -50 3l-4 4l-82 96q-14 16 17 28q37 13 63 -2q6 -3 9 -8zM471 693q73 -3 121 -35.5t67.5 -78t23 -103t-4.5 -105.5t-22 -92q33 3 72.5 16t65.5 30q8 5 10 -10q1 -27 -11 -39q-71 -49 -158 -59q-40 -99 -117.5 -162
t-181.5 -64q-135 0 -187 89q-33 55 -27 139.5t49 137.5q20 15 56 -7.5t30 -42.5q-25 -42 -26.5 -96.5t26.5 -97t81 -43.5q109 -1 167 154q-130 17 -212.5 105t-62.5 204q10 58 50.5 96.5t89.5 52.5t101 11zM461 611q-43 2 -70.5 -22t-34.5 -68q-11 -71 36 -140t135 -88
q9 36 15 81.5t6 102t-21.5 95t-65.5 39.5z" />
    <glyph glyph-name="Oacute" unicode="&#xd3;" horiz-adv-x="754" 
d="M505 880q15 22 60 13q35 -6 36 -22q0 -5 -4 -9l-82 -96q-14 -16 -49 -9q-28 7 -27 23q0 5 4 11q11 17 34 49t28 40zM471 693q73 -3 121 -35.5t67.5 -78t23 -103t-4.5 -105.5t-22 -92q33 3 72.5 16t65.5 30q8 5 10 -10q1 -27 -11 -39q-71 -49 -158 -59
q-40 -99 -117.5 -162t-181.5 -64q-135 0 -187 89q-33 55 -27 139.5t49 137.5q20 15 56 -7.5t30 -42.5q-25 -42 -26.5 -96.5t26.5 -97t81 -43.5q109 -1 167 154q-130 17 -212.5 105t-62.5 204q10 58 50.5 96.5t89.5 52.5t101 11zM461 611q-43 2 -70.5 -22t-34.5 -68
q-11 -71 36 -140t135 -88q9 36 15 81.5t6 102t-21.5 95t-65.5 39.5z" />
    <glyph glyph-name="Ocircumflex" unicode="&#xd4;" horiz-adv-x="754" 
d="M485 885q15 10 39 9.5t36 -9.5q10 -8 28 -27l38.5 -42t24.5 -27q14 -15 -18 -26q-37 -13 -56 -1q-3 1 -4 3l-57 59l-80 -62q-19 -15 -50 0q-28 15 -18 34q2 4 6 8q30 26 111 81zM471 693q73 -3 121 -35.5t67.5 -78t23 -103t-4.5 -105.5t-22 -92q33 3 72.5 16t65.5 30
q8 5 10 -10q1 -27 -11 -39q-71 -49 -158 -59q-40 -99 -117.5 -162t-181.5 -64q-135 0 -187 89q-33 55 -27 139.5t49 137.5q20 15 56 -7.5t30 -42.5q-25 -42 -26.5 -96.5t26.5 -97t81 -43.5q109 -1 167 154q-130 17 -212.5 105t-62.5 204q10 58 50.5 96.5t89.5 52.5t101 11z
M461 611q-43 2 -70.5 -22t-34.5 -68q-11 -71 36 -140t135 -88q9 36 15 81.5t6 102t-21.5 95t-65.5 39.5z" />
    <glyph glyph-name="Otilde" unicode="&#xd5;" horiz-adv-x="754" 
d="M544 765q-22 1 -55.5 18t-47.5 17q-25 1 -47 -27q-5 -6 -18.5 0t-23.5 18t-6 21q13 27 38.5 46.5t58.5 19.5q23 -1 55 -18t48 -17q27 0 48 25q5 6 17.5 -0.5t20.5 -19t4 -20.5q-12 -27 -36.5 -45.5t-55.5 -17.5zM471 693q73 -3 121 -35.5t67.5 -78t23 -103t-4.5 -105.5
t-22 -92q33 3 72.5 16t65.5 30q8 5 10 -10q1 -27 -11 -39q-71 -49 -158 -59q-40 -99 -117.5 -162t-181.5 -64q-135 0 -187 89q-33 55 -27 139.5t49 137.5q20 15 56 -7.5t30 -42.5q-25 -42 -26.5 -96.5t26.5 -97t81 -43.5q109 -1 167 154q-130 17 -212.5 105t-62.5 204
q10 58 50.5 96.5t89.5 52.5t101 11zM461 611q-43 2 -70.5 -22t-34.5 -68q-11 -71 36 -140t135 -88q9 36 15 81.5t6 102t-21.5 95t-65.5 39.5z" />
    <glyph glyph-name="Odieresis" unicode="&#xd6;" horiz-adv-x="754" 
d="M425 756q-30 0 -45 18t-14 42q4 24 22 41.5t47 18.5q29 0 44.5 -18.5t12.5 -42.5q-2 -23 -20.5 -41t-46.5 -18zM588 756q-30 0 -44.5 18.5t-11.5 41.5q2 23 19.5 41t46.5 19q30 0 45 -18t14 -42q-2 -24 -20.5 -42t-48.5 -18zM471 693q73 -3 121 -35.5t67.5 -78t23 -103
t-4.5 -105.5t-22 -92q33 3 72.5 16t65.5 30q8 5 10 -10q1 -27 -11 -39q-71 -49 -158 -59q-40 -99 -117.5 -162t-181.5 -64q-135 0 -187 89q-33 55 -27 139.5t49 137.5q20 15 56 -7.5t30 -42.5q-25 -42 -26.5 -96.5t26.5 -97t81 -43.5q109 -1 167 154q-130 17 -212.5 105
t-62.5 204q10 58 50.5 96.5t89.5 52.5t101 11zM461 611q-43 2 -70.5 -22t-34.5 -68q-11 -71 36 -140t135 -88q9 36 15 81.5t6 102t-21.5 95t-65.5 39.5z" />
    <glyph glyph-name="multiply" unicode="&#xd7;" horiz-adv-x="565" 
d="M165 154q-10 -7 -30 6t-29 29.5t0 26.5l118 82l-78 67q-11 11 -1 30t28 27.5t34 -1.5l89 -75l117 78q15 9 36 -4t28.5 -31t-1.5 -28l-113 -74l72 -62q14 -12 4.5 -32t-28 -28t-34.5 2l-85 72z" />
    <glyph glyph-name="Oslash" unicode="&#xd8;" horiz-adv-x="709" 
d="M567 717q13 15 33 11t36.5 -20t9.5 -27q-4 -6 -13 -22t-15 -24q36 -37 52.5 -95t14.5 -120t-18 -128q-33 -136 -121 -219t-200 -82q-51 0 -88 15q-8 -11 -32 -52q-12 -15 -32.5 -11t-36.5 20.5t-9 27.5q1 2 12.5 21.5t18.5 28.5q-54 54 -57.5 147.5t47.5 166.5
q19 19 56 -3.5t33 -43.5q-47 -92 -16 -164q40 67 123 220.5t132 235.5q-17 11 -46 13q-38 1 -66 -16t-38.5 -43t-13 -55.5t10.5 -53.5q4 -23 -21.5 -44.5t-44.5 -9.5q-27 25 -42.5 62.5t-7.5 79.5q16 86 83.5 125t150.5 35q44 -1 81 -16zM556 529l-128.5 -227t-127.5 -224
q54 -16 105 9.5t90 86.5q48 75 65.5 170.5t-4.5 184.5z" />
    <glyph glyph-name="Ugrave" unicode="&#xd9;" horiz-adv-x="918" 
d="M681 879q5 -8 28 -40t34 -49q15 -21 -15 -32q-31 -10 -50 3l-4 4l-82 96q-14 16 17 28q37 13 63 -2q6 -3 9 -8zM464 673q20 20 75 16.5t56 -25.5q-78 -238 -138 -444q-43 -148 33 -148q48 0 96.5 53t72.5 130l120 402q23 22 76 12.5t54 -35.5q-50 -135 -138 -459
q-25 -101 13 -102q33 -2 73 36.5t71 104.5q4 5 13.5 2t18 -11t6.5 -13q-35 -75 -95.5 -137.5t-132.5 -62.5q-41 0 -67 28.5t-25 79.5q-36 -50 -90 -80t-103 -29q-193 0 -123 265q0 1 97 314q-22 -26 -57.5 -43.5t-63.5 -25t-52.5 -23t-29.5 -39.5q-12 -51 31 -65
q12 -7 3.5 -34t-25.5 -28q-69 -6 -111.5 35.5t-27.5 99.5q10 40 40.5 64.5t72.5 38t86.5 25.5t92 36.5t78.5 61.5z" />
    <glyph glyph-name="Uacute" unicode="&#xda;" horiz-adv-x="918" 
d="M710 880q15 22 60 13q35 -6 36 -22q0 -5 -4 -9l-82 -96q-14 -16 -49 -9q-28 7 -27 23q0 5 4 11q11 17 34 49t28 40zM464 673q20 20 75 16.5t56 -25.5q-78 -238 -138 -444q-43 -148 33 -148q48 0 96.5 53t72.5 130l120 402q23 22 76 12.5t54 -35.5q-50 -135 -138 -459
q-25 -101 13 -102q33 -2 73 36.5t71 104.5q4 5 13.5 2t18 -11t6.5 -13q-35 -75 -95.5 -137.5t-132.5 -62.5q-41 0 -67 28.5t-25 79.5q-36 -50 -90 -80t-103 -29q-193 0 -123 265q0 1 97 314q-22 -26 -57.5 -43.5t-63.5 -25t-52.5 -23t-29.5 -39.5q-12 -51 31 -65
q12 -7 3.5 -34t-25.5 -28q-69 -6 -111.5 35.5t-27.5 99.5q10 40 40.5 64.5t72.5 38t86.5 25.5t92 36.5t78.5 61.5z" />
    <glyph glyph-name="Ucircumflex" unicode="&#xdb;" horiz-adv-x="918" 
d="M690 885q15 10 39 9.5t36 -9.5q10 -8 28 -27l38.5 -42t24.5 -27q14 -15 -18 -26q-37 -13 -56 -1q-3 1 -4 3l-57 59l-80 -62q-19 -15 -50 0q-28 15 -18 34q2 4 6 8q30 26 111 81zM464 673q20 20 75 16.5t56 -25.5q-78 -238 -138 -444q-43 -148 33 -148q48 0 96.5 53
t72.5 130l120 402q23 22 76 12.5t54 -35.5q-50 -135 -138 -459q-25 -101 13 -102q33 -2 73 36.5t71 104.5q4 5 13.5 2t18 -11t6.5 -13q-35 -75 -95.5 -137.5t-132.5 -62.5q-41 0 -67 28.5t-25 79.5q-36 -50 -90 -80t-103 -29q-193 0 -123 265q0 1 97 314
q-22 -26 -57.5 -43.5t-63.5 -25t-52.5 -23t-29.5 -39.5q-12 -51 31 -65q12 -7 3.5 -34t-25.5 -28q-69 -6 -111.5 35.5t-27.5 99.5q10 40 40.5 64.5t72.5 38t86.5 25.5t92 36.5t78.5 61.5z" />
    <glyph glyph-name="Udieresis" unicode="&#xdc;" horiz-adv-x="918" 
d="M630 756q-30 0 -45 18t-14 42q4 24 22 41.5t47 18.5q29 0 44.5 -18.5t12.5 -42.5q-2 -23 -20.5 -41t-46.5 -18zM793 756q-30 0 -44.5 18.5t-11.5 41.5q2 23 19.5 41t46.5 19q30 0 45 -18t14 -42q-2 -24 -20.5 -42t-48.5 -18zM464 673q20 20 75 16.5t56 -25.5
q-78 -238 -138 -444q-43 -148 33 -148q48 0 96.5 53t72.5 130l120 402q23 22 76 12.5t54 -35.5q-50 -135 -138 -459q-25 -101 13 -102q33 -2 73 36.5t71 104.5q4 5 13.5 2t18 -11t6.5 -13q-35 -75 -95.5 -137.5t-132.5 -62.5q-41 0 -67 28.5t-25 79.5q-36 -50 -90 -80
t-103 -29q-193 0 -123 265q0 1 97 314q-22 -26 -57.5 -43.5t-63.5 -25t-52.5 -23t-29.5 -39.5q-12 -51 31 -65q12 -7 3.5 -34t-25.5 -28q-69 -6 -111.5 35.5t-27.5 99.5q10 40 40.5 64.5t72.5 38t86.5 25.5t92 36.5t78.5 61.5z" />
    <glyph glyph-name="Yacute" unicode="&#xdd;" horiz-adv-x="901" 
d="M716 881q15 22 60 13q35 -6 36 -22q0 -5 -4 -9l-82 -96q-14 -16 -49 -9q-28 7 -27 23q0 5 4 11q11 17 34 49t28 40zM911 213q4 5 13.5 2.5t18.5 -10.5t6 -14q-52 -102 -110.5 -159t-139.5 -89q-14 -56 -29 -98q-28 -72 -72.5 -106.5t-124.5 -34.5q-57 -1 -89.5 30
t-25.5 80q5 30 21 54t35.5 39.5t51.5 29.5t55.5 21t60.5 17q6 18 20.5 67t18.5 61q-72 -96 -167 -96q-93 0 -122.5 70.5t4.5 194.5q6 24 91 298q-22 -26 -57.5 -43.5t-64 -25t-52.5 -23t-30 -39.5q-12 -52 30 -65q8 -3 8.5 -18t-8 -29t-21.5 -15q-69 -4 -110.5 35.5
t-28.5 97.5q9 41 39.5 66t73 38t87.5 25t93 37t79 63q20 14 52 15.5t55 -6.5t23 -19q-92 -284 -133 -428q-43 -149 29 -150q50 0 97.5 51t77.5 134l116 389q18 20 74 11.5t57 -31.5q-28 -77 -92.5 -289l-101.5 -341q118 49 192 203zM569 -90q-34 -12 -64 -35t-39 -44
q-8 -21 -3 -34t22 -13q38 2 62 58q13 33 22 68z" />
    <glyph glyph-name="Thorn" unicode="&#xde;" horiz-adv-x="756" 
d="M503 704q34 5 58 -21q17 -20 2 -31q-18 -14 -39 -68q109 -19 173 -87.5t44 -176.5q-22 -120 -120.5 -184.5t-241.5 -32.5q-22 -76 -26 -89q-6 -16 -40 -20.5t-63 5t-22 28.5q6 16 59 203.5t77 260.5q-90 -19 -134.5 -77t-1.5 -127q6 -10 -10 -24.5t-37.5 -21t-39.5 0.5
q-61 34 -61 103q-1 105 91.5 169t228.5 74q48 107 103 116zM492 496l-30 -97l-35.5 -122.5l-24.5 -87.5q80 -15 138 24t73 121q13 69 -22.5 110t-98.5 52z" />
    <glyph glyph-name="germandbls" unicode="&#xdf;" horiz-adv-x="586" 
d="M596 214q4 5 13.5 2t18 -11t6.5 -13q-66 -150 -197 -140q-47 -54 -128 -59q-65 -3 -110 31t-47 115q0 10 18.5 20t39.5 9t26 -19q12 -50 39.5 -66.5t48.5 9.5q-14 20 -3.5 46t32.5 28q3 102 -87 154q-20 11 -15 48.5t30 47.5q42 17 66.5 38.5t33.5 62.5q8 38 -7.5 63
t-50.5 24q-32 0 -57.5 -24.5t-56.5 -97.5q-25 -62 -62 -229t-32 -232q1 -18 -30.5 -25t-64 -0.5t-32.5 23.5q8 139 42.5 290t90.5 258q68 129 201 131q89 1 141.5 -53.5t38.5 -136.5q-9 -49 -48 -86t-89 -53q71 -50 98 -118.5t5 -147.5q78 4 128 111z" />
    <glyph glyph-name="agrave" unicode="&#xe0;" horiz-adv-x="523" 
d="M296 610q5 -8 28 -40t34 -49q15 -21 -15 -32q-31 -10 -50 3l-4 4l-82 96q-14 16 17 28q37 13 63 -2q6 -3 9 -8zM252 424q59 9 126.5 -5t107.5 -55q7 -14 -15.5 -40.5t-35.5 -21.5q-65 50 -146 42q-44 -4 -83 -38.5t-60 -86.5q-21 -46 -24 -85.5t12 -52.5q35 -34 95 59
q46 71 71 154q18 17 63 6.5t51 -28.5q-28 -100 -33 -124q-17 -75 17 -75q27 1 68.5 42.5t65.5 97.5q4 5 14 2.5t19 -10.5t6 -13q-45 -90 -105 -144t-129 -54q-37 0 -54.5 32.5t-9.5 87.5q-32 -56 -69 -88.5t-94 -33.5q-58 -2 -93.5 38t-23.5 124q15 103 93 179.5t166 90.5z
" />
    <glyph glyph-name="aacute" unicode="&#xe1;" horiz-adv-x="523" 
d="M325 611q15 22 60 13q35 -6 36 -22q0 -5 -4 -9l-82 -96q-14 -16 -49 -9q-28 7 -27 23q0 5 4 11q11 17 34 49t28 40zM252 424q59 9 126.5 -5t107.5 -55q7 -14 -15.5 -40.5t-35.5 -21.5q-65 50 -146 42q-44 -4 -83 -38.5t-60 -86.5q-21 -46 -24 -85.5t12 -52.5
q35 -34 95 59q46 71 71 154q18 17 63 6.5t51 -28.5q-28 -100 -33 -124q-17 -75 17 -75q27 1 68.5 42.5t65.5 97.5q4 5 14 2.5t19 -10.5t6 -13q-45 -90 -105 -144t-129 -54q-37 0 -54.5 32.5t-9.5 87.5q-32 -56 -69 -88.5t-94 -33.5q-58 -2 -93.5 38t-23.5 124
q15 103 93 179.5t166 90.5z" />
    <glyph glyph-name="acircumflex" unicode="&#xe2;" horiz-adv-x="523" 
d="M305 616q15 10 39 9.5t36 -9.5q10 -8 28 -27l38.5 -42t24.5 -27q14 -15 -18 -26q-37 -13 -56 -1q-3 1 -4 3l-57 59l-80 -62q-19 -15 -50 0q-28 15 -18 34q2 4 6 8q30 26 111 81zM252 424q59 9 126.5 -5t107.5 -55q7 -14 -15.5 -40.5t-35.5 -21.5q-65 50 -146 42
q-44 -4 -83 -38.5t-60 -86.5q-21 -46 -24 -85.5t12 -52.5q35 -34 95 59q46 71 71 154q18 17 63 6.5t51 -28.5q-28 -100 -33 -124q-17 -75 17 -75q27 1 68.5 42.5t65.5 97.5q4 5 14 2.5t19 -10.5t6 -13q-45 -90 -105 -144t-129 -54q-37 0 -54.5 32.5t-9.5 87.5
q-32 -56 -69 -88.5t-94 -33.5q-58 -2 -93.5 38t-23.5 124q15 103 93 179.5t166 90.5z" />
    <glyph glyph-name="atilde" unicode="&#xe3;" horiz-adv-x="523" 
d="M364 496q-22 1 -55.5 18t-47.5 17q-25 1 -47 -27q-5 -6 -18.5 0t-23.5 18t-6 21q13 27 38.5 46.5t58.5 19.5q23 -1 55 -18t48 -17q27 0 48 25q5 6 17.5 -0.5t20.5 -19t4 -20.5q-12 -27 -36.5 -45.5t-55.5 -17.5zM252 424q59 9 126.5 -5t107.5 -55q7 -14 -15.5 -40.5
t-35.5 -21.5q-65 50 -146 42q-44 -4 -83 -38.5t-60 -86.5q-21 -46 -24 -85.5t12 -52.5q35 -34 95 59q46 71 71 154q18 17 63 6.5t51 -28.5q-28 -100 -33 -124q-17 -75 17 -75q27 1 68.5 42.5t65.5 97.5q4 5 14 2.5t19 -10.5t6 -13q-45 -90 -105 -144t-129 -54
q-37 0 -54.5 32.5t-9.5 87.5q-32 -56 -69 -88.5t-94 -33.5q-58 -2 -93.5 38t-23.5 124q15 103 93 179.5t166 90.5z" />
    <glyph glyph-name="adieresis" unicode="&#xe4;" horiz-adv-x="523" 
d="M245 487q-30 0 -45 18t-14 42q4 24 22 41.5t47 18.5q29 0 44.5 -18.5t12.5 -42.5q-2 -23 -20.5 -41t-46.5 -18zM408 487q-30 0 -44.5 18.5t-11.5 41.5q2 23 19.5 41t46.5 19q30 0 45 -18t14 -42q-2 -24 -20.5 -42t-48.5 -18zM252 424q59 9 126.5 -5t107.5 -55
q7 -14 -15.5 -40.5t-35.5 -21.5q-65 50 -146 42q-44 -4 -83 -38.5t-60 -86.5q-21 -46 -24 -85.5t12 -52.5q35 -34 95 59q46 71 71 154q18 17 63 6.5t51 -28.5q-28 -100 -33 -124q-17 -75 17 -75q27 1 68.5 42.5t65.5 97.5q4 5 14 2.5t19 -10.5t6 -13q-45 -90 -105 -144
t-129 -54q-37 0 -54.5 32.5t-9.5 87.5q-32 -56 -69 -88.5t-94 -33.5q-58 -2 -93.5 38t-23.5 124q15 103 93 179.5t166 90.5z" />
    <glyph glyph-name="aring" unicode="&#xe5;" horiz-adv-x="523" 
d="M338 641q45 -1 69.5 -25.5t18.5 -63.5q-4 -38 -34 -61t-73 -23q-44 0 -68.5 25t-18.5 64q4 37 34 60.5t72 23.5zM334 587q-30 0 -38 -33q-3 -14 4.5 -23t22.5 -9q33 0 39 32q5 33 -28 33zM252 424q59 9 126.5 -5t107.5 -55q7 -14 -15.5 -40.5t-35.5 -21.5q-65 50 -146 42
q-44 -4 -83 -38.5t-60 -86.5q-21 -46 -24 -85.5t12 -52.5q35 -34 95 59q46 71 71 154q18 17 63 6.5t51 -28.5q-28 -100 -33 -124q-17 -75 17 -75q27 1 68.5 42.5t65.5 97.5q4 5 14 2.5t19 -10.5t6 -13q-45 -90 -105 -144t-129 -54q-37 0 -54.5 32.5t-9.5 87.5
q-32 -56 -69 -88.5t-94 -33.5q-58 -2 -93.5 38t-23.5 124q15 103 93 179.5t166 90.5z" />
    <glyph glyph-name="ae" unicode="&#xe6;" horiz-adv-x="718" 
d="M250 423q103 4 146 -76q69 80 171 77q66 -1 100.5 -39t27.5 -86q-8 -78 -79.5 -114.5t-174.5 -16.5q-1 -44 21 -70t62 -27q58 -2 108.5 26.5t95.5 115.5q5 6 15 3.5t18 -11t5 -14.5q-34 -66 -71 -109t-73.5 -61t-62.5 -24t-57 -6q-45 0 -83.5 21t-60.5 58
q-29 -37 -72 -56t-88 -18q-64 1 -97.5 31.5t-31.5 80.5q4 85 73 127.5t167 22.5q2 53 -15.5 77t-57.5 23q-108 -2 -203 -196q-4 -5 -14 -3.5t-19 9.5t-5 15q55 120 116.5 177.5t138.5 62.5zM554 343q-32 4 -63.5 -31.5t-43.5 -88.5q47 -5 79.5 13.5t45.5 50.5q10 20 6 37
t-24 19zM244 204q-38 -12 -54 -55q-15 -44 10 -64q10 -9 27 -9q20 0 35 11t23.5 32t12.5 39t8 44q-33 9 -62 2z" />
    <glyph glyph-name="ccedilla" unicode="&#xe7;" horiz-adv-x="418" 
d="M427 214q4 5 13.5 2t18.5 -11t7 -13q-81 -171 -230 -195l-32 -44q45 -6 62.5 -38t-0.5 -66q-21 -46 -76 -59.5t-120 27.5q-5 6 -2.5 17.5t11.5 21t16 5.5q29 -18 55 -18t38 24q12 17 3.5 32.5t-40.5 14.5q-14 0 -18 8.5t4 21.5l31 49q-77 2 -124.5 56t-39.5 131
q10 101 81.5 173.5t178.5 71.5q65 -1 96.5 -29t29 -64t-26.5 -68q-15 -25 -70 -25q-45 0 -48 18q0 3 2 7q7 9 12.5 21.5t9 25.5t0 22.5t-15.5 10.5q-36 4 -71 -43.5t-41 -115.5q-4 -54 23 -84t76 -29q55 1 105 35t82 107z" />
    <glyph glyph-name="egrave" unicode="&#xe8;" horiz-adv-x="456" 
d="M252 610q5 -8 28 -40t34 -49q15 -21 -15 -32q-31 -10 -50 3l-4 4l-82 96q-14 16 17 28q37 13 63 -2q6 -3 9 -8zM266 424q57 -1 92.5 -29t39 -65t-13.5 -77q-27 -56 -93 -79.5t-151 -6.5q-1 -44 27 -69t81 -28q57 -4 118.5 30t99.5 114q4 5 14 2.5t18.5 -11t6.5 -13.5
q-100 -206 -296 -202q-114 3 -165 65t-36 151q16 100 88.5 160.5t169.5 57.5zM253 343q-31 3 -62.5 -32t-44.5 -88q48 -5 81 13.5t45 50.5q10 20 5.5 37.5t-24.5 18.5z" />
    <glyph glyph-name="eacute" unicode="&#xe9;" horiz-adv-x="456" 
d="M281 611q15 22 60 13q35 -6 36 -22q0 -5 -4 -9l-82 -96q-14 -16 -49 -9q-28 7 -27 23q0 5 4 11q11 17 34 49t28 40zM266 424q57 -1 92.5 -29t39 -65t-13.5 -77q-27 -56 -93 -79.5t-151 -6.5q-1 -44 27 -69t81 -28q57 -4 118.5 30t99.5 114q4 5 14 2.5t18.5 -11t6.5 -13.5
q-100 -206 -296 -202q-114 3 -165 65t-36 151q16 100 88.5 160.5t169.5 57.5zM253 343q-31 3 -62.5 -32t-44.5 -88q48 -5 81 13.5t45 50.5q10 20 5.5 37.5t-24.5 18.5z" />
    <glyph glyph-name="ecircumflex" unicode="&#xea;" horiz-adv-x="456" 
d="M261 616q15 10 39 9.5t36 -9.5q10 -8 28 -27l38.5 -42t24.5 -27q14 -15 -18 -26q-37 -13 -56 -1q-3 1 -4 3l-57 59l-80 -62q-19 -15 -50 0q-28 15 -18 34q2 4 6 8q30 26 111 81zM266 424q57 -1 92.5 -29t39 -65t-13.5 -77q-27 -56 -93 -79.5t-151 -6.5q-1 -44 27 -69
t81 -28q57 -4 118.5 30t99.5 114q4 5 14 2.5t18.5 -11t6.5 -13.5q-100 -206 -296 -202q-114 3 -165 65t-36 151q16 100 88.5 160.5t169.5 57.5zM253 343q-31 3 -62.5 -32t-44.5 -88q48 -5 81 13.5t45 50.5q10 20 5.5 37.5t-24.5 18.5z" />
    <glyph glyph-name="edieresis" unicode="&#xeb;" horiz-adv-x="456" 
d="M201 487q-30 0 -45 18t-14 42q4 24 22 41.5t47 18.5q29 0 44.5 -18.5t12.5 -42.5q-2 -23 -20.5 -41t-46.5 -18zM364 487q-30 0 -44.5 18.5t-11.5 41.5q2 23 19.5 41t46.5 19q30 0 45 -18t14 -42q-2 -24 -20.5 -42t-48.5 -18zM266 424q57 -1 92.5 -29t39 -65t-13.5 -77
q-27 -56 -93 -79.5t-151 -6.5q-1 -44 27 -69t81 -28q57 -4 118.5 30t99.5 114q4 5 14 2.5t18.5 -11t6.5 -13.5q-100 -206 -296 -202q-114 3 -165 65t-36 151q16 100 88.5 160.5t169.5 57.5zM253 343q-31 3 -62.5 -32t-44.5 -88q48 -5 81 13.5t45 50.5q10 20 5.5 37.5
t-24.5 18.5z" />
    <glyph glyph-name="igrave" unicode="&#xec;" horiz-adv-x="245" 
d="M136 606q5 -8 28 -40t34 -49q15 -21 -15 -32q-31 -10 -50 3l-4 4l-82 96q-14 16 17 28q37 13 63 -2q6 -3 9 -8zM73 409q6 18 68 16q61 -2 63 -19q1 -2 0 -4l-40 -122t-43 -135q-11 -32 -10 -53.5t20 -20.5q24 1 61.5 43.5t62.5 98.5q4 6 13.5 3.5t18.5 -11t6 -14.5
q-24 -48 -52 -87.5t-72 -74.5t-89 -37q-66 -4 -87.5 30.5t-7.5 97.5q20 88 88 289z" />
    <glyph glyph-name="iacute" unicode="&#xed;" horiz-adv-x="245" 
d="M165 607q15 22 60 13q35 -6 36 -22q0 -5 -4 -9l-82 -96q-14 -16 -49 -9q-28 7 -27 23q0 5 4 11q11 17 34 49t28 40zM73 409q6 18 68 16q61 -2 63 -19q1 -2 0 -4l-40 -122t-43 -135q-11 -32 -10 -53.5t20 -20.5q24 1 61.5 43.5t62.5 98.5q4 6 13.5 3.5t18.5 -11t6 -14.5
q-24 -48 -52 -87.5t-72 -74.5t-89 -37q-66 -4 -87.5 30.5t-7.5 97.5q20 88 88 289z" />
    <glyph glyph-name="icircumflex" unicode="&#xee;" horiz-adv-x="245" 
d="M145 612q15 10 39 9.5t36 -9.5q10 -8 28 -27l38.5 -42t24.5 -27q14 -15 -18 -26q-37 -13 -56 -1q-3 1 -4 3l-57 59l-80 -62q-19 -15 -50 0q-28 15 -18 34q2 4 6 8q30 26 111 81zM73 409q6 18 68 16q61 -2 63 -19q1 -2 0 -4l-40 -122t-43 -135q-11 -32 -10 -53.5t20 -20.5
q24 1 61.5 43.5t62.5 98.5q4 6 13.5 3.5t18.5 -11t6 -14.5q-24 -48 -52 -87.5t-72 -74.5t-89 -37q-66 -4 -87.5 30.5t-7.5 97.5q20 88 88 289z" />
    <glyph glyph-name="idieresis" unicode="&#xef;" horiz-adv-x="245" 
d="M85 483q-30 0 -45 18t-14 42q4 24 22 41.5t47 18.5q29 0 44.5 -18.5t12.5 -42.5q-2 -23 -20.5 -41t-46.5 -18zM248 483q-30 0 -44.5 18.5t-11.5 41.5q2 23 19.5 41t46.5 19q30 0 45 -18t14 -42q-2 -24 -20.5 -42t-48.5 -18zM73 409q6 18 68 16q61 -2 63 -19q1 -2 0 -4
l-40 -122t-43 -135q-11 -32 -10 -53.5t20 -20.5q24 1 61.5 43.5t62.5 98.5q4 6 13.5 3.5t18.5 -11t6 -14.5q-24 -48 -52 -87.5t-72 -74.5t-89 -37q-66 -4 -87.5 30.5t-7.5 97.5q20 88 88 289z" />
    <glyph glyph-name="eth" unicode="&#xf0;" horiz-adv-x="480" 
d="M132 -10q-75 2 -111 64t-13 158q16 64 55 113t85.5 72t98 30.5t92.5 -10.5q15 55 15 98l-75 -24q-14 -5 -23.5 8t-8 29t13.5 20l80 26q-27 58 -114 51q-15 -2 -22 14t-2.5 34.5t17.5 21.5q43 9 98 -4q85 -13 115 -88q5 2 13.5 5l15.5 5.5l13 4.5q11 4 20.5 -9t9 -29
t-13.5 -20l-41 -13q9 -89 -15 -190q-43 -170 -95 -250q43 -10 83 18t67 89q4 5 13 2t17.5 -11t6.5 -13q-40 -89 -99.5 -118t-125.5 -14q-76 -72 -170 -70zM151 77q32 -2 59 27q-11 21 3.5 43t38.5 18q36 60 71 176q-64 19 -118 -15.5t-78 -108.5q-19 -56 -12.5 -97.5
t36.5 -42.5z" />
    <glyph glyph-name="ntilde" unicode="&#xf1;" 
d="M319 495q-22 1 -55.5 18t-47.5 17q-25 1 -47 -27q-5 -6 -18.5 0t-23.5 18t-6 21q13 27 38.5 46.5t58.5 19.5q23 -1 55 -18t48 -17q27 0 48 25q5 6 17.5 -0.5t20.5 -19t4 -20.5q-12 -27 -36.5 -45.5t-55.5 -17.5zM337 427q56 -1 74.5 -37.5t3.5 -99.5q-5 -20 -21 -72
t-22 -77q-15 -70 14 -70t65.5 42t62.5 101q5 5 14.5 2.5t18 -11t6.5 -13.5q-17 -35 -37.5 -66t-48 -63t-62.5 -51.5t-72 -20.5q-63 -1 -85.5 30.5t-9.5 88.5q4 19 21 90.5t19 78.5q7 22 3 38t-25 15q-43 -3 -102 -73q-20 -68 -64 -249q-9 -18 -68.5 -17t-64.5 24
q32 131 110 399q15 16 63.5 11.5t59.5 -27.5l-19 -66q94 94 166 93z" />
    <glyph glyph-name="ograve" unicode="&#xf2;" horiz-adv-x="511" 
d="M252 609q5 -8 28 -40t34 -49q15 -21 -15 -32q-31 -10 -50 3l-4 4l-82 96q-14 16 17 28q37 13 63 -2q6 -3 9 -8zM267 427q86 0 127 -51.5t34 -125.5t-52 -148q92 -9 145 112q4 5 14 2.5t19 -10.5t6 -14q-24 -50 -53.5 -81.5t-58 -43t-59 -15t-56.5 3.5q-72 -66 -173 -66
q-87 0 -132.5 51.5t-21.5 161.5q22 103 95 163t166 61zM250 346q-35 -1 -64 -42.5t-43 -99.5q-31 -134 37 -134q30 0 54 27q-13 22 0 44.5t37 20.5q13 34 19.5 66.5t6.5 59.5t-12 43t-35 15z" />
    <glyph glyph-name="oacute" unicode="&#xf3;" horiz-adv-x="511" 
d="M281 610q15 22 60 13q35 -6 36 -22q0 -5 -4 -9l-82 -96q-14 -16 -49 -9q-28 7 -27 23q0 5 4 11q11 17 34 49t28 40zM267 427q86 0 127 -51.5t34 -125.5t-52 -148q92 -9 145 112q4 5 14 2.5t19 -10.5t6 -14q-24 -50 -53.5 -81.5t-58 -43t-59 -15t-56.5 3.5
q-72 -66 -173 -66q-87 0 -132.5 51.5t-21.5 161.5q22 103 95 163t166 61zM250 346q-35 -1 -64 -42.5t-43 -99.5q-31 -134 37 -134q30 0 54 27q-13 22 0 44.5t37 20.5q13 34 19.5 66.5t6.5 59.5t-12 43t-35 15z" />
    <glyph glyph-name="ocircumflex" unicode="&#xf4;" horiz-adv-x="511" 
d="M261 615q15 10 39 9.5t36 -9.5q10 -8 28 -27l38.5 -42t24.5 -27q14 -15 -18 -26q-37 -13 -56 -1q-3 1 -4 3l-57 59l-80 -62q-19 -15 -50 0q-28 15 -18 34q2 4 6 8q30 26 111 81zM267 427q86 0 127 -51.5t34 -125.5t-52 -148q92 -9 145 112q4 5 14 2.5t19 -10.5t6 -14
q-24 -50 -53.5 -81.5t-58 -43t-59 -15t-56.5 3.5q-72 -66 -173 -66q-87 0 -132.5 51.5t-21.5 161.5q22 103 95 163t166 61zM250 346q-35 -1 -64 -42.5t-43 -99.5q-31 -134 37 -134q30 0 54 27q-13 22 0 44.5t37 20.5q13 34 19.5 66.5t6.5 59.5t-12 43t-35 15z" />
    <glyph glyph-name="otilde" unicode="&#xf5;" horiz-adv-x="511" 
d="M320 495q-22 1 -55.5 18t-47.5 17q-25 1 -47 -27q-5 -6 -18.5 0t-23.5 18t-6 21q13 27 38.5 46.5t58.5 19.5q23 -1 55 -18t48 -17q27 0 48 25q5 6 17.5 -0.5t20.5 -19t4 -20.5q-12 -27 -36.5 -45.5t-55.5 -17.5zM267 427q86 0 127 -51.5t34 -125.5t-52 -148
q92 -9 145 112q4 5 14 2.5t19 -10.5t6 -14q-24 -50 -53.5 -81.5t-58 -43t-59 -15t-56.5 3.5q-72 -66 -173 -66q-87 0 -132.5 51.5t-21.5 161.5q22 103 95 163t166 61zM250 346q-35 -1 -64 -42.5t-43 -99.5q-31 -134 37 -134q30 0 54 27q-13 22 0 44.5t37 20.5
q13 34 19.5 66.5t6.5 59.5t-12 43t-35 15z" />
    <glyph glyph-name="odieresis" unicode="&#xf6;" horiz-adv-x="511" 
d="M201 486q-30 0 -45 18t-14 42q4 24 22 41.5t47 18.5q29 0 44.5 -18.5t12.5 -42.5q-2 -23 -20.5 -41t-46.5 -18zM364 486q-30 0 -44.5 18.5t-11.5 41.5q2 23 19.5 41t46.5 19q30 0 45 -18t14 -42q-2 -24 -20.5 -42t-48.5 -18zM267 427q86 0 127 -51.5t34 -125.5t-52 -148
q92 -9 145 112q4 5 14 2.5t19 -10.5t6 -14q-24 -50 -53.5 -81.5t-58 -43t-59 -15t-56.5 3.5q-72 -66 -173 -66q-87 0 -132.5 51.5t-21.5 161.5q22 103 95 163t166 61zM250 346q-35 -1 -64 -42.5t-43 -99.5q-31 -134 37 -134q30 0 54 27q-13 22 0 44.5t37 20.5
q13 34 19.5 66.5t6.5 59.5t-12 43t-35 15z" />
    <glyph glyph-name="divide" unicode="&#xf7;" horiz-adv-x="532" 
d="M312 391q-26 0 -43.5 18.5t-15.5 44.5q2 25 21 42.5t45 17.5q27 0 43 -17.5t14 -43.5t-20.5 -44t-43.5 -18zM122 252q-16 0 -21 20.5t4 41t27 20.5h291q18 0 24 -20.5t-3 -41t-26 -20.5h-296zM224 70q-26 0 -43.5 18t-15.5 44q2 25 21 43t45 18q27 0 43 -18t14 -44
q-1 -25 -20 -43t-44 -18z" />
    <glyph glyph-name="oslash" unicode="&#xf8;" horiz-adv-x="532" 
d="M127 -70q-9 -19 -37 -14q-24 5 -24 23q0 6 4 13q5 7 27 52q-56 18 -83 69.5t-10 129.5q22 107 105.5 171t185.5 51q16 30 29 52q11 14 26.5 13.5t26.5 -13.5t2 -28q-12 -18 -21 -37q86 -28 99.5 -122.5t-47.5 -186.5q82 -5 132 111q4 5 13.5 2.5t18.5 -10.5t6 -14
q-43 -93 -95 -121t-118 -15q-37 -38 -94 -54t-112 -9zM140 90l53 118.5l63 137.5q-46 -1 -81.5 -43t-49.5 -99q-19 -84 15 -114zM197 72q22 -1 43.5 8t32.5 24q-13 22 0.5 41t36.5 17q27 44 30.5 91.5t-21.5 76.5z" />
    <glyph glyph-name="ugrave" unicode="&#xf9;" 
d="M247 609q5 -8 28 -40t34 -49q15 -21 -15 -32q-31 -10 -50 3l-4 4l-82 96q-14 16 17 28q37 13 63 -2q6 -3 9 -8zM320 414q10 17 62.5 12.5t62.5 -27.5q-4 -17 -13.5 -49l-17.5 -59.5l-17 -61.5t-14.5 -60.5t-8 -49.5t0.5 -35.5t13 -12.5q25 0 63 42t64 100q5 6 14.5 3.5
t18 -11t5.5 -13.5q-103 -201 -219 -199q-40 1 -57.5 37.5t-5.5 85.5q-79 -128 -190 -125q-64 0 -84.5 40t-7.5 100q11 57 43 166l34 116q10 19 66 14t58 -27q-3 -10 -24 -88.5t-31 -122.5q-20 -82 -15 -100q4 -15 20 -15q28 1 64.5 43t56.5 98q30 96 59 199z" />
    <glyph glyph-name="uacute" unicode="&#xfa;" 
d="M276 610q15 22 60 13q35 -6 36 -22q0 -5 -4 -9l-82 -96q-14 -16 -49 -9q-28 7 -27 23q0 5 4 11q11 17 34 49t28 40zM320 414q10 17 62.5 12.5t62.5 -27.5q-4 -17 -13.5 -49l-17.5 -59.5l-17 -61.5t-14.5 -60.5t-8 -49.5t0.5 -35.5t13 -12.5q25 0 63 42t64 100
q5 6 14.5 3.5t18 -11t5.5 -13.5q-103 -201 -219 -199q-40 1 -57.5 37.5t-5.5 85.5q-79 -128 -190 -125q-64 0 -84.5 40t-7.5 100q11 57 43 166l34 116q10 19 66 14t58 -27q-3 -10 -24 -88.5t-31 -122.5q-20 -82 -15 -100q4 -15 20 -15q28 1 64.5 43t56.5 98q30 96 59 199z
" />
    <glyph glyph-name="ucircumflex" unicode="&#xfb;" 
d="M256 615q15 10 39 9.5t36 -9.5q10 -8 28 -27l38.5 -42t24.5 -27q14 -15 -18 -26q-37 -13 -56 -1q-3 1 -4 3l-57 59l-80 -62q-19 -15 -50 0q-28 15 -18 34q2 4 6 8q30 26 111 81zM320 414q10 17 62.5 12.5t62.5 -27.5q-4 -17 -13.5 -49l-17.5 -59.5l-17 -61.5t-14.5 -60.5
t-8 -49.5t0.5 -35.5t13 -12.5q25 0 63 42t64 100q5 6 14.5 3.5t18 -11t5.5 -13.5q-103 -201 -219 -199q-40 1 -57.5 37.5t-5.5 85.5q-79 -128 -190 -125q-64 0 -84.5 40t-7.5 100q11 57 43 166l34 116q10 19 66 14t58 -27q-3 -10 -24 -88.5t-31 -122.5q-20 -82 -15 -100
q4 -15 20 -15q28 1 64.5 43t56.5 98q30 96 59 199z" />
    <glyph glyph-name="udieresis" unicode="&#xfc;" 
d="M196 486q-30 0 -45 18t-14 42q4 24 22 41.5t47 18.5q29 0 44.5 -18.5t12.5 -42.5q-2 -23 -20.5 -41t-46.5 -18zM359 486q-30 0 -44.5 18.5t-11.5 41.5q2 23 19.5 41t46.5 19q30 0 45 -18t14 -42q-2 -24 -20.5 -42t-48.5 -18zM320 414q10 17 62.5 12.5t62.5 -27.5
q-4 -17 -13.5 -49l-17.5 -59.5l-17 -61.5t-14.5 -60.5t-8 -49.5t0.5 -35.5t13 -12.5q25 0 63 42t64 100q5 6 14.5 3.5t18 -11t5.5 -13.5q-103 -201 -219 -199q-40 1 -57.5 37.5t-5.5 85.5q-79 -128 -190 -125q-64 0 -84.5 40t-7.5 100q11 57 43 166l34 116q10 19 66 14
t58 -27q-3 -10 -24 -88.5t-31 -122.5q-20 -82 -15 -100q4 -15 20 -15q28 1 64.5 43t56.5 98q30 96 59 199z" />
    <glyph glyph-name="yacute" unicode="&#xfd;" 
d="M269 611q15 22 60 13q35 -6 36 -22q0 -5 -4 -9l-82 -96q-14 -16 -49 -9q-28 7 -27 23q0 5 4 11q11 17 34 49t28 40zM103 -296q-57 -1 -90 28t-26 80q4 30 19.5 54t34.5 39.5t51.5 30t56.5 21.5l63 18q17 44 41 124q-40 -59 -86.5 -84t-90.5 -23q-66 2 -84.5 43t-2.5 104
q12 50 39 142.5t37 131.5q12 18 65.5 13.5t57.5 -26.5q-39 -147 -63 -247q-10 -34 -8.5 -57t22.5 -22q28 2 62 44.5t56 98.5q30 79 61 197q16 19 68 12t57 -28l-107 -387q54 23 96 71t83 132q4 5 13.5 2.5t18.5 -10.5t6 -14q-53 -106 -105.5 -161.5t-129.5 -88.5
q-41 -139 -83.5 -188.5t-131.5 -49.5zM122 -214q36 8 56 61q4 11 10 32.5t7 26.5q-59 -23 -86 -56q-20 -23 -16.5 -45.5t29.5 -18.5z" />
    <glyph glyph-name="thorn" unicode="&#xfe;" horiz-adv-x="508" 
d="M517 214q4 5 14 2t19 -11t6 -13q-29 -61 -69 -95.5t-74.5 -41.5t-70.5 1q-55 -56 -129 -63t-123 35q-37 -144 -72 -304q-4 -17 -60 -18q-61 -2 -67 18q-1 3 0 6q170 703 251 945q7 19 69 13q60 -5 66 -23q1 -2 0 -5l-92 -287q64 55 145 53q50 -1 76.5 -38t27 -88.5
t-14.5 -106t-42 -91.5q90 -3 140 112zM269 159q20 43 27.5 81.5t-0.5 64t-33 27.5q-20 2 -49 -9.5t-53 -33.5q-8 -26 -51 -186q23 -28 61.5 -30.5t62.5 20.5q-18 22 -2 48t37 18z" />
    <glyph glyph-name="ydieresis" unicode="&#xff;" 
d="M189 487q-30 0 -45 18t-14 42q4 24 22 41.5t47 18.5q29 0 44.5 -18.5t12.5 -42.5q-2 -23 -20.5 -41t-46.5 -18zM352 487q-30 0 -44.5 18.5t-11.5 41.5q2 23 19.5 41t46.5 19q30 0 45 -18t14 -42q-2 -24 -20.5 -42t-48.5 -18zM103 -296q-57 -1 -90 28t-26 80q4 30 19.5 54
t34.5 39.5t51.5 30t56.5 21.5l63 18q17 44 41 124q-40 -59 -86.5 -84t-90.5 -23q-66 2 -84.5 43t-2.5 104q12 50 39 142.5t37 131.5q12 18 65.5 13.5t57.5 -26.5q-39 -147 -63 -247q-10 -34 -8.5 -57t22.5 -22q28 2 62 44.5t56 98.5q30 79 61 197q16 19 68 12t57 -28
l-107 -387q54 23 96 71t83 132q4 5 13.5 2.5t18.5 -10.5t6 -14q-53 -106 -105.5 -161.5t-129.5 -88.5q-41 -139 -83.5 -188.5t-131.5 -49.5zM122 -214q36 8 56 61q4 11 10 32.5t7 26.5q-59 -23 -86 -56q-20 -23 -16.5 -45.5t29.5 -18.5z" />
    <glyph glyph-name="Amacron" unicode="&#x100;" horiz-adv-x="867" 
d="M611 774q-15 0 -19 18.5t5 36t24 17.5q137 -2 212 -1q15 0 18 -17.5t-5.5 -35.5t-21.5 -18h-68h-79.5h-65.5zM234 -9q-89 -1 -130 40.5t-29 113.5q16 89 104.5 135.5t206.5 37.5l54 124.5t50 93t66 91.5q43 46 99 59t96.5 -10.5t44.5 -73.5q8 -102 -49 -316q103 3 148 47
q15 13 27.5 -6t3.5 -29q-60 -68 -189 -78q-33 -133 -43 -201q-17 -23 -70 -23t-67 23q10 70 44 199q-24 2 -118 11q-24 -58 -46 -97.5t-51.5 -73t-67 -50t-84.5 -17.5zM617 291q57 203 68 280q4 26 -10 30t-33 -21q-55 -71 -129 -278q43 -6 104 -11zM235 71q34 1 59.5 40
t60.5 126q-54 2 -95.5 -22t-55.5 -70q-10 -26 -2.5 -50.5t33.5 -23.5z" />
    <glyph glyph-name="amacron" unicode="&#x101;" horiz-adv-x="523" 
d="M210 506q-15 0 -19 18.5t5 36t24 17.5q137 -2 212 -1q15 0 18 -17.5t-5.5 -35.5t-21.5 -18h-68h-79.5h-65.5zM252 424q59 9 126.5 -5t107.5 -55q7 -14 -15.5 -40.5t-35.5 -21.5q-65 50 -146 42q-44 -4 -83 -38.5t-60 -86.5q-21 -46 -24 -85.5t12 -52.5q35 -34 95 59
q46 71 71 154q18 17 63 6.5t51 -28.5q-28 -100 -33 -124q-17 -75 17 -75q27 1 68.5 42.5t65.5 97.5q4 5 14 2.5t19 -10.5t6 -13q-45 -90 -105 -144t-129 -54q-37 0 -54.5 32.5t-9.5 87.5q-32 -56 -69 -88.5t-94 -33.5q-58 -2 -93.5 38t-23.5 124q15 103 93 179.5t166 90.5z
" />
    <glyph glyph-name="Abreve" unicode="&#x102;" horiz-adv-x="867" 
d="M719 754q-55 -1 -91.5 31t-32.5 88q1 17 31 18.5t32 -13.5q6 -52 62 -52q61 0 84 53q5 11 22 13t31 -6t11 -19q-12 -50 -51 -81t-98 -32zM234 -9q-89 -1 -130 40.5t-29 113.5q16 89 104.5 135.5t206.5 37.5l54 124.5t50 93t66 91.5q43 46 99 59t96.5 -10.5t44.5 -73.5
q8 -102 -49 -316q103 3 148 47q15 13 27.5 -6t3.5 -29q-60 -68 -189 -78q-33 -133 -43 -201q-17 -23 -70 -23t-67 23q10 70 44 199q-24 2 -118 11q-24 -58 -46 -97.5t-51.5 -73t-67 -50t-84.5 -17.5zM617 291q57 203 68 280q4 26 -10 30t-33 -21q-55 -71 -129 -278
q43 -6 104 -11zM235 71q34 1 59.5 40t60.5 126q-54 2 -95.5 -22t-55.5 -70q-10 -26 -2.5 -50.5t33.5 -23.5z" />
    <glyph glyph-name="abreve" unicode="&#x103;" horiz-adv-x="523" 
d="M318 486q-55 -1 -91.5 31t-32.5 88q1 17 31 18.5t32 -13.5q6 -52 62 -52q61 0 84 53q5 11 22 13t31 -6t11 -19q-12 -50 -51 -81t-98 -32zM252 424q59 9 126.5 -5t107.5 -55q7 -14 -15.5 -40.5t-35.5 -21.5q-65 50 -146 42q-44 -4 -83 -38.5t-60 -86.5q-21 -46 -24 -85.5
t12 -52.5q35 -34 95 59q46 71 71 154q18 17 63 6.5t51 -28.5q-28 -100 -33 -124q-17 -75 17 -75q27 1 68.5 42.5t65.5 97.5q4 5 14 2.5t19 -10.5t6 -13q-45 -90 -105 -144t-129 -54q-37 0 -54.5 32.5t-9.5 87.5q-32 -56 -69 -88.5t-94 -33.5q-58 -2 -93.5 38t-23.5 124
q15 103 93 179.5t166 90.5z" />
    <glyph glyph-name="Aogonek" unicode="&#x104;" horiz-adv-x="880" 
d="M726 -156q-27 -47 -76.5 -63t-87 8.5t-33.5 80.5q4 57 67 130q-29 3 -39 19q15 87 44 199q-19 1 -63 5.5t-55 5.5q-24 -58 -46 -97.5t-51.5 -73t-67 -50t-84.5 -17.5q-89 -1 -130 40.5t-29 113.5q16 89 104.5 135.5t206.5 37.5q96 225 179 316q40 43 93.5 54.5
t93.5 -12.5t44 -74q8 -102 -49 -316q103 3 148 47q15 13 27.5 -6t3.5 -29q-60 -68 -189 -78q-29 -116 -43 -201q-7 -7 -11 -10q-28 -28 -44.5 -63t-16.5 -64q0 -19 9 -27t26 -2t37 28q10 8 18.5 2.5t13 -19t0.5 -20.5zM617 291q57 203 68 280q4 26 -10 30t-33 -21
q-55 -71 -129 -278q43 -6 104 -11zM235 71q34 1 59.5 40t60.5 126q-54 2 -95.5 -22t-55.5 -70q-10 -26 -2.5 -50.5t33.5 -23.5z" />
    <glyph glyph-name="aogonek" unicode="&#x105;" horiz-adv-x="513" 
d="M484 -152q-21 -37 -56.5 -55.5t-67.5 -15.5t-54.5 28t-19.5 67q3 59 54 122q-45 0 -62 32t-5 88q-32 -56 -69 -88.5t-94 -33.5q-58 -2 -93.5 38t-23.5 124q15 103 93 179.5t166 90.5q59 9 126.5 -5t107.5 -55q8 -8 -1.5 -26t-25.5 -30.5t-24 -5.5q-65 50 -146 42
q-44 -4 -83 -38.5t-60 -86.5q-21 -46 -24 -85.5t12 -52.5q35 -34 95 59q46 71 71 154q3 9 16.5 11.5t30.5 0t33 -7.5t26 -12.5t8 -13.5q-28 -100 -33 -124q-17 -75 17 -75q26 1 62.5 42t61.5 99q4 5 14 2.5t19 -11t6 -13.5q-33 -71 -104 -152q-80 -93 -78 -154
q1 -20 9.5 -29t25.5 -3t38 29q10 8 18.5 3t13 -18t0.5 -20z" />
    <glyph glyph-name="Cacute" unicode="&#x106;" horiz-adv-x="646" 
d="M524 879q15 22 60 13q35 -6 36 -22q0 -5 -4 -9l-82 -96q-14 -16 -49 -9q-28 7 -27 23q0 5 4 11q11 17 34 49t28 40zM540 693q85 -4 125 -54t21 -122q-12 -47 -51 -80.5t-91 -45.5t-115.5 0.5t-120.5 52.5q-38 -86 -36 -173q1 -110 53 -159t134 -40q54 5 108 39.5
t88 102.5q5 5 14.5 2.5t18 -11t5.5 -13.5q-49 -100 -119.5 -149t-177.5 -53q-119 -4 -192.5 74.5t-63.5 218.5q11 145 93 254q-43 71 -48 135q-1 11 12.5 17t29 2.5t17.5 -13.5q8 -47 34 -91q114 114 262 106zM519 611q-100 5 -174 -100q39 -28 87.5 -34.5t86 12t45.5 57.5
q8 25 -4.5 44.5t-40.5 20.5z" />
    <glyph glyph-name="cacute" unicode="&#x107;" horiz-adv-x="426" 
d="M270 611q15 22 60 13q35 -6 36 -22q0 -5 -4 -9l-82 -96q-14 -16 -49 -9q-28 7 -27 23q0 5 4 11q11 17 34 49t28 40zM264 425q64 -1 95.5 -29t29.5 -64t-26 -68q-18 -21 -65.5 -21t-51.5 21q7 9 13 21.5t9.5 25.5t0 22.5t-15.5 10.5q-36 4 -71.5 -43.5t-41.5 -115.5
q-4 -54 24 -84t78 -30q58 0 109.5 35t84.5 108q4 5 13.5 2t18.5 -11t7 -13q-101 -207 -300 -200q-78 4 -126 58t-46 130q4 99 78.5 172.5t182.5 72.5z" />
    <glyph glyph-name="Cdotaccent" unicode="&#x10a;" horiz-adv-x="646" 
d="M515 760q-32 0 -46.5 18.5t-11.5 42.5q4 25 23.5 43t49.5 19q29 1 44.5 -18t12.5 -45q-4 -23 -23.5 -41.5t-48.5 -18.5zM540 693q85 -4 125 -54t21 -122q-12 -47 -51 -80.5t-91 -45.5t-115.5 0.5t-120.5 52.5q-38 -86 -36 -173q1 -110 53 -159t134 -40q54 5 108 39.5
t88 102.5q5 5 14.5 2.5t18 -11t5.5 -13.5q-49 -100 -119.5 -149t-177.5 -53q-119 -4 -192.5 74.5t-63.5 218.5q11 145 93 254q-43 71 -48 135q-1 11 12.5 17t29 2.5t17.5 -13.5q8 -47 34 -91q114 114 262 106zM519 611q-100 5 -174 -100q39 -28 87.5 -34.5t86 12t45.5 57.5
q8 25 -4.5 44.5t-40.5 20.5z" />
    <glyph glyph-name="cdotaccent" unicode="&#x10b;" horiz-adv-x="426" 
d="M262 492q-32 0 -46.5 18.5t-11.5 42.5q4 25 23.5 43t49.5 19q29 1 44.5 -18t12.5 -45q-4 -23 -23.5 -41.5t-48.5 -18.5zM264 425q64 -1 95.5 -29t29.5 -64t-26 -68q-18 -21 -65.5 -21t-51.5 21q7 9 13 21.5t9.5 25.5t0 22.5t-15.5 10.5q-36 4 -71.5 -43.5t-41.5 -115.5
q-4 -54 24 -84t78 -30q58 0 109.5 35t84.5 108q4 5 13.5 2t18.5 -11t7 -13q-101 -207 -300 -200q-78 4 -126 58t-46 130q4 99 78.5 172.5t182.5 72.5z" />
    <glyph glyph-name="Ccaron" unicode="&#x10c;" horiz-adv-x="646" 
d="M546 764q-15 -10 -39 -9.5t-36 9.5q-15 12 -90 96q-14 15 17 27q36 13 55 0q3 -1 4 -3l54 -61l84 64q19 14 50 -1q28 -15 18 -33q-2 -4 -6 -8q-51 -42 -111 -81zM540 693q85 -4 125 -54t21 -122q-12 -47 -51 -80.5t-91 -45.5t-115.5 0.5t-120.5 52.5q-38 -86 -36 -173
q1 -110 53 -159t134 -40q54 5 108 39.5t88 102.5q5 5 14.5 2.5t18 -11t5.5 -13.5q-49 -100 -119.5 -149t-177.5 -53q-119 -4 -192.5 74.5t-63.5 218.5q11 145 93 254q-43 71 -48 135q-1 11 12.5 17t29 2.5t17.5 -13.5q8 -47 34 -91q114 114 262 106zM519 611
q-100 5 -174 -100q39 -28 87.5 -34.5t86 12t45.5 57.5q8 25 -4.5 44.5t-40.5 20.5z" />
    <glyph glyph-name="ccaron" unicode="&#x10d;" horiz-adv-x="426" 
d="M293 496q-15 -10 -39 -9.5t-36 9.5q-15 12 -90 96q-14 15 17 27q36 13 55 0q3 -1 4 -3l54 -61l84 64q19 14 50 -1q28 -15 18 -33q-2 -4 -6 -8q-51 -42 -111 -81zM264 425q64 -1 95.5 -29t29.5 -64t-26 -68q-18 -21 -65.5 -21t-51.5 21q7 9 13 21.5t9.5 25.5t0 22.5
t-15.5 10.5q-36 4 -71.5 -43.5t-41.5 -115.5q-4 -54 24 -84t78 -30q58 0 109.5 35t84.5 108q4 5 13.5 2t18.5 -11t7 -13q-101 -207 -300 -200q-78 4 -126 58t-46 130q4 99 78.5 172.5t182.5 72.5z" />
    <glyph glyph-name="Dcaron" unicode="&#x10e;" horiz-adv-x="916" 
d="M608 765q-15 -10 -39 -9.5t-36 9.5q-15 12 -90 96q-14 15 17 27q36 13 55 0q3 -1 4 -3l54 -61l84 64q19 14 50 -1q28 -15 18 -33q-2 -4 -6 -8q-51 -42 -111 -81zM539 694q142 -4 236 -92t90 -247q-4 -166 -84 -265.5t-201 -97.5q-97 0 -186 66q-58 -66 -158 -67
q-79 -1 -123.5 30.5t-40.5 86.5q5 56 49.5 84t104 24t109.5 -35q15 37 41 128.5t52.5 154t62.5 92.5q22 15 62 7t39 -24q-43 -56 -91.5 -213.5t-71.5 -199.5q37 -28 80.5 -42t78.5 -9q68 10 107 87.5t41 192.5q4 258 -220 258q-60 0 -113.5 -29.5t-76 -77t3.5 -106.5
q3 -18 -26.5 -39.5t-57.5 -10.5q-58 39 -60 110t49 126q48 55 131 82.5t173 25.5zM236 146q-40 -1 -49 -30q-9 -27 15 -41q10 -6 24 -6q51 -2 84 52q-44 25 -74 25z" />
    <glyph glyph-name="dcaron" unicode="&#x10f;" horiz-adv-x="529" 
d="M635 548q-10 -20 -39 -19q-26 2 -26 21q0 4 2 9l40 112q7 22 43 19q31 -3 34 -22q1 -5 -2 -12zM110 -9q-76 -1 -103.5 56.5t-5.5 136.5t76 141q52 61 122 83t133 13q45 141 92 256q6 16 65 11t62 -23q0 -2 -1 -5q-75 -176 -128 -367q-60 -222 -7 -220q25 1 62 43t62 98
q4 5 13.5 2.5t18.5 -11t6 -13.5q-43 -88 -101 -142.5t-124 -55.5q-41 0 -63 32t-16 88q-61 -121 -163 -123zM139 77q21 -14 54.5 16t62.5 93q10 20 51 154q-35 5 -74 -14.5t-68 -67.5q-17 -27 -29.5 -64.5t-14.5 -71.5t18 -45z" />
    <glyph glyph-name="Dcroat" unicode="&#x110;" horiz-adv-x="916" 
d="M236 -9q-79 -1 -123.5 30.5t-40.5 86.5q5 56 49.5 84t104 24t109.5 -35q9 19 25 73h-48q-12 6 -9.5 30.5t19.5 29.5h56q57 196 113 243q22 14 62 6t39 -24q-46 -57 -95 -226h93q12 -5 7 -30t-17 -30q0 -1 -50.5 -0.5t-51.5 0.5q-27 -89 -49 -127q37 -28 80.5 -42t78.5 -9
q68 10 107 87.5t41 192.5q4 258 -220 258q-60 0 -113.5 -29.5t-76 -77t3.5 -106.5q3 -18 -26.5 -39.5t-57.5 -10.5q-58 39 -60 110t49 126q48 55 131 82.5t173 25.5q142 -4 236 -92t90 -247q-4 -166 -84 -265.5t-201 -97.5q-97 0 -186 66q-58 -66 -158 -67zM226 69
q51 -2 84 52q-44 25 -74 25q-40 -1 -49 -30q-9 -27 15 -41q10 -6 24 -6z" />
    <glyph glyph-name="dcroat" unicode="&#x111;" horiz-adv-x="529" 
d="M539 214q4 5 13.5 2.5t18.5 -11t6 -13.5q-43 -88 -101 -142.5t-124 -55.5q-41 0 -63 32t-16 88q-61 -121 -163 -123q-76 -1 -103.5 56.5t-5.5 136.5t76 141q52 61 122 83t133 13l37 107q-14 0 -37.5 0.5t-32.5 0.5q-10 0 -12 16.5t4 32.5t17 16q53 0 84 -1q17 50 32 84
q6 16 65 11t62 -23q0 -2 -1 -5q-10 -21 -28 -68q30 -2 46 -2q15 1 10 -28q-9 -31 -26 -34h-54q-28 -78 -51 -152.5t-40.5 -146t-16 -114.5t24.5 -42q25 1 62 43t62 98zM256 186q10 20 51 154q-35 5 -74 -14.5t-68 -67.5q-17 -27 -29.5 -64.5t-14.5 -71.5t18 -45
q21 -14 54.5 16t62.5 93z" />
    <glyph glyph-name="Emacron" unicode="&#x112;" horiz-adv-x="582" 
d="M344 774q-15 0 -19 18.5t5 36t24 17.5q137 -2 212 -1q15 0 18 -17.5t-5.5 -35.5t-21.5 -18h-213zM280 706q2 -36 12 -60q38 32 95.5 43.5t109 2t87.5 -42t34 -81.5q-2 -58 -44.5 -89.5t-113.5 -29.5q-34 1 -68 16t-55 37q-4 -44 28.5 -80.5t92.5 -44.5q14 -11 6.5 -41.5
t-25.5 -33.5q-42 6 -84.5 -2.5t-78 -37t-42.5 -74.5q-7 -41 13.5 -68.5t50 -37t64.5 -10.5q72 -2 133 34.5t97 107.5q5 6 14 3t17.5 -11.5t6.5 -13.5q-46 -100 -124 -149.5t-176 -51.5q-36 -1 -70.5 5.5t-66.5 22t-54.5 38t-33.5 57.5t-5 77q11 80 70.5 128t134.5 52
q-42 17 -63.5 59.5t-18.5 90t25 81.5q-20 43 -20 102q0 16 25 18t27 -16zM357 568q44 -44 94 -42q24 -1 37.5 11t14.5 32q1 26 -27 37t-64 1t-55 -39z" />
    <glyph glyph-name="emacron" unicode="&#x113;" horiz-adv-x="456" 
d="M167 506q-15 0 -19 18.5t5 36t24 17.5q137 -2 212 -1q15 0 18 -17.5t-5.5 -35.5t-21.5 -18h-68h-79.5h-65.5zM266 424q57 -1 92.5 -29t39 -65t-13.5 -77q-27 -56 -93 -79.5t-151 -6.5q-1 -44 27 -69t81 -28q57 -4 118.5 30t99.5 114q4 5 14 2.5t18.5 -11t6.5 -13.5
q-100 -206 -296 -202q-114 3 -165 65t-36 151q16 100 88.5 160.5t169.5 57.5zM253 343q-31 3 -62.5 -32t-44.5 -88q48 -5 81 13.5t45 50.5q10 20 5.5 37.5t-24.5 18.5z" />
    <glyph glyph-name="Edotaccent" unicode="&#x116;" horiz-adv-x="582" 
d="M450 760q-32 0 -46.5 18.5t-11.5 42.5q4 25 23.5 43t49.5 19q29 1 44.5 -18t12.5 -45q-4 -23 -23.5 -41.5t-48.5 -18.5zM280 706q2 -36 12 -60q38 32 95.5 43.5t109 2t87.5 -42t34 -81.5q-2 -58 -44.5 -89.5t-113.5 -29.5q-34 1 -68 16t-55 37q-4 -44 28.5 -80.5
t92.5 -44.5q14 -11 6.5 -41.5t-25.5 -33.5q-42 6 -84.5 -2.5t-78 -37t-42.5 -74.5q-7 -41 13.5 -68.5t50 -37t64.5 -10.5q72 -2 133 34.5t97 107.5q5 6 14 3t17.5 -11.5t6.5 -13.5q-46 -100 -124 -149.5t-176 -51.5q-36 -1 -70.5 5.5t-66.5 22t-54.5 38t-33.5 57.5t-5 77
q11 80 70.5 128t134.5 52q-42 17 -63.5 59.5t-18.5 90t25 81.5q-20 43 -20 102q0 16 25 18t27 -16zM357 568q44 -44 94 -42q24 -1 37.5 11t14.5 32q1 26 -27 37t-64 1t-55 -39z" />
    <glyph glyph-name="edotaccent" unicode="&#x117;" horiz-adv-x="456" 
d="M273 492q-32 0 -46.5 18.5t-11.5 42.5q4 25 23.5 43t49.5 19q29 1 44.5 -18t12.5 -45q-4 -23 -23.5 -41.5t-48.5 -18.5zM266 424q57 -1 92.5 -29t39 -65t-13.5 -77q-27 -56 -93 -79.5t-151 -6.5q-1 -44 27 -69t81 -28q57 -4 118.5 30t99.5 114q4 5 14 2.5t18.5 -11
t6.5 -13.5q-100 -206 -296 -202q-114 3 -165 65t-36 151q16 100 88.5 160.5t169.5 57.5zM253 343q-31 3 -62.5 -32t-44.5 -88q48 -5 81 13.5t45 50.5q10 20 5.5 37.5t-24.5 18.5z" />
    <glyph glyph-name="Eogonek" unicode="&#x118;" horiz-adv-x="581" 
d="M550 -152q-21 -37 -56.5 -55.5t-67.5 -15.5t-55 28t-20 67q3 60 59 128q-70 -18 -136 -9q-86 12 -135.5 66t-38.5 134q10 80 69.5 128t134.5 52q-42 17 -63 59.5t-18 90t25 81.5q-20 40 -20 102q0 16 25 18t27 -16q0 -34 11 -60q38 32 95.5 43.5t109 2t87.5 -42t34 -81.5
q-2 -58 -44 -89.5t-114 -29.5q-34 1 -68 16t-55 37q-4 -44 29 -80.5t93 -44.5q13 -11 5 -41.5t-25 -33.5q-29 6 -62.5 0.5t-63.5 -17t-52 -37t-27 -60.5q-9 -60 30.5 -87t98.5 -29q71 -2 133 35.5t96 106.5q6 9 24 -2t14 -20q-28 -67 -81 -121q-104 -114 -103 -185
q1 -20 9.5 -29t25.5 -3t38 29q10 8 18.5 3t13 -18t0.5 -20zM451 526q23 -1 36.5 10.5t15.5 32.5q1 15 -10.5 26t-29 14t-37.5 1t-39 -13.5t-30 -28.5q42 -44 94 -42z" />
    <glyph glyph-name="eogonek" unicode="&#x119;" horiz-adv-x="418" 
d="M387 -152q-21 -37 -56.5 -55.5t-67.5 -15.5t-55 28t-20 67q3 57 54 125q-30 -7 -63 -5q-97 3 -141.5 65t-28.5 149q17 100 89 160.5t169 57.5q43 -1 74 -17.5t44.5 -41t13.5 -54.5t-15 -58q-26 -56 -92 -79t-152 -6q-1 -44 21.5 -70t61.5 -27q137 -4 205 143q4 5 14 2
t18.5 -11t6.5 -13q-18 -37 -35.5 -62.5t-29.5 -38.5l-49 -51q-34 -36 -53 -79.5t-18 -74.5q1 -20 9.5 -29t25.5 -3t38 29q10 8 18.5 3t13 -18t0.5 -20zM146 223q48 -5 81 13.5t46 50.5q10 20 5.5 37.5t-24.5 18.5q-32 3 -63.5 -32t-44.5 -88z" />
    <glyph glyph-name="Ecaron" unicode="&#x11a;" horiz-adv-x="582" 
d="M481 764q-15 -10 -39 -9.5t-36 9.5q-15 12 -90 96q-14 15 17 27q36 13 55 0q3 -1 4 -3l54 -61l84 64q19 14 50 -1q28 -15 18 -33q-2 -4 -6 -8q-51 -42 -111 -81zM280 706q2 -36 12 -60q38 32 95.5 43.5t109 2t87.5 -42t34 -81.5q-2 -58 -44.5 -89.5t-113.5 -29.5
q-34 1 -68 16t-55 37q-4 -44 28.5 -80.5t92.5 -44.5q14 -11 6.5 -41.5t-25.5 -33.5q-42 6 -84.5 -2.5t-78 -37t-42.5 -74.5q-7 -41 13.5 -68.5t50 -37t64.5 -10.5q72 -2 133 34.5t97 107.5q5 6 14 3t17.5 -11.5t6.5 -13.5q-46 -100 -124 -149.5t-176 -51.5q-36 -1 -70.5 5.5
t-66.5 22t-54.5 38t-33.5 57.5t-5 77q11 80 70.5 128t134.5 52q-42 17 -63.5 59.5t-18.5 90t25 81.5q-20 43 -20 102q0 16 25 18t27 -16zM357 568q44 -44 94 -42q24 -1 37.5 11t14.5 32q1 26 -27 37t-64 1t-55 -39z" />
    <glyph glyph-name="ecaron" unicode="&#x11b;" horiz-adv-x="456" 
d="M304 496q-15 -10 -39 -9.5t-36 9.5q-15 12 -90 96q-14 15 17 27q36 13 55 0q3 -1 4 -3l54 -61l84 64q19 14 50 -1q28 -15 18 -33q-2 -4 -6 -8q-51 -42 -111 -81zM266 424q57 -1 92.5 -29t39 -65t-13.5 -77q-27 -56 -93 -79.5t-151 -6.5q-1 -44 27 -69t81 -28
q57 -4 118.5 30t99.5 114q4 5 14 2.5t18.5 -11t6.5 -13.5q-100 -206 -296 -202q-114 3 -165 65t-36 151q16 100 88.5 160.5t169.5 57.5zM253 343q-31 3 -62.5 -32t-44.5 -88q48 -5 81 13.5t45 50.5q10 20 5.5 37.5t-24.5 18.5z" />
    <glyph glyph-name="Gbreve" unicode="&#x11e;" horiz-adv-x="718" 
d="M485 755q-55 -1 -91.5 31t-32.5 88q1 17 31 18.5t32 -13.5q6 -52 62 -52q61 0 84 53q5 11 22 13t31 -6t11 -19q-12 -50 -51 -81t-98 -32zM493 693q99 -1 148.5 -59t15.5 -137q-31 -72 -100 -101.5t-146.5 -14.5t-140.5 65q-24 -46 -38.5 -105t-16 -116t25.5 -96t81 -40
q115 -2 187 188q6 16 58 15q55 -2 58 -23q1 -3 0 -6q-54 -188 -71 -253q104 53 174 204q4 5 14 2.5t18.5 -11t6.5 -13.5q-52 -103 -103.5 -160t-128.5 -89q-16 -62 -32 -102t-40.5 -73.5t-60.5 -48.5t-86 -15q-58 -1 -93.5 25.5t-29.5 79.5q3 29 17 53t34 40t51 31t58 24
t65 19l27 94q-62 -64 -150 -61q-93 3 -145.5 60t-58.5 138t20.5 171.5t81.5 158.5q-45 69 -50 142q-1 11 13.5 15t30 -0.5t16.5 -14.5q7 -50 35 -93q112 110 255 107zM487 612q-103 0 -179 -103q61 -50 135.5 -41.5t96.5 71.5q11 31 -4 52t-49 21zM404 -90
q-38 -15 -67 -37.5t-36 -44.5q-13 -35 10 -41q22 -5 42 21q6 7 9 15q24 18 42 87z" />
    <glyph glyph-name="gbreve" unicode="&#x11f;" horiz-adv-x="517" 
d="M328 485q-55 -1 -91.5 31t-32.5 88q1 17 31 18.5t32 -13.5q6 -52 62 -52q61 0 84 53q5 11 22 13t31 -6t11 -19q-12 -50 -51 -81t-98 -32zM258 424q59 8 123.5 -6t109.5 -54q6 -13 -16.5 -40.5t-35.5 -21.5q-59 49 -145 43q-45 -3 -83.5 -37t-63.5 -88q-22 -49 -24.5 -89
t13.5 -52q20 -16 56 12t67 91q25 50 46 113q14 16 62 5t52 -28q-16 -53 -37.5 -137.5t-32.5 -123.5q53 22 95 70t84 133q4 5 13.5 2t18 -11t5.5 -14q-54 -107 -105.5 -162t-129.5 -87q-37 -129 -80 -183.5t-135 -54.5q-56 -1 -89 28t-27 80q4 30 20 54t35 39.5t52 30
t56.5 21.5l62.5 18l43 128q-66 -110 -158 -111q-70 -2 -100 48t-16.5 121.5t60.5 134.5q39 54 94.5 87.5t109.5 40.5zM207 -94q-77 -28 -96 -72q-16 -33 6 -45q23 -12 49 15q16 16 25 43q5 15 16 59z" />
    <glyph glyph-name="Gdotaccent" unicode="&#x120;" horiz-adv-x="718" 
d="M484 761q-32 0 -46.5 18.5t-11.5 42.5q4 25 23.5 43t49.5 19q29 1 44.5 -18t12.5 -45q-4 -23 -23.5 -41.5t-48.5 -18.5zM493 693q99 -1 148.5 -59t15.5 -137q-31 -72 -100 -101.5t-146.5 -14.5t-140.5 65q-24 -46 -38.5 -105t-16 -116t25.5 -96t81 -40q115 -2 187 188
q6 16 58 15q55 -2 58 -23q1 -3 0 -6q-54 -188 -71 -253q104 53 174 204q4 5 14 2.5t18.5 -11t6.5 -13.5q-52 -103 -103.5 -160t-128.5 -89q-16 -62 -32 -102t-40.5 -73.5t-60.5 -48.5t-86 -15q-58 -1 -93.5 25.5t-29.5 79.5q3 29 17 53t34 40t51 31t58 24t65 19l27 94
q-62 -64 -150 -61q-93 3 -145.5 60t-58.5 138t20.5 171.5t81.5 158.5q-45 69 -50 142q-1 11 13.5 15t30 -0.5t16.5 -14.5q7 -50 35 -93q112 110 255 107zM487 612q-103 0 -179 -103q61 -50 135.5 -41.5t96.5 71.5q11 31 -4 52t-49 21zM404 -90q-38 -15 -67 -37.5t-36 -44.5
q-13 -35 10 -41q22 -5 42 21q6 7 9 15q24 18 42 87z" />
    <glyph glyph-name="gdotaccent" unicode="&#x121;" horiz-adv-x="517" 
d="M326 491q-32 0 -46.5 18.5t-11.5 42.5q4 25 23.5 43t49.5 19q29 1 44.5 -18t12.5 -45q-4 -23 -23.5 -41.5t-48.5 -18.5zM258 424q59 8 123.5 -6t109.5 -54q6 -13 -16.5 -40.5t-35.5 -21.5q-59 49 -145 43q-45 -3 -83.5 -37t-63.5 -88q-22 -49 -24.5 -89t13.5 -52
q20 -16 56 12t67 91q25 50 46 113q14 16 62 5t52 -28q-16 -53 -37.5 -137.5t-32.5 -123.5q53 22 95 70t84 133q4 5 13.5 2t18 -11t5.5 -14q-54 -107 -105.5 -162t-129.5 -87q-37 -129 -80 -183.5t-135 -54.5q-56 -1 -89 28t-27 80q4 30 20 54t35 39.5t52 30t56.5 21.5
l62.5 18l43 128q-66 -110 -158 -111q-70 -2 -100 48t-16.5 121.5t60.5 134.5q39 54 94.5 87.5t109.5 40.5zM207 -94q-77 -28 -96 -72q-16 -33 6 -45q23 -12 49 15q16 16 25 43q5 15 16 59z" />
    <glyph glyph-name="Gcommaaccent" unicode="&#x122;" horiz-adv-x="718" 
d="M493 693q99 -1 148.5 -59t15.5 -137q-31 -72 -100 -101.5t-146.5 -14.5t-140.5 65q-24 -46 -38.5 -105t-16 -116t25.5 -96t81 -40q115 -2 187 188q6 16 58 15q55 -2 58 -23q1 -3 0 -6q-54 -188 -71 -253q104 53 174 204q4 5 14 2.5t18.5 -11t6.5 -13.5
q-52 -103 -103.5 -160t-128.5 -89q-16 -62 -32 -102t-40.5 -73.5t-60.5 -48.5t-86 -15q-58 -1 -93.5 25.5t-29.5 79.5q3 29 17 53t34 40t51 31t58 24t65 19l27 94q-62 -64 -150 -61q-93 3 -145.5 60t-58.5 138t20.5 171.5t81.5 158.5q-45 69 -50 142q-1 11 13.5 15t30 -0.5
t16.5 -14.5q7 -50 35 -93q112 110 255 107zM487 612q-103 0 -179 -103q61 -50 135.5 -41.5t96.5 71.5q11 31 -4 52t-49 21zM404 -90q-38 -15 -67 -37.5t-36 -44.5q-13 -35 10 -41q22 -5 42 21q6 7 9 15q24 18 42 87zM264 -379q7 23 49 25q38 1 44 -18q1 -5 -1 -11l-51 -130
q-7 -20 -41 -21.5t-38 18.5q-1 5 1 11q5 18 18.5 63t18.5 63z" />
    <glyph glyph-name="gcommaaccent" unicode="&#x123;" horiz-adv-x="517" 
d="M276 607q8 21 54 17q41 -3 46 -22q1 -5 -2 -10l-46 -91q-10 -19 -51 -15q-36 4 -36 22q0 2 1 5zM258 424q59 8 123.5 -6t109.5 -54q8 -8 -1.5 -26t-26 -30.5t-24.5 -5.5q-59 49 -145 43q-45 -3 -83.5 -37t-63.5 -88q-22 -49 -24.5 -89t13.5 -52q20 -16 56 12t67 91
q25 50 46 113q10 14 37 13.5t54.5 -12.5t23.5 -24q-16 -54 -38.5 -139.5l-32.5 -121.5q53 22 95 70t84 133q4 5 13.5 2t18 -11t5.5 -14q-54 -107 -105.5 -162t-129.5 -87q-37 -129 -80 -183.5t-135 -54.5q-56 -1 -89 28t-27 80q4 30 20 54t35 39.5t52 30t56.5 21.5l62.5 18
q9 20 22.5 64.5t20.5 63.5q-66 -110 -158 -111q-70 -2 -100 48t-16.5 121.5t60.5 134.5q39 54 94.5 87.5t109.5 40.5zM207 -94q-77 -28 -96 -72q-16 -33 6 -45q23 -12 49 15q16 16 25 43q5 15 16 59z" />
    <glyph glyph-name="Hbar" unicode="&#x126;" horiz-adv-x="899" 
d="M919 472q13 -11 7 -40.5t-21 -34.5h-59q-16 -54 -34 -125q77 3 122 30q10 6 18.5 -3t8 -21t-8.5 -19q-65 -43 -158 -48q-8 -31 -55 -193q-7 -14 -40 -19.5t-63.5 2t-31.5 24.5q16 51 56 192q-20 2 -61.5 8t-61.5 8q-13 -38 -22 -62t-22 -52.5t-25.5 -45.5t-30 -34.5
t-38 -26.5t-47.5 -15t-60 -6q-93 -1 -131 43.5t-27 107.5q14 86 93 135t199 44q4 12 7.5 24.5t8.5 27.5t8 25q-35 0 -47 1q-15 6 -8 38.5t26 36.5q7 0 26 -0.5t29 -0.5q9 29 39 115q-25 -25 -62.5 -31.5t-69.5 -0.5t-69 5t-61 -16q-20 -12 -24.5 -33t5.5 -34
q12 -18 33.5 -19.5t43.5 13.5q16 1 28.5 -18.5t5.5 -34.5q-43 -48 -112.5 -45t-103.5 50q-24 32 -27 71.5t19.5 76.5t67.5 56q41 17 83.5 18t75 -5t65.5 -10t66.5 7.5t65.5 43.5q22 18 76 10t52 -26q-49 -146 -63 -192q20 0 61 -0.5t61 -0.5q44 134 65 186q10 17 68 9
t60 -30q-28 -70 -57 -165zM709 398h-123l-28 -94q13 -2 38 -6.5l45 -8l37 -6.5q25 95 31 115zM300 71q34 -1 57.5 40t47.5 127q-115 -4 -140 -97q-9 -27 0.5 -48.5t34.5 -21.5z" />
    <glyph glyph-name="hbar" unicode="&#x127;" horiz-adv-x="503" 
d="M512 214q5 5 14.5 2.5t18.5 -11t6 -13.5q-99 -194 -218 -201q-63 -3 -84 27t-14 83q5 34 47 178q9 21 4.5 38.5t-27.5 15.5q-20 -1 -48.5 -22.5t-52.5 -52.5q-31 -110 -63 -248q-3 -15 -60 -19q-68 -4 -77 19q-1 4 0 9q58 239 138 497h-35q-10 0 -11.5 15.5t5.5 31
t19 14.5q20 -1 40 0q23 71 34 100q3 7 18 10t34.5 1.5t37.5 -5.5t29.5 -11t9.5 -16q-22 -60 -28 -81q12 0 37 0.5t33 1.5q15 1 11 -27q-3 -31 -21 -35h-2q-5 0 -30 -0.5t-47 -0.5q-13 -41 -50 -174q89 87 159 87q61 0 80.5 -38.5t-0.5 -98.5q-6 -22 -19 -62t-19.5 -62.5
t-11.5 -47.5t-0.5 -36.5t18.5 -10.5q26 1 63 43.5t62 99.5z" />
    <glyph glyph-name="Imacron" unicode="&#x12a;" horiz-adv-x="558" 
d="M454 775q-15 0 -19 18.5t5 36t24 17.5q137 -2 212 -1q15 0 18 -18t-5.5 -35.5t-21.5 -17.5h-68h-79.5h-65.5zM475 670q20 21 73.5 19.5t62.5 -22.5q-22 -62 -125 -389l-20 -63.5t-19 -54t-22 -50.5t-24.5 -40t-31 -35t-37 -23.5t-47.5 -17t-58 -4.5q-54 0 -93.5 21.5
t-54.5 55t-15 69.5t22.5 68t61.5 46q22 4 47.5 -15t23.5 -40q-23 -26 -27.5 -55.5t9 -49t39.5 -19.5q10 0 18.5 4t16.5 13t14.5 18t14 25.5t12.5 29t12 35.5l11.5 37.5l12.5 42t13 42.5q71 241 75 253q-23 -26 -58 -43.5t-63 -25t-52 -23.5t-30 -40q-15 -55 32 -65
q10 -11 2 -35t-25 -28q-68 -6 -110 35t-30 99q8 41 38 66t72.5 38.5t87.5 25t92.5 35t78.5 60.5z" />
    <glyph glyph-name="imacron" unicode="&#x12b;" horiz-adv-x="245" 
d="M50 502q-15 0 -19 18.5t5 36t24 17.5q137 -2 212 -1q15 0 18 -17.5t-5.5 -35.5t-21.5 -18h-68h-79.5h-65.5zM73 409q6 18 68 16q61 -2 63 -19q1 -2 0 -4l-40 -122t-43 -135q-11 -32 -10 -53.5t20 -20.5q24 1 61.5 43.5t62.5 98.5q4 6 13.5 3.5t18.5 -11t6 -14.5
q-24 -48 -52 -87.5t-72 -74.5t-89 -37q-66 -4 -87.5 30.5t-7.5 97.5q20 88 88 289z" />
    <glyph glyph-name="Iogonek" unicode="&#x12e;" horiz-adv-x="558" 
d="M475 670q9 9 26 14t36 5t36 -2.5t27.5 -8t9.5 -11.5q-29 -82 -124 -389q-29 -97 -59 -155t-72 -98q-32 -31 -46.5 -69.5t-13.5 -64.5q0 -32 20 -36.5t53 28.5q13 4 25.5 -10t5.5 -25q-28 -49 -77 -65t-86 8.5t-35 80.5q1 54 52 120q-16 -2 -26 -2q-54 0 -93.5 21.5
t-54.5 55t-15 69.5t22.5 68t61.5 46q22 4 47 -15t22 -41q-34 -40 -26 -82t49 -41q10 0 18.5 4t16.5 13t14.5 18t14 25.5t12.5 29t12 35.5l11.5 37.5l12.5 42t13 42.5q71 241 75 253q-23 -26 -58 -43.5t-63.5 -25t-52 -23.5t-29.5 -40q-15 -54 31 -65q11 -8 3 -34t-25 -29
q-68 -6 -110 35t-30 99q8 41 38 66t72.5 38.5t87.5 25t92.5 35t78.5 60.5z" />
    <glyph glyph-name="iogonek" unicode="&#x12f;" horiz-adv-x="246" 
d="M219 -152q-21 -37 -56.5 -55.5t-67.5 -15.5t-55 28t-20 67q4 61 53 119q-117 0 -87 129q18 79 87 289q7 18 70 16q60 -2 62 -19q1 -2 0 -4q-67 -202 -83 -257q-11 -32 -10 -53.5t20 -20.5q24 1 61 43.5t62 98.5q5 6 14.5 3.5t18.5 -11t6 -14.5q-39 -77 -95 -140
q-87 -96 -85 -165q1 -20 9.5 -29t25.5 -3t38 29q10 8 18.5 3t13 -18t0.5 -20z" />
    <glyph glyph-name="Idotaccent" unicode="&#x130;" horiz-adv-x="558" 
d="M560 761q-32 0 -46.5 18.5t-11.5 42.5q4 25 23.5 43t49.5 19q29 1 44.5 -18t12.5 -45q-4 -23 -23.5 -41.5t-48.5 -18.5zM475 670q20 21 73.5 19.5t62.5 -22.5q-22 -62 -125 -389l-20 -63.5t-19 -54t-22 -50.5t-24.5 -40t-31 -35t-37 -23.5t-47.5 -17t-58 -4.5
q-54 0 -93.5 21.5t-54.5 55t-15 69.5t22.5 68t61.5 46q22 4 47.5 -15t23.5 -40q-23 -26 -27.5 -55.5t9 -49t39.5 -19.5q10 0 18.5 4t16.5 13t14.5 18t14 25.5t12.5 29t12 35.5l11.5 37.5l12.5 42t13 42.5q71 241 75 253q-23 -26 -58 -43.5t-63 -25t-52 -23.5t-30 -40
q-15 -55 32 -65q10 -11 2 -35t-25 -28q-68 -6 -110 35t-30 99q8 41 38 66t72.5 38.5t87.5 25t92.5 35t78.5 60.5z" />
    <glyph glyph-name="dotlessi" unicode="&#x131;" horiz-adv-x="245" 
d="M73 409q6 18 68 16q61 -2 63 -19q1 -2 0 -4l-40 -122t-43 -135q-11 -32 -10 -53.5t20 -20.5q24 1 61.5 43.5t62.5 98.5q4 6 13.5 3.5t18.5 -11t6 -14.5q-24 -48 -52 -87.5t-72 -74.5t-89 -37q-66 -4 -87.5 30.5t-7.5 97.5q20 88 88 289z" />
    <glyph glyph-name="IJ" unicode="&#x132;" horiz-adv-x="1141" 
d="M708 -295q-45 0 -76 17.5t-42 45t-5.5 60.5t27.5 62q45 68 215 107q104 381 163 574q-28 -33 -75.5 -52l-83 -34t-43.5 -44q-15 -55 30 -67q7 -4 7 -18t-9.5 -29.5t-22.5 -15.5q-69 -4 -109 38t-26 99q10 40 41 64.5t73.5 37t86.5 24t91 36t78 62.5q23 21 75 18t56 -24
q-31 -93 -97 -307t-99 -334q116 44 188 189q4 4 13.5 1.5t18.5 -10.5t6 -14q-48 -98 -107.5 -149.5t-137.5 -82.5q-32 -113 -63 -164q-53 -90 -173 -90zM475 670q20 21 73.5 19.5t62.5 -22.5q-22 -62 -125 -389l-20 -63.5t-19 -54t-22 -50.5t-24.5 -40t-31 -35t-37 -23.5
t-47.5 -17t-58 -4.5q-54 0 -93.5 21.5t-54.5 55t-15 69.5t22.5 68t61.5 46q22 4 47.5 -15t23.5 -40q-23 -26 -27.5 -55.5t9 -49t39.5 -19.5q10 0 18.5 4t16.5 13t14.5 18t14 25.5t12.5 29t12 35.5l11.5 37.5l12.5 42t13 42.5q71 241 75 253q-23 -26 -58 -43.5t-63 -25
t-52 -23.5t-30 -40q-15 -55 32 -65q10 -11 2 -35t-25 -28q-68 -6 -110 35t-30 99q8 41 38 66t72.5 38.5t87.5 25t92.5 35t78.5 60.5zM713 -215q16 -2 36 13.5t32 43.5q17 37 26 82q-98 -31 -119 -81q-9 -26 -1 -41.5t26 -16.5z" />
    <glyph glyph-name="ij" unicode="&#x133;" horiz-adv-x="516" 
d="M157 483q-29 0 -46.5 21t-12.5 49q5 31 28 51t56 20q31 -1 48.5 -21t12.5 -50q-5 -31 -28 -50.5t-58 -19.5zM414 483q-29 0 -46.5 21t-12.5 49q5 31 28 51t56 20q32 -1 49 -21t12 -50q-5 -31 -28 -50.5t-58 -19.5zM526 214q4 5 13.5 1.5t18 -11.5t6.5 -12
q-52 -104 -107.5 -160.5t-134.5 -89.5q-36 -131 -81 -184t-137 -54q-55 -1 -84.5 26.5t-28 67t31.5 75.5q22 35 67.5 57.5t117.5 43.5l27 103q-72 -82 -154 -85q-66 -2 -87.5 32t-7.5 96q20 86 81 296q15 17 66.5 11t60.5 -27q-71 -247 -75 -267q-6 -29 -3 -46t16 -16
q30 0 71.5 42t66.5 100l52 202q11 17 67.5 10.5t59.5 -26.5q-21 -67 -109 -389q110 48 186 204zM182 -153q9 27 17 59q-35 -14 -61.5 -33.5t-35.5 -38.5q-9 -22 -3.5 -35t21.5 -13q15 -1 33.5 15t28.5 46z" />
    <glyph glyph-name="Kcommaaccent" unicode="&#x136;" horiz-adv-x="862" 
d="M752 674q21 21 72 14.5t56 -25.5q-36 -117 -102.5 -206.5t-157.5 -122.5q50 -24 68 -100q6 -23 12.5 -60t12 -64.5t15 -57t26.5 -50.5t42 -32q15 -22 -11.5 -58.5t-68.5 -33.5q-36 9 -61.5 33.5t-38.5 64t-19.5 72t-12 81t-9.5 67.5q-9 46 -26.5 69t-50.5 25
q-19 -68 -32.5 -107.5t-34.5 -81t-45.5 -62.5t-61 -34.5t-85.5 -13.5q-54 -1 -93 20.5t-54 54.5t-15 68.5t22 67.5t60 48q21 4 47.5 -13.5t25.5 -40.5q-23 -26 -28 -56t9 -50t41 -20q31 1 51.5 38t43.5 113l53.5 182l49.5 168q-23 -25 -58.5 -43t-63.5 -26.5t-51.5 -24.5
t-29.5 -40q-13 -51 31 -65q5 -4 6 -16.5t-7 -27t-21 -17.5q-68 -6 -110.5 36.5t-28.5 100.5q10 40 41 65t73.5 38t87 24.5t91.5 35.5t77 60q15 22 73 19.5t60 -23.5q-36 -98 -92 -280q27 10 51 26t41.5 31t35 38.5t27.5 39.5t22.5 43t17.5 39t15 38.5zM434 -98q7 23 49 25
q38 1 44 -18q1 -5 -1 -11l-51 -130q-7 -20 -41 -21.5t-38 18.5q-1 5 1 11q5 18 18.5 63t18.5 63z" />
    <glyph glyph-name="kcommaaccent" unicode="&#x137;" horiz-adv-x="482" 
d="M493 214q4 5 13.5 2t18 -11t6.5 -13q-47 -95 -109 -148t-127 -53q-138 -2 -120 208q89 30 118 82q21 35 -6 49q-3 2 -7 3q-31 11 -76.5 -25.5t-58.5 -87.5q-40 -147 -53 -209q-6 -11 -39.5 -17t-65 0t-30.5 23q78 309 187 661q11 16 68.5 8.5t58.5 -30.5
q-80 -267 -92 -312q51 58 120.5 76t103.5 -12q25 -20 28 -53.5t-12.5 -67.5t-52.5 -64.5t-87 -43.5q-2 -108 55 -109q88 -3 159 144zM99 -97q7 23 49 25q38 1 44 -18q1 -5 -1 -11l-51 -130q-7 -20 -41 -21.5t-38 18.5q-1 5 1 11q5 18 18.5 63t18.5 63z" />
    <glyph glyph-name="Lacute" unicode="&#x139;" horiz-adv-x="610" 
d="M591 879q15 22 60 13q35 -6 36 -22q0 -5 -4 -9l-82 -96q-14 -16 -49 -9q-28 7 -27 23q0 5 4 11q11 17 34 49t28 40zM484 665q19 27 74.5 24t62.5 -24q-18 -50 -83.5 -269.5t-98.5 -282.5l38 -42.5l35.5 -40l31.5 -33t32 -29t30 -19.5t33 -13t33 -1.5t37 7.5
q23 -2 30.5 -43t-14.5 -63q-34 -12 -67.5 -11.5t-59 7t-56 27.5t-49 36t-46.5 48t-40 48.5l-38 50.5q-65 -48 -147 -51q-67 -2 -108.5 28t-37.5 88q2 52 48 81.5t106 28.5t108 -29q29 82 66 213.5t51 173.5q-22 -27 -57.5 -46t-64.5 -27t-54 -23.5t-31 -39.5q-14 -52 31 -65
q8 -11 1 -34.5t-22 -28.5q-69 -6 -111 35t-29 101q8 40 38 64.5t72 37t86.5 24t92 34t77.5 58.5zM195 122q-12 -17 -1.5 -34.5t39.5 -17.5q44 -1 75 45q-25 25 -63.5 27t-49.5 -20z" />
    <glyph glyph-name="lacute" unicode="&#x13a;" horiz-adv-x="361" 
d="M310 868q15 22 60 13q35 -6 36 -22q0 -5 -4 -9l-82 -96q-14 -16 -49 -9q-28 7 -27 23q0 5 4 11q11 17 34 49t28 40zM209 668q38 23 78.5 22.5t69 -23t42 -64t-2.5 -100.5q-24 -91 -91.5 -161t-170.5 -105q-36 -162 57 -168q46 -3 95.5 36t84.5 109q4 5 13.5 2t18 -11
t6.5 -13q-25 -49 -47.5 -83t-55 -65t-74 -44t-92.5 -8q-69 7 -101.5 54.5t-30 121t21.5 168.5q25 114 72 204.5t107 127.5zM283 601q-17 1 -35.5 -29.5t-40.5 -85.5q-43 -120 -57 -171q37 22 70 65t52 89q14 34 21.5 64.5t5 49t-15.5 18.5z" />
    <glyph glyph-name="Lcommaaccent" unicode="&#x13b;" horiz-adv-x="610" 
d="M484 665q19 27 74.5 24t62.5 -24q-18 -50 -83.5 -269.5t-98.5 -282.5l38 -42.5l35.5 -40l31.5 -33t32 -29t30 -19.5t33 -13t33 -1.5t37 7.5q23 -2 30.5 -43t-14.5 -63q-34 -12 -67.5 -11.5t-59 7t-56 27.5t-49 36t-46.5 48t-40 48.5l-38 50.5q-65 -48 -147 -51
q-67 -2 -108.5 28t-37.5 88q2 52 48 81.5t106 28.5t108 -29q29 82 66 213.5t51 173.5q-22 -27 -57.5 -46t-64.5 -27t-54 -23.5t-31 -39.5q-14 -52 31 -65q8 -11 1 -34.5t-22 -28.5q-69 -6 -111 35t-29 101q8 40 38 64.5t72 37t86.5 24t92 34t77.5 58.5zM195 122
q-12 -17 -1.5 -34.5t39.5 -17.5q44 -1 75 45q-25 25 -63.5 27t-49.5 -20zM271 -104q7 23 49 25q38 1 44 -18q1 -5 -1 -11l-51 -130q-7 -20 -41 -21.5t-38 18.5q-1 5 1 11q5 18 18.5 63t18.5 63z" />
    <glyph glyph-name="lcommaaccent" unicode="&#x13c;" horiz-adv-x="361" 
d="M209 668q38 23 78.5 22.5t69 -23t42 -64t-2.5 -100.5q-24 -91 -91.5 -161t-170.5 -105q-36 -162 57 -168q46 -3 95.5 36t84.5 109q4 5 13.5 2t18 -11t6.5 -13q-25 -49 -47.5 -83t-55 -65t-74 -44t-92.5 -8q-69 7 -101.5 54.5t-30 121t21.5 168.5q25 114 72 204.5
t107 127.5zM283 601q-17 1 -35.5 -29.5t-40.5 -85.5q-43 -120 -57 -171q37 22 70 65t52 89q14 34 21.5 64.5t5 49t-15.5 18.5zM91 -102q7 23 49 25q38 1 44 -18q1 -5 -1 -11l-51 -130q-7 -20 -41 -21.5t-38 18.5q-1 5 1 11q5 18 18.5 63t18.5 63z" />
    <glyph glyph-name="Lcaron" unicode="&#x13d;" horiz-adv-x="674" 
d="M484 665q19 27 74.5 24t62.5 -24q-18 -50 -83.5 -269.5t-98.5 -282.5l55.5 -50l50 -45.5t42 -34t43 -24.5t42.5 -6.5t49 9.5q23 -2 30.5 -43t-14.5 -63q-34 -12 -66 -14t-61.5 8.5t-54 22.5t-52.5 36.5t-45.5 42l-46 47l-42.5 43.5q-65 -48 -147 -51q-67 -2 -108.5 28
t-37.5 88q2 52 48 81.5t106 28.5t108 -29q29 82 66 213.5t51 173.5q-22 -27 -57.5 -46t-64.5 -27t-54 -23.5t-31 -39.5q-14 -52 31 -65q8 -11 1 -34.5t-22 -28.5q-69 -6 -111 35t-29 101q8 40 38 64.5t72 37t86.5 24t92 34t77.5 58.5zM692 664q8 21 49 19q38 -2 43 -21
q2 -5 -1 -11l-50 -119q-5 -13 -27.5 -16.5t-40 6t-11.5 26.5zM195 122q-12 -17 -1.5 -34.5t39.5 -17.5q44 -1 75 45q-25 25 -63.5 27t-49.5 -20z" />
    <glyph glyph-name="lcaron" unicode="&#x13e;" horiz-adv-x="352" 
d="M134 -7q-52 5 -82 32t-38 75.5t-3.5 104t21.5 131.5q25 110 73.5 202t105.5 130q37 25 76.5 24.5t67 -23.5t40 -65t-4.5 -101q-21 -80 -94 -155t-167 -111q-37 -164 56 -167q45 -2 95 36t85 108q4 5 13.5 2t18 -11.5t6.5 -13.5q-53 -102 -113.5 -154t-155.5 -44zM511 563
q-5 -10 -22.5 -13t-31 3.5t-9.5 20.5q17 58 32 103q8 22 43 19q31 -3 34 -22q1 -5 -2 -12zM145 315q37 22 71 65t54 89q42 104 20 127q-5 5 -12 5q-18 1 -36.5 -29.5t-39.5 -85.5q-35 -93 -57 -171z" />
    <glyph glyph-name="Ldot" unicode="&#x13f;" horiz-adv-x="610" 
d="M725 -164q-34 -12 -67.5 -11.5t-59 7t-56 27.5t-49 36t-46.5 48t-40 48.5l-38 50.5q-65 -48 -147 -51q-67 -2 -108.5 28t-37.5 88q2 52 48 81.5t106 28.5t108 -29q29 82 66 213.5t51 173.5q-22 -27 -57.5 -46t-64.5 -27t-54 -23.5t-31 -39.5q-14 -52 31 -65
q8 -11 1 -34.5t-22 -28.5q-69 -6 -111 35t-29 101q8 40 38 64.5t72 37t86.5 24t92 34t77.5 58.5q19 27 74.5 24t62.5 -24q-18 -50 -83.5 -269.5t-98.5 -282.5l38 -42.5l35.5 -40l31.5 -33t32 -29t30 -19.5t33 -13t33 -1.5t37 7.5q23 -2 30.5 -43t-14.5 -63zM641 239
q-25 0 -42.5 18t-15.5 44q2 25 21 43t45 18t42.5 -18t14.5 -43q-2 -26 -21 -44t-44 -18zM233 70q44 -1 75 45q-25 25 -63.5 27t-49.5 -20q-12 -17 -1.5 -34.5t39.5 -17.5z" />
    <glyph glyph-name="ldot" unicode="&#x140;" horiz-adv-x="355" 
d="M211 668q37 25 76.5 24.5t67 -23.5t40 -65t-4.5 -101q-21 -80 -94 -155t-167 -111q-37 -164 56 -167q45 -2 95 36t85 108q4 5 13.5 2t18 -11.5t6.5 -13.5q-34 -66 -65.5 -107t-84.5 -69t-119 -22q-52 5 -82 32t-38 75.5t-3.5 104t21.5 131.5q25 110 73.5 202t105.5 130z
M278 601q-18 1 -36.5 -29.5t-39.5 -85.5q-35 -93 -57 -171q37 22 71 65t54 89q42 104 20 127q-5 5 -12 5zM284 273q22 0 34.5 -12t12.5 -31q0 -17 -12.5 -28.5t-33.5 -11.5q-44 0 -44 42q0 18 11.5 29.5t31.5 11.5z" />
    <glyph glyph-name="Lslash" unicode="&#x141;" horiz-adv-x="621" 
d="M720 -38q23 -2 30 -44.5t-14 -61.5q-30 -11 -59 -13t-52.5 2t-50.5 17.5t-45.5 26t-44 35.5t-40.5 38l-40 41.5l-37 38.5q-58 -50 -142 -51q-72 -1 -113.5 28t-35.5 88q4 49 48 77t103.5 27t110.5 -29q5 11 13.5 39.5t9.5 30.5l-60 -4q-12 5 -12.5 25t12.5 27
q11 1 37.5 2.5t37.5 2.5q14 44 39.5 135t39.5 135q-22 -27 -57.5 -46t-64.5 -27t-54 -23.5t-31 -39.5q-14 -52 29 -65q5 -4 5.5 -16.5t-7 -27.5t-19.5 -19q-69 -6 -110 35t-28 101q8 40 38 64.5t72 37t86.5 24t92 34t77.5 58.5q11 19 43.5 23.5t61.5 -4t30 -20.5
q-17 -48 -53.5 -172.5t-53.5 -177.5q46 3 101 9q14 -3 15.5 -27t-10.5 -31q-69 -6 -126 -10q-35 -104 -53 -142l55 -50l49.5 -45.5t42 -34t43 -24.5t42.5 -6.5t49 9.5zM235 69q47 1 72 47q-27 24 -62.5 26t-50.5 -21q-13 -17 -1 -35t42 -17z" />
    <glyph glyph-name="lslash" unicode="&#x142;" horiz-adv-x="346" 
d="M125 -7q-69 6 -97.5 52.5t-26.5 128.5h-29q-13 3 -14 26t14 27h33q8 64 18 109q25 110 74 202t105 130q37 25 76.5 24.5t67 -23.5t40 -65t-3.5 -101q-22 -81 -95 -155.5t-167 -110.5q-1 -1 -2 -4t-2 -5h67q15 -2 16 -25.5t-15 -28.5h-72q-3 -103 65 -104q45 -2 94 36
t85 108q4 5 13.5 2t18.5 -11.5t7 -13.5q-53 -102 -114 -154t-156 -44zM193 486q-29 -69 -56 -171q36 22 70 65t54 89q43 102 21 127q-5 5 -13 5q-17 1 -35 -28.5t-41 -86.5z" />
    <glyph glyph-name="Nacute" unicode="&#x143;" horiz-adv-x="889" 
d="M708 879q15 22 60 13q35 -6 36 -22q0 -5 -4 -9l-82 -96q-14 -16 -49 -9q-28 7 -27 23q0 5 4 11q11 17 34 49t28 40zM755 694q26 0 45.5 -6.5t32.5 -15.5t21 -24.5t12 -30t3.5 -35.5t-2 -36t-6.5 -37.5t-8.5 -35l-9 -33t-7.5 -26.5l-22.5 -77l-22.5 -75.5t-18.5 -68
t-12.5 -63.5t-1.5 -51t12.5 -42.5t30 -27.5q18 -18 -11 -58t-64 -34q-25 5 -43.5 16t-29.5 29t-18.5 38t-8 49.5t0.5 54.5t8 62.5t13 65t18 69.5l20 69.5l21 70.5v165q-55 0 -127 -88.5t-113 -202.5l-43 -142l-31.5 -108.5t-17.5 -52.5q-9 -24 -69.5 -21.5t-63.5 29.5
q25 76 80.5 266l85.5 285q-23 -26 -58.5 -44t-64 -25.5t-52.5 -23t-29 -38.5q-12 -53 33 -67q7 -4 7.5 -17.5t-8.5 -28.5t-22 -16q-68 -6 -110 36t-30 100q11 49 56.5 77.5t98.5 39t117 38t101 73.5q17 20 63.5 16t51.5 -26l-44 -141q45 70 108 120.5t129 49.5z" />
    <glyph glyph-name="nacute" unicode="&#x144;" 
d="M280 610q15 22 60 13q35 -6 36 -22q0 -5 -4 -9l-82 -96q-14 -16 -49 -9q-28 7 -27 23q0 5 4 11q11 17 34 49t28 40zM337 427q56 -1 74.5 -37.5t3.5 -99.5q-5 -20 -21 -72t-22 -77q-15 -70 14 -70t65.5 42t62.5 101q5 5 14.5 2.5t18 -11t6.5 -13.5q-17 -35 -37.5 -66
t-48 -63t-62.5 -51.5t-72 -20.5q-63 -1 -85.5 30.5t-9.5 88.5q4 19 21 90.5t19 78.5q7 22 3 38t-25 15q-43 -3 -102 -73q-20 -68 -64 -249q-9 -18 -68.5 -17t-64.5 24q32 131 110 399q15 16 63.5 11.5t59.5 -27.5l-19 -66q94 94 166 93z" />
    <glyph glyph-name="Ncommaaccent" unicode="&#x145;" horiz-adv-x="889" 
d="M755 694q26 0 45.5 -6.5t32.5 -15.5t21 -24.5t12 -30t3.5 -35.5t-2 -36t-6.5 -37.5t-8.5 -35l-9 -33t-7.5 -26.5l-22.5 -77l-22.5 -75.5t-18.5 -68t-12.5 -63.5t-1.5 -51t12.5 -42.5t30 -27.5q18 -18 -11 -58t-64 -34q-25 5 -43.5 16t-29.5 29t-18.5 38t-8 49.5t0.5 54.5
t8 62.5t13 65t18 69.5l20 69.5l21 70.5v165q-55 0 -127 -88.5t-113 -202.5l-43 -142l-31.5 -108.5t-17.5 -52.5q-9 -24 -69.5 -21.5t-63.5 29.5q25 76 80.5 266l85.5 285q-23 -26 -58.5 -44t-64 -25.5t-52.5 -23t-29 -38.5q-12 -53 33 -67q7 -4 7.5 -17.5t-8.5 -28.5
t-22 -16q-68 -6 -110 36t-30 100q11 49 56.5 77.5t98.5 39t117 38t101 73.5q17 20 63.5 16t51.5 -26l-44 -141q45 70 108 120.5t129 49.5zM458 -97q7 23 49 25q38 1 44 -18q1 -5 -1 -11l-51 -130q-7 -20 -41 -21.5t-38 18.5q-1 5 1 11q5 18 18.5 63t18.5 63z" />
    <glyph glyph-name="ncommaaccent" unicode="&#x146;" 
d="M337 427q56 -1 74.5 -37.5t3.5 -99.5q-5 -20 -21 -72t-22 -77q-15 -70 14 -70t65.5 42t62.5 101q5 5 14.5 2.5t18 -11t6.5 -13.5q-17 -35 -37.5 -66t-48 -63t-62.5 -51.5t-72 -20.5q-63 -1 -85.5 30.5t-9.5 88.5q4 19 21 90.5t19 78.5q7 22 3 38t-25 15q-43 -3 -102 -73
q-20 -68 -64 -249q-9 -18 -68.5 -17t-64.5 24q32 131 110 399q15 16 63.5 11.5t59.5 -27.5l-19 -66q94 94 166 93zM115 -95q7 23 49 25q38 1 44 -18q1 -5 -1 -11l-51 -130q-7 -20 -41 -21.5t-38 18.5q-1 5 1 11q5 18 18.5 63t18.5 63z" />
    <glyph glyph-name="Ncaron" unicode="&#x147;" horiz-adv-x="889" 
d="M731 764q-15 -10 -39 -9.5t-36 9.5q-15 12 -90 96q-14 15 17 27q36 13 55 0q3 -1 4 -3l54 -61l84 64q19 14 50 -1q28 -15 18 -33q-2 -4 -6 -8q-51 -42 -111 -81zM755 694q26 0 45.5 -6.5t32.5 -15.5t21 -24.5t12 -30t3.5 -35.5t-2 -36t-6.5 -37.5t-8.5 -35l-9 -33
t-7.5 -26.5l-22.5 -77l-22.5 -75.5t-18.5 -68t-12.5 -63.5t-1.5 -51t12.5 -42.5t30 -27.5q18 -18 -11 -58t-64 -34q-25 5 -43.5 16t-29.5 29t-18.5 38t-8 49.5t0.5 54.5t8 62.5t13 65t18 69.5l20 69.5l21 70.5v165q-55 0 -127 -88.5t-113 -202.5l-43 -142l-31.5 -108.5
t-17.5 -52.5q-9 -24 -69.5 -21.5t-63.5 29.5q25 76 80.5 266l85.5 285q-23 -26 -58.5 -44t-64 -25.5t-52.5 -23t-29 -38.5q-12 -53 33 -67q7 -4 7.5 -17.5t-8.5 -28.5t-22 -16q-68 -6 -110 36t-30 100q11 49 56.5 77.5t98.5 39t117 38t101 73.5q17 20 63.5 16t51.5 -26
l-44 -141q45 70 108 120.5t129 49.5z" />
    <glyph glyph-name="ncaron" unicode="&#x148;" 
d="M303 495q-15 -10 -39 -9.5t-36 9.5q-15 12 -90 96q-14 15 17 27q36 13 55 0q3 -1 4 -3l54 -61l84 64q19 14 50 -1q28 -15 18 -33q-2 -4 -6 -8q-51 -42 -111 -81zM337 427q56 -1 74.5 -37.5t3.5 -99.5q-5 -20 -21 -72t-22 -77q-15 -70 14 -70t65.5 42t62.5 101
q5 5 14.5 2.5t18 -11t6.5 -13.5q-17 -35 -37.5 -66t-48 -63t-62.5 -51.5t-72 -20.5q-63 -1 -85.5 30.5t-9.5 88.5q4 19 21 90.5t19 78.5q7 22 3 38t-25 15q-43 -3 -102 -73q-20 -68 -64 -249q-9 -18 -68.5 -17t-64.5 24q32 131 110 399q15 16 63.5 11.5t59.5 -27.5l-19 -66
q94 94 166 93z" />
    <glyph glyph-name="Eng" unicode="&#x14a;" horiz-adv-x="888" 
d="M898 214q4 5 13.5 2t18.5 -11t6 -14q-54 -106 -106.5 -161.5t-129.5 -87.5q-36 -123 -84.5 -180t-139.5 -58q-55 -1 -85.5 26.5t-29 67.5t30.5 75q22 35 70 57.5t121 43.5q14 49 125 467q46 166 -4 165q-54 0 -124.5 -88t-112.5 -203l-46 -153.5l-31 -105.5t-15 -46
q-8 -20 -65 -21q-59 -1 -69 21q-2 4 0 10q33 97 88.5 287l78.5 264q-23 -26 -58.5 -44t-64 -25.5t-52.5 -23t-29 -38.5q-14 -52 33 -67q6 -5 6.5 -17.5t-8 -27.5t-21.5 -17q-68 -6 -110 36t-30 100q9 41 39.5 65.5t73.5 37.5t88 24.5t93 37t79 64.5q23 21 69 14.5t45 -25.5
q-13 -45 -43 -141q45 70 108 120.5t129 49.5q26 0 45.5 -6.5t32.5 -15.5t21 -24.5t12 -30t3.5 -35.5t-2 -36t-6.5 -37.5t-8.5 -35l-9 -33t-7.5 -26.5q-2 -9 -26.5 -93l-53.5 -184l-37 -126q55 24 97 72t82 131zM552 -153q10 32 16 59q-78 -31 -97 -72q-9 -23 -2.5 -36
t22.5 -12t33.5 16.5t27.5 44.5z" />
    <glyph glyph-name="eng" unicode="&#x14b;" horiz-adv-x="508" 
d="M105 -296q-59 -1 -91 26.5t-31.5 67t30.5 75.5q22 35 70 57.5t121 43.5q6 22 37.5 149.5t39.5 155.5q9 21 4 38.5t-27 16.5q-39 -1 -95 -65q-39 -118 -73 -259q-3 -17 -60 -19q-63 -3 -72 18q-2 4 -1 8q43 168 113 386q5 20 64 22t69 -16q2 -4 0 -9l-7.5 -24.5
t-6.5 -22.5q81 74 143 74q115 0 82 -137q-61 -230 -75 -279q54 24 96.5 72t82.5 131q4 5 13.5 2t18.5 -11t6 -13q-53 -106 -105.5 -162t-130.5 -88q-18 -63 -34.5 -102.5t-41 -72.5t-58.5 -48t-81 -15zM112 -214q16 1 33.5 16.5t27.5 44.5q11 32 16 59q-78 -31 -97 -72
q-9 -22 -2.5 -35.5t22.5 -12.5z" />
    <glyph glyph-name="Omacron" unicode="&#x14c;" horiz-adv-x="754" 
d="M391 775q-15 0 -19 18.5t5 36t24 17.5q137 -2 212 -1q15 0 18 -18t-5.5 -35.5t-21.5 -17.5h-213zM471 693q73 -3 121 -35.5t67.5 -78t23 -103t-4.5 -105.5t-22 -92q33 3 72.5 16t65.5 30q8 5 10 -10q1 -27 -11 -39q-71 -49 -158 -59q-40 -99 -117.5 -162t-181.5 -64
q-135 0 -187 89q-33 55 -27 139.5t49 137.5q20 15 56 -7.5t30 -42.5q-25 -42 -26.5 -96.5t26.5 -97t81 -43.5q109 -1 167 154q-130 17 -212.5 105t-62.5 204q10 58 50.5 96.5t89.5 52.5t101 11zM461 611q-43 2 -70.5 -22t-34.5 -68q-11 -71 36 -140t135 -88q9 36 15 81.5
t6 102t-21.5 95t-65.5 39.5z" />
    <glyph glyph-name="omacron" unicode="&#x14d;" horiz-adv-x="511" 
d="M167 505q-15 0 -19 18.5t5 36t24 17.5q137 -2 212 -1q15 0 18 -18t-5.5 -35.5t-21.5 -17.5h-68h-79.5h-65.5zM267 427q86 0 127 -51.5t34 -125.5t-52 -148q92 -9 145 112q4 5 14 2.5t19 -10.5t6 -14q-24 -50 -53.5 -81.5t-58 -43t-59 -15t-56.5 3.5q-72 -66 -173 -66
q-87 0 -132.5 51.5t-21.5 161.5q22 103 95 163t166 61zM250 346q-35 -1 -64 -42.5t-43 -99.5q-31 -134 37 -134q30 0 54 27q-13 22 0 44.5t37 20.5q13 34 19.5 66.5t6.5 59.5t-12 43t-35 15z" />
    <glyph glyph-name="Ohungarumlaut" unicode="&#x150;" horiz-adv-x="754" 
d="M437 873q9 23 50 23q37 1 41 -16q1 -5 -2 -10l-52 -96q-10 -19 -42 -19q-31 0 -31 20q0 4 2 9zM565 873q9 23 52 23q36 1 40 -16q1 -5 -2 -10l-53 -96q-11 -20 -44 -19q-30 0 -29 20q0 4 2 8zM471 693q73 -3 121 -35.5t67.5 -78t23 -103t-4.5 -105.5t-22 -92
q33 3 72.5 16t65.5 30q8 5 10 -10q1 -27 -11 -39q-71 -49 -158 -59q-40 -99 -117.5 -162t-181.5 -64q-135 0 -187 89q-33 55 -27 139.5t49 137.5q20 15 56 -7.5t30 -42.5q-25 -42 -26.5 -96.5t26.5 -97t81 -43.5q109 -1 167 154q-130 17 -212.5 105t-62.5 204
q10 58 50.5 96.5t89.5 52.5t101 11zM461 611q-43 2 -70.5 -22t-34.5 -68q-11 -71 36 -140t135 -88q9 36 15 81.5t6 102t-21.5 95t-65.5 39.5z" />
    <glyph glyph-name="ohungarumlaut" unicode="&#x151;" horiz-adv-x="511" 
d="M213 603q9 23 50 23q37 1 41 -16q1 -5 -2 -10l-52 -96q-10 -19 -42 -19q-31 0 -31 20q0 4 2 9zM341 603q9 23 52 23q36 1 40 -16q1 -5 -2 -10l-53 -96q-11 -20 -44 -19q-30 0 -29 20q0 4 2 8zM267 427q86 0 127 -51.5t34 -125.5t-52 -148q92 -9 145 112q4 5 14 2.5
t19 -10.5t6 -14q-24 -50 -53.5 -81.5t-58 -43t-59 -15t-56.5 3.5q-72 -66 -173 -66q-87 0 -132.5 51.5t-21.5 161.5q22 103 95 163t166 61zM250 346q-35 -1 -64 -42.5t-43 -99.5q-31 -134 37 -134q30 0 54 27q-13 22 0 44.5t37 20.5q13 34 19.5 66.5t6.5 59.5t-12 43t-35 15
z" />
    <glyph glyph-name="OE" unicode="&#x152;" horiz-adv-x="1028" 
d="M764 -29q-72 -1 -135.5 25.5t-91.5 83.5q-87 -89 -201 -89q-136 1 -187 89q-33 55 -27 139.5t49 137.5q16 13 40 9t42 -21.5t8 -32.5q-26 -43 -28.5 -99t25 -99t80.5 -44q76 -1 117 57t74 176q36 126 16.5 216t-84.5 92q-43 2 -70.5 -22t-34.5 -68q-9 -51 13.5 -105
t72.5 -89q15 -11 -6.5 -44t-40.5 -24q-88 42 -134 114.5t-31 159.5q15 86 86.5 125.5t154.5 34.5q54 -3 94.5 -24t62.5 -54t35 -75.5t12 -88.5t-6 -92q45 25 95 25q-41 40 -43 106t31 104q-17 45 -12 90q1 15 23.5 14.5t23.5 -16.5q0 -27 8 -51q62 47 160 42
q60 -4 97.5 -35.5t33.5 -81.5q-4 -49 -42.5 -81.5t-92.5 -36.5q-81 -5 -125 54q-8 -46 13 -79.5t61 -43.5q5 -4 6 -19.5t-6.5 -33t-19.5 -19.5q-31 7 -71 5t-75.5 -10t-64 -31.5t-38.5 -58.5q-19 -70 27 -111t124 -39q86 3 155 44.5t102 116.5q5 7 14 4t17.5 -11.5
t6.5 -12.5q-101 -219 -313 -222zM930 510q51 3 56 45q1 18 -15.5 29t-42.5 9q-50 -2 -78 -39q31 -46 80 -44z" />
    <glyph glyph-name="oe" unicode="&#x153;" horiz-adv-x="697" 
d="M249 427q51 0 88 -26.5t41 -62.5q79 89 174 86q66 -1 95.5 -38t21.5 -86q-8 -78 -78 -115t-172 -17q-1 -44 21 -70t61 -27t70.5 6.5t69.5 41.5t65 94q5 10 24 -1t15 -20q-25 -54 -56 -93.5t-57 -59.5t-57.5 -31.5t-50.5 -14t-44 -2.5q-51 0 -92 26t-57 72
q-63 -94 -170 -97q-87 -2 -132.5 51t-22.5 163q23 105 91 163t152 58zM246 347q-35 -1 -61.5 -42t-40.5 -102q-15 -46 -10 -89.5t46 -43.5q75 0 106 140q25 137 -40 137zM532 343q-33 4 -63 -29.5t-44 -90.5q47 -6 80 13t46 51q9 20 5 37t-24 19z" />
    <glyph glyph-name="Racute" unicode="&#x154;" horiz-adv-x="790" 
d="M513 880q15 22 60 13q35 -6 36 -22q0 -5 -4 -9l-82 -96q-14 -16 -49 -9q-28 7 -27 23q0 5 4 11q11 17 34 49t28 40zM672 -104q-28 3 -52 15.5t-42.5 38t-31.5 46t-26.5 59.5t-18.5 56l-16 57q-12 55 -39 75h-16h-19.5h-14.5q-51 -172 -70 -228q-9 -13 -40.5 -16.5
t-58.5 4.5t-25 26q13 30 60.5 193t62.5 201q38 101 82 135q19 11 43.5 10.5t44 -9t16.5 -17.5q-42 -44 -95 -227q91 -2 151 40t67 120q4 62 -44.5 99t-126.5 38q-65 0 -120 -25t-78 -65q-53 -54 -21 -122q2 -18 -26 -38.5t-51 -13.5q-33 17 -51.5 50t-16.5 69
q6 109 115.5 168.5t258.5 58.5q129 -1 213 -61t77 -157q-12 -163 -200 -216q24 -21 39 -83q10 -34 19 -57.5t24.5 -52t36.5 -46t47 -22.5q13 -16 10.5 -40t-22.5 -45t-45 -18z" />
    <glyph glyph-name="racute" unicode="&#x155;" horiz-adv-x="402" 
d="M271 635q15 22 60 13q35 -6 36 -22q0 -5 -4 -9l-82 -96q-14 -16 -49 -9q-28 7 -27 23q0 5 4 11q11 17 34 49t28 40zM33 162q-5 -6 -15 -4t-18.5 10t-4.5 15q60 119 86 215q-42 63 -8 107q25 31 60 27q36 -4 40 -46q2 -17 -4 -40l33 -29.5l35.5 -31t30 -30t22 -32.5
t4.5 -33t-15 -35q-66 -87 -72 -136q-3 -22 6 -35t31 -12q39 0 86 34t83 108q4 5 13.5 2t18 -11t6.5 -13q-93 -200 -255 -200q-62 -1 -93.5 28t-30.5 79q0 29 14 65t28 60t39 62q5 7 6.5 14t-0.5 14.5t-3.5 12.5t-8 13l-9 11t-10.5 11l-9 9q-28 -103 -86 -209z" />
    <glyph glyph-name="Rcommaaccent" unicode="&#x156;" horiz-adv-x="790" 
d="M672 -104q-28 3 -52 15.5t-42.5 38t-31.5 46t-26.5 59.5t-18.5 56l-16 57q-12 55 -39 75h-16h-19.5h-14.5q-51 -172 -70 -228q-9 -13 -40.5 -16.5t-58.5 4.5t-25 26q13 30 60.5 193t62.5 201q38 101 82 135q19 11 43.5 10.5t44 -9t16.5 -17.5q-42 -44 -95 -227
q91 -2 151 40t67 120q4 62 -44.5 99t-126.5 38q-65 0 -120 -25t-78 -65q-53 -54 -21 -122q2 -18 -26 -38.5t-51 -13.5q-33 17 -51.5 50t-16.5 69q6 109 115.5 168.5t258.5 58.5q129 -1 213 -61t77 -157q-12 -163 -200 -216q24 -21 39 -83q10 -34 19 -57.5t24.5 -52t36.5 -46
t47 -22.5q13 -16 10.5 -40t-22.5 -45t-45 -18zM371 -95q7 23 49 25q38 1 44 -18q1 -5 -1 -11l-51 -130q-7 -20 -41 -21.5t-38 18.5q-1 5 1 11q5 18 18.5 63t18.5 63z" />
    <glyph glyph-name="rcommaaccent" unicode="&#x157;" horiz-adv-x="402" 
d="M33 162q-5 -6 -15 -4t-18.5 10t-4.5 15q60 119 86 215q-42 63 -8 107q25 31 60 27q36 -4 40 -46q2 -17 -4 -40l33 -29.5l35.5 -31t30 -30t22 -32.5t4.5 -33t-15 -35q-66 -87 -72 -136q-3 -22 6 -35t31 -12q39 0 86 34t83 108q4 5 13.5 2t18 -11t6.5 -13
q-93 -200 -255 -200q-62 -1 -93.5 28t-30.5 79q0 29 14 65t28 60t39 62q5 7 6.5 14t-0.5 14.5t-3.5 12.5t-8 13l-9 11t-10.5 11l-9 9q-28 -103 -86 -209zM134 -104q7 23 49 25q38 1 44 -18q1 -5 -1 -11l-51 -130q-7 -20 -41 -21.5t-38 18.5q-1 5 1 11q5 18 18.5 63t18.5 63z
" />
    <glyph glyph-name="Rcaron" unicode="&#x158;" horiz-adv-x="790" 
d="M536 765q-15 -10 -39 -9.5t-36 9.5q-15 12 -90 96q-14 15 17 27q36 13 55 0q3 -1 4 -3l54 -61l84 64q19 14 50 -1q28 -15 18 -33q-2 -4 -6 -8q-51 -42 -111 -81zM672 -104q-28 3 -52 15.5t-42.5 38t-31.5 46t-26.5 59.5t-18.5 56l-16 57q-12 55 -39 75h-16h-19.5h-14.5
q-51 -172 -70 -228q-9 -13 -40.5 -16.5t-58.5 4.5t-25 26q13 30 60.5 193t62.5 201q38 101 82 135q19 11 43.5 10.5t44 -9t16.5 -17.5q-42 -44 -95 -227q91 -2 151 40t67 120q4 62 -44.5 99t-126.5 38q-65 0 -120 -25t-78 -65q-53 -54 -21 -122q2 -18 -26 -38.5t-51 -13.5
q-33 17 -51.5 50t-16.5 69q6 109 115.5 168.5t258.5 58.5q129 -1 213 -61t77 -157q-12 -163 -200 -216q24 -21 39 -83q10 -34 19 -57.5t24.5 -52t36.5 -46t47 -22.5q13 -16 10.5 -40t-22.5 -45t-45 -18z" />
    <glyph glyph-name="rcaron" unicode="&#x159;" horiz-adv-x="402" 
d="M294 520q-15 -10 -39 -9.5t-36 9.5q-15 12 -90 96q-14 15 17 27q36 13 55 0q3 -1 4 -3l54 -61l84 64q19 14 50 -1q28 -15 18 -33q-2 -4 -6 -8q-51 -42 -111 -81zM33 162q-5 -6 -15 -4t-18.5 10t-4.5 15q60 119 86 215q-42 63 -8 107q25 31 60 27q36 -4 40 -46
q2 -17 -4 -40l33 -29.5l35.5 -31t30 -30t22 -32.5t4.5 -33t-15 -35q-66 -87 -72 -136q-3 -22 6 -35t31 -12q39 0 86 34t83 108q4 5 13.5 2t18 -11t6.5 -13q-93 -200 -255 -200q-62 -1 -93.5 28t-30.5 79q0 29 14 65t28 60t39 62q5 7 6.5 14t-0.5 14.5t-3.5 12.5t-8 13l-9 11
t-10.5 11l-9 9q-28 -103 -86 -209z" />
    <glyph glyph-name="Sacute" unicode="&#x15a;" horiz-adv-x="603" 
d="M431 879q15 22 60 13q35 -6 36 -22q0 -5 -4 -9l-82 -96q-14 -16 -49 -9q-28 7 -27 23q0 5 4 11q11 17 34 49t28 40zM588 517q-10 -24 -55.5 -22.5t-51.5 25.5q9 92 -68 94q-27 -1 -48.5 -20t-24.5 -62q-3 -34 17 -68t50 -64l60 -62t50 -73.5t17 -86.5q-6 -92 -72.5 -140
t-175.5 -47q-71 1 -118.5 27t-66 68t-19 90.5t16.5 98.5q15 19 60.5 12.5t47.5 -29.5q-21 -84 7 -135t82 -53q47 -1 74.5 26.5t30.5 76.5q2 37 -18.5 73.5t-51.5 66.5l-61 62t-49.5 74.5t-14.5 89.5q8 74 62 115.5t146 40.5q96 -2 142 -50t32 -128z" />
    <glyph glyph-name="sacute" unicode="&#x15b;" horiz-adv-x="465" 
d="M272 644q15 22 60 13q35 -6 36 -22q0 -5 -4 -9l-82 -96q-14 -16 -49 -9q-28 7 -27 23q0 5 4 11q11 17 34 49t28 40zM168 -12q-46 0 -83 27.5t-43 77.5q7 21 32.5 31.5t40.5 1.5q-1 -24 13.5 -40.5t36.5 -16.5q24 0 38 18q-19 18 -12.5 43.5t29.5 27.5q-1 41 -20 119
t-23 105q-64 -64 -144 -220q-5 -6 -15 -4t-18.5 10t-4.5 15q77 162 166 247q48 47 104 42q43 -3 49 -33q4 -22 -16 -49q6 -31 15.5 -67.5t16.5 -59.5t13.5 -54.5t6 -52.5t-5.5 -55q81 4 131 113q4 5 13.5 2t18 -11t6.5 -13q-69 -143 -192 -141q-48 -63 -153 -63z" />
    <glyph glyph-name="Scedilla" unicode="&#x15e;" horiz-adv-x="603" 
d="M414 695q96 -2 142 -50t32 -128q-10 -24 -55.5 -22.5t-51.5 25.5q9 92 -68 94q-27 -1 -48.5 -20t-24.5 -62q-3 -34 17 -68t50 -64l60 -62t50 -73.5t17 -86.5q-5 -81 -58 -128t-141 -57l-36 -48q45 -6 62.5 -38t-0.5 -66q-21 -46 -75.5 -59.5t-120.5 27.5q-5 6 -2.5 17.5
t11.5 21t16 5.5q29 -18 55 -18t38 24q12 17 3.5 32.5t-40.5 14.5q-14 0 -18 8.5t4 21.5l35 56q-65 4 -108.5 31t-60 68t-16.5 88t17 96q15 19 60.5 12.5t47.5 -29.5q-21 -84 7 -135t82 -53q47 -1 74.5 26.5t30.5 76.5q2 37 -18.5 73.5t-51.5 66.5l-61 62t-49.5 74.5
t-14.5 89.5q8 74 62 115.5t146 40.5z" />
    <glyph glyph-name="scedilla" unicode="&#x15f;" horiz-adv-x="465" 
d="M475 214q4 5 13.5 2t18 -11t6.5 -13q-69 -143 -192 -141q-30 -41 -89 -55l-36 -49q45 -6 62.5 -38t-0.5 -66q-21 -46 -75.5 -59.5t-120.5 27.5q-5 6 -2.5 17.5t11.5 21t16 5.5q29 -18 55 -18t38 24q12 17 3.5 32.5t-40.5 14.5q-14 0 -18 8.5t4 21.5l32 50
q-44 2 -78.5 29.5t-40.5 75.5q7 21 32.5 31.5t40.5 1.5q-1 -24 13.5 -40.5t36.5 -16.5q24 0 38 18q-19 18 -12.5 43.5t29.5 27.5q-1 41 -20 119t-23 105q-64 -64 -144 -220q-5 -6 -15 -4t-18.5 10t-4.5 15q77 162 166 247q48 47 104 42q43 -3 49 -33q4 -22 -16 -49
q6 -31 15.5 -67.5t16.5 -59.5t13.5 -54.5t6 -52.5t-5.5 -55q81 4 131 113z" />
    <glyph glyph-name="Scaron" unicode="&#x160;" horiz-adv-x="603" 
d="M454 764q-15 -10 -39 -9.5t-36 9.5q-15 12 -90 96q-14 15 17 27q36 13 55 0q3 -1 4 -3l54 -61l84 64q19 14 50 -1q28 -15 18 -33q-2 -4 -6 -8q-51 -42 -111 -81zM588 517q-10 -24 -55.5 -22.5t-51.5 25.5q9 92 -68 94q-27 -1 -48.5 -20t-24.5 -62q-3 -34 17 -68t50 -64
l60 -62t50 -73.5t17 -86.5q-6 -92 -72.5 -140t-175.5 -47q-71 1 -118.5 27t-66 68t-19 90.5t16.5 98.5q15 19 60.5 12.5t47.5 -29.5q-21 -84 7 -135t82 -53q47 -1 74.5 26.5t30.5 76.5q2 37 -18.5 73.5t-51.5 66.5l-61 62t-49.5 74.5t-14.5 89.5q8 74 62 115.5t146 40.5
q96 -2 142 -50t32 -128z" />
    <glyph glyph-name="scaron" unicode="&#x161;" horiz-adv-x="465" 
d="M295 529q-15 -10 -39 -9.5t-36 9.5q-15 12 -90 96q-14 15 17 27q36 13 55 0q3 -1 4 -3l54 -61l84 64q19 14 50 -1q28 -15 18 -33q-2 -4 -6 -8q-51 -42 -111 -81zM168 -12q-46 0 -83 27.5t-43 77.5q7 21 32.5 31.5t40.5 1.5q-1 -24 13.5 -40.5t36.5 -16.5q24 0 38 18
q-19 18 -12.5 43.5t29.5 27.5q-1 41 -20 119t-23 105q-64 -64 -144 -220q-5 -6 -15 -4t-18.5 10t-4.5 15q77 162 166 247q48 47 104 42q43 -3 49 -33q4 -22 -16 -49q6 -31 15.5 -67.5t16.5 -59.5t13.5 -54.5t6 -52.5t-5.5 -55q81 4 131 113q4 5 13.5 2t18 -11t6.5 -13
q-69 -143 -192 -141q-48 -63 -153 -63z" />
    <glyph glyph-name="uni0162" unicode="&#x162;" horiz-adv-x="716" 
d="M230 675q59 23 125 17.5t111.5 -21.5t106.5 -31.5t110 -11.5q46 4 65.5 25t17.5 62q10 14 34 16.5t37 -8.5q25 -42 15 -90t-40 -70q-43 -33 -103 -38t-114 6l-74 -253q-46 -141 -74 -187q-51 -86 -148 -98q-18 -2 -38 -2q-47 0 -83 15t-54 40t-24.5 53.5t-0.5 57.5
q15 69 81 93q25 4 50 -15.5t21 -38.5q-23 -26 -27 -56.5t10.5 -50.5t40.5 -19q34 1 58 52.5t54 154.5q82 286 85 294q-128 48 -174 25q-40 -17 -41 -53q-1 -30 26 -38q24 -7 57 14q16 1 28 -15.5t11 -33.5q-35 -41 -83 -52.5t-90 6.5t-63 58q-15 34 -14 70.5t28 71.5t73 51z
M253 -106q7 23 49 25q38 1 44 -18q1 -5 -1 -11l-51 -130q-7 -20 -41 -21.5t-38 18.5q-1 5 1 11q5 18 18.5 63t18.5 63z" />
    <glyph glyph-name="uni0163" unicode="&#x163;" horiz-adv-x="321" 
d="M142 -9q-44 0 -74 14t-43.5 43t-18.5 60.5t1 79t14 86t22 93.5h-28q-14 8 -8.5 39.5t20.5 35.5h37q46 148 74 226q13 18 69 10.5t60 -31.5q-30 -87 -65 -205h75q15 -13 10 -41t-18 -34h-87q-31 -105 -39 -143q-36 -151 23 -155q39 -1 85 35.5t80 109.5q4 5 13.5 2.5
t18.5 -11t6 -14.5q-90 -199 -227 -200zM70 -104q7 23 49 25q38 1 44 -18q1 -5 -1 -11l-51 -130q-7 -20 -41 -21.5t-38 18.5q-1 5 1 11q5 18 18.5 63t18.5 63z" />
    <glyph glyph-name="Tcaron" unicode="&#x164;" horiz-adv-x="716" 
d="M601 765q-15 -10 -39 -9.5t-36 9.5q-15 12 -90 96q-14 15 17 27q36 13 55 0q3 -1 4 -3l54 -61l84 64q19 14 50 -1q28 -15 18 -33q-2 -4 -6 -8q-51 -42 -111 -81zM230 675q59 23 125 17.5t111.5 -21.5t106.5 -31.5t110 -11.5q46 4 65.5 25t17.5 62q10 14 34 16.5t37 -8.5
q25 -42 15 -90t-40 -70q-43 -33 -103 -38t-114 6l-74 -253q-46 -141 -74 -187q-51 -86 -148 -98q-18 -2 -38 -2q-47 0 -83 15t-54 40t-24.5 53.5t-0.5 57.5q15 69 81 93q25 4 50 -15.5t21 -38.5q-23 -26 -27 -56.5t10.5 -50.5t40.5 -19q34 1 58 52.5t54 154.5q82 286 85 294
q-128 48 -174 25q-40 -17 -41 -53q-1 -30 26 -38q24 -7 57 14q16 1 28 -15.5t11 -33.5q-35 -41 -83 -52.5t-90 6.5t-63 58q-15 34 -14 70.5t28 71.5t73 51z" />
    <glyph glyph-name="tcaron" unicode="&#x165;" horiz-adv-x="320" 
d="M142 -9q-44 0 -74 14t-43.5 43t-18.5 60.5t1 79t14 86t22 93.5h-37q-15 8 -9.5 39.5t20.5 35.5h47q46 148 74 226q13 18 69 10.5t60 -31.5q-30 -87 -65 -205h75q15 -13 10 -41t-18 -34h-87q-31 -105 -39 -143q-36 -151 23 -155q39 -1 85 35.5t80 109.5q4 5 13.5 2.5
t18.5 -11t6 -14.5q-90 -199 -227 -200zM325 651q10 22 46 18q30 -3 32 -20q0 -5 -3 -11l-48 -94q-10 -19 -40 -16q-27 3 -26 22q0 5 2 10z" />
    <glyph glyph-name="Tbar" unicode="&#x166;" horiz-adv-x="761" 
d="M261 -9q-90 -1 -131 45.5t-32 108.5q5 35 26 63.5t55 41.5q20 8 49.5 -14t22.5 -40q-23 -26 -27 -56t10 -50t41 -19q33 1 55.5 47t53.5 150l-68 1q-12 0 -14.5 16t5 32t20.5 16q50 -2 75 -1q60 209 70 239q-127 47 -175 25q-25 -9 -35.5 -28.5t-4.5 -36.5q6 -22 26 -27
t55 14q15 6 30.5 -16t9.5 -33q-56 -61 -129.5 -55t-106.5 68q-12 24 -13.5 52.5t8 55.5t34 50t59.5 35q59 23 125 17.5t111.5 -22t106.5 -31.5t110 -11q86 7 83 86q5 13 31.5 16.5t38.5 -7.5q24 -49 7 -98t-56 -68q-39 -26 -92 -30t-100 4q-13 -40 -58 -199h88q13 0 16 -16
t-4.5 -32.5t-20.5 -16.5h-101q-19 -62 -32 -96t-34 -74t-44.5 -59.5t-59.5 -33t-84 -13.5z" />
    <glyph glyph-name="tbar" unicode="&#x167;" horiz-adv-x="321" 
d="M142 -9q-90 0 -118.5 57.5t-14.5 158.5l-25 2q-9 0 -11.5 16t3.5 31.5t18 14.5q4 0 12.5 -0.5t13.5 -0.5q9 40 23 97h-37q-15 8 -9.5 39.5t20.5 35.5h47q46 148 74 226q13 18 69 10.5t60 -31.5q-30 -87 -65 -205h75q15 -13 10 -41t-18 -34h-87l-28 -97q10 0 30 1t30 1
q9 0 13.5 -14.5t0.5 -30t-15 -17.5q-20 -2 -74 -4q-31 -133 27 -137q39 -1 85 35.5t80 109.5q4 5 13.5 2.5t18.5 -11t6 -14.5q-90 -199 -227 -200z" />
    <glyph glyph-name="Umacron" unicode="&#x16a;" horiz-adv-x="918" 
d="M596 775q-15 0 -19 18.5t5 36t24 17.5q137 -2 212 -1q15 0 18 -18t-5.5 -35.5t-21.5 -17.5h-213zM464 673q20 20 75 16.5t56 -25.5q-78 -238 -138 -444q-43 -148 33 -148q48 0 96.5 53t72.5 130l120 402q23 22 76 12.5t54 -35.5q-50 -135 -138 -459q-25 -101 13 -102
q33 -2 73 36.5t71 104.5q4 5 13.5 2t18 -11t6.5 -13q-35 -75 -95.5 -137.5t-132.5 -62.5q-41 0 -67 28.5t-25 79.5q-36 -50 -90 -80t-103 -29q-193 0 -123 265q0 1 97 314q-22 -26 -57.5 -43.5t-63.5 -25t-52.5 -23t-29.5 -39.5q-12 -51 31 -65q12 -7 3.5 -34t-25.5 -28
q-69 -6 -111.5 35.5t-27.5 99.5q10 40 40.5 64.5t72.5 38t86.5 25.5t92 36.5t78.5 61.5z" />
    <glyph glyph-name="umacron" unicode="&#x16b;" 
d="M162 505q-15 0 -19 18.5t5 36t24 17.5q137 -2 212 -1q15 0 18 -18t-5.5 -35.5t-21.5 -17.5h-213zM320 414q10 17 62.5 12.5t62.5 -27.5q-4 -17 -13.5 -49l-17.5 -59.5l-17 -61.5t-14.5 -60.5t-8 -49.5t0.5 -35.5t13 -12.5q25 0 63 42t64 100q5 6 14.5 3.5t18 -11
t5.5 -13.5q-103 -201 -219 -199q-40 1 -57.5 37.5t-5.5 85.5q-79 -128 -190 -125q-64 0 -84.5 40t-7.5 100q11 57 43 166l34 116q10 19 66 14t58 -27q-3 -10 -24 -88.5t-31 -122.5q-20 -82 -15 -100q4 -15 20 -15q28 1 64.5 43t56.5 98q30 96 59 199z" />
    <glyph glyph-name="Uring" unicode="&#x16e;" horiz-adv-x="918" 
d="M723 910q45 -1 69.5 -25.5t18.5 -63.5q-4 -38 -34 -61t-73 -23q-44 0 -68.5 25t-18.5 64q4 37 34 60.5t72 23.5zM719 856q-30 0 -38 -33q-3 -14 4.5 -23t22.5 -9q33 0 39 32q5 33 -28 33zM464 673q20 20 75 16.5t56 -25.5q-78 -238 -138 -444q-43 -148 33 -148
q48 0 96.5 53t72.5 130l120 402q23 22 76 12.5t54 -35.5q-50 -135 -138 -459q-25 -101 13 -102q33 -2 73 36.5t71 104.5q4 5 13.5 2t18 -11t6.5 -13q-35 -75 -95.5 -137.5t-132.5 -62.5q-41 0 -67 28.5t-25 79.5q-36 -50 -90 -80t-103 -29q-193 0 -123 265q0 1 97 314
q-22 -26 -57.5 -43.5t-63.5 -25t-52.5 -23t-29.5 -39.5q-12 -51 31 -65q12 -7 3.5 -34t-25.5 -28q-69 -6 -111.5 35.5t-27.5 99.5q10 40 40.5 64.5t72.5 38t86.5 25.5t92 36.5t78.5 61.5z" />
    <glyph glyph-name="uring" unicode="&#x16f;" 
d="M289 641q45 -1 69.5 -25.5t18.5 -63.5q-4 -38 -34 -61t-73 -23q-44 0 -68.5 25t-18.5 64q4 37 34 60.5t72 23.5zM285 587q-30 0 -38 -33q-3 -14 4.5 -23t22.5 -9q33 0 39 32q5 33 -28 33zM320 414q10 17 62.5 12.5t62.5 -27.5q-4 -17 -13.5 -49l-17.5 -59.5l-17 -61.5
t-14.5 -60.5t-8 -49.5t0.5 -35.5t13 -12.5q25 0 63 42t64 100q5 6 14.5 3.5t18 -11t5.5 -13.5q-103 -201 -219 -199q-40 1 -57.5 37.5t-5.5 85.5q-79 -128 -190 -125q-64 0 -84.5 40t-7.5 100q11 57 43 166l34 116q10 19 66 14t58 -27q-3 -10 -24 -88.5t-31 -122.5
q-20 -82 -15 -100q4 -15 20 -15q28 1 64.5 43t56.5 98q30 96 59 199z" />
    <glyph glyph-name="Uhungarumlaut" unicode="&#x170;" horiz-adv-x="918" 
d="M642 873q9 23 50 23q37 1 41 -16q1 -5 -2 -10l-52 -96q-10 -19 -42 -19q-31 0 -31 20q0 4 2 9zM770 873q9 23 52 23q36 1 40 -16q1 -5 -2 -10l-53 -96q-11 -20 -44 -19q-30 0 -29 20q0 4 2 8zM464 673q20 20 75 16.5t56 -25.5q-78 -238 -138 -444q-43 -148 33 -148
q48 0 96.5 53t72.5 130l120 402q23 22 76 12.5t54 -35.5q-50 -135 -138 -459q-25 -101 13 -102q33 -2 73 36.5t71 104.5q4 5 13.5 2t18 -11t6.5 -13q-35 -75 -95.5 -137.5t-132.5 -62.5q-41 0 -67 28.5t-25 79.5q-36 -50 -90 -80t-103 -29q-193 0 -123 265q0 1 97 314
q-22 -26 -57.5 -43.5t-63.5 -25t-52.5 -23t-29.5 -39.5q-12 -51 31 -65q12 -7 3.5 -34t-25.5 -28q-69 -6 -111.5 35.5t-27.5 99.5q10 40 40.5 64.5t72.5 38t86.5 25.5t92 36.5t78.5 61.5z" />
    <glyph glyph-name="uhungarumlaut" unicode="&#x171;" 
d="M208 603q9 23 50 23q37 1 41 -16q1 -5 -2 -10l-52 -96q-10 -19 -42 -19q-31 0 -31 20q0 4 2 9zM336 603q9 23 52 23q36 1 40 -16q1 -5 -2 -10l-53 -96q-11 -20 -44 -19q-30 0 -29 20q0 4 2 8zM320 414q10 17 62.5 12.5t62.5 -27.5q-4 -17 -13.5 -49l-17.5 -59.5
l-17 -61.5t-14.5 -60.5t-8 -49.5t0.5 -35.5t13 -12.5q25 0 63 42t64 100q5 6 14.5 3.5t18 -11t5.5 -13.5q-103 -201 -219 -199q-40 1 -57.5 37.5t-5.5 85.5q-79 -128 -190 -125q-64 0 -84.5 40t-7.5 100q11 57 43 166l34 116q10 19 66 14t58 -27q-3 -10 -24 -88.5
t-31 -122.5q-20 -82 -15 -100q4 -15 20 -15q28 1 64.5 43t56.5 98q30 96 59 199z" />
    <glyph glyph-name="Uogonek" unicode="&#x172;" horiz-adv-x="919" 
d="M889 -152q-21 -37 -56.5 -55.5t-67.5 -15.5t-54.5 28t-19.5 67q3 60 53 120q-48 0 -73.5 28t-23.5 80q-35 -49 -89.5 -79.5t-103.5 -29.5q-98 0 -128 70.5t5 195.5q14 53 50 166.5l46 146.5q-22 -26 -57.5 -43.5t-64 -25t-53 -23t-30.5 -39.5q-12 -50 33 -65
q8 -3 8.5 -18t-8 -29t-21.5 -15q-69 -6 -112 35.5t-28 99.5q10 40 40.5 64.5t73 38t87 25.5t92 36.5t78.5 61.5q6 26 65 20q51 -5 60 -22q2 -2 1 -5l-134 -446q-43 -148 34 -148q48 0 96.5 53t71.5 130l121 402q5 17 41 17.5t67.5 -13t25.5 -30.5q-25 -64 -68 -202t-74 -254
q-25 -101 12 -102q33 -2 73.5 36.5t71.5 104.5q4 5 13.5 2t18 -11t6.5 -13q-39 -82 -98 -141q-38 -40 -61.5 -85.5t-23.5 -79.5q0 -20 9 -29t26 -3t38 29q10 8 18.5 3t13 -18t0.5 -20z" />
    <glyph glyph-name="uogonek" unicode="&#x173;" horiz-adv-x="506" 
d="M478 -152q-21 -37 -56.5 -55.5t-67.5 -15.5t-55 28t-20 67q3 60 52 121q-38 3 -55 38t-5 85q-79 -128 -190 -125q-64 0 -84.5 40t-7.5 100q10 49 71 276q5 18 66 18q60 -1 64 -18q1 -2 0 -4q0 -1 -22.5 -85.5t-32.5 -128.5q-20 -82 -15 -100q4 -15 20 -15q28 1 64.5 43
t56.5 98q11 35 29 101.5l25 91.5q4 17 64 17q62 -1 67 -19q1 -3 0 -5q-5 -19 -20 -70.5l-25.5 -89.5t-19.5 -81t-7.5 -66t14.5 -23q25 0 62 42t65 101q5 6 14.5 3.5t18 -11t6.5 -14.5q-16 -33 -50.5 -84t-65.5 -83q-65 -65 -65 -139q1 -20 9.5 -29t25.5 -3t38 29
q10 8 18.5 3t13 -18t0.5 -20z" />
    <glyph glyph-name="Wcircumflex" unicode="&#x174;" horiz-adv-x="1196" 
d="M834 884q15 10 39 9.5t36 -9.5q10 -8 28 -27l38.5 -42t24.5 -27q14 -15 -18 -26q-37 -13 -56 -1q-3 1 -4 3l-57 59l-80 -62q-19 -15 -50 0q-28 15 -18 34q2 4 6 8q30 26 111 81zM1174 732q33 7 63.5 -29.5t15.5 -58.5q-28 -17 -53.5 -56t-48.5 -101t-37.5 -109.5
t-35.5 -123.5q-36 -128 -101.5 -195.5t-179.5 -67.5q-71 0 -106 39.5t-36 95.5q-33 -65 -85 -100t-116 -35q-195 1 -124 271q15 53 52 169l44 139q-22 -26 -57.5 -43.5t-64 -25t-53 -23t-30.5 -39.5q-12 -52 33 -66q11 -6 3 -32.5t-24 -28.5q-73 -4 -112 35t-29 98
q7 38 36.5 63t72.5 39t88.5 26.5t93.5 37t78 59.5q20 22 76.5 18.5t55.5 -26.5q-90 -282 -137 -442q-19 -54 -13.5 -101.5t46.5 -46.5q38 0 81.5 55t69.5 143q16 55 40 129.5l51 156.5l37 113q12 23 69 15.5t60 -37.5q-88 -260 -141 -457q-15 -44 -4 -81.5t52 -37.5t77.5 47
t57.5 119q75 255 94 306q52 141 116 178q12 7 25 11z" />
    <glyph glyph-name="wcircumflex" unicode="&#x175;" horiz-adv-x="738" 
d="M387 616q15 10 39 9.5t36 -9.5q10 -8 28 -27l38.5 -42t24.5 -27q14 -15 -18 -26q-37 -13 -56 -1q-3 1 -4 3l-57 59l-80 -62q-19 -15 -50 0q-28 15 -18 34q2 4 6 8q30 26 111 81zM357 -8q-45 0 -72 29t-21 84q-39 -62 -89 -88t-96 -25q-65 1 -83 39t-5 108q13 69 76 271
q14 14 45.5 16.5t56.5 -7t24 -24.5q-57 -188 -68 -239q-9 -34 -7 -57.5t22 -24.5q26 -2 59.5 33.5t57.5 97.5q34 98 67 205q14 20 67.5 16t57.5 -29q-57 -161 -69 -214q-28 -110 7 -110q27 0 52 28q-15 25 3 47.5t42 11.5q28 46 51 119.5t24 132.5q5 11 35 15t59 -3t32 -24
q-2 -76 -35 -161t-77 -136q113 -23 176 111q4 5 13.5 2t18 -11t6.5 -14q-26 -54 -58.5 -86.5t-68 -43.5t-66 -11t-68.5 8q-69 -68 -169 -66z" />
    <glyph glyph-name="Ycircumflex" unicode="&#x176;" horiz-adv-x="901" 
d="M696 886q15 10 39 9.5t36 -9.5q10 -8 28 -27l38.5 -42t24.5 -27q14 -15 -18 -26q-37 -13 -56 -1q-3 1 -4 3l-57 59l-80 -62q-19 -15 -50 0q-28 15 -18 34q2 4 6 8q30 26 111 81zM911 213q4 5 13.5 2.5t18.5 -10.5t6 -14q-52 -102 -110.5 -159t-139.5 -89q-14 -56 -29 -98
q-28 -72 -72.5 -106.5t-124.5 -34.5q-57 -1 -89.5 30t-25.5 80q5 30 21 54t35.5 39.5t51.5 29.5t55.5 21t60.5 17q6 18 20.5 67t18.5 61q-72 -96 -167 -96q-93 0 -122.5 70.5t4.5 194.5q6 24 91 298q-22 -26 -57.5 -43.5t-64 -25t-52.5 -23t-30 -39.5q-12 -52 30 -65
q8 -3 8.5 -18t-8 -29t-21.5 -15q-69 -4 -110.5 35.5t-28.5 97.5q9 41 39.5 66t73 38t87.5 25t93 37t79 63q20 14 52 15.5t55 -6.5t23 -19q-92 -284 -133 -428q-43 -149 29 -150q50 0 97.5 51t77.5 134l116 389q18 20 74 11.5t57 -31.5q-28 -77 -92.5 -289l-101.5 -341
q118 49 192 203zM569 -90q-34 -12 -64 -35t-39 -44q-8 -21 -3 -34t22 -13q38 2 62 58q13 33 22 68z" />
    <glyph glyph-name="ycircumflex" unicode="&#x177;" 
d="M249 616q15 10 39 9.5t36 -9.5q10 -8 28 -27l38.5 -42t24.5 -27q14 -15 -18 -26q-37 -13 -56 -1q-3 1 -4 3l-57 59l-80 -62q-19 -15 -50 0q-28 15 -18 34q2 4 6 8q30 26 111 81zM103 -296q-57 -1 -90 28t-26 80q4 30 19.5 54t34.5 39.5t51.5 30t56.5 21.5l63 18
q17 44 41 124q-40 -59 -86.5 -84t-90.5 -23q-66 2 -84.5 43t-2.5 104q12 50 39 142.5t37 131.5q12 18 65.5 13.5t57.5 -26.5q-39 -147 -63 -247q-10 -34 -8.5 -57t22.5 -22q28 2 62 44.5t56 98.5q30 79 61 197q16 19 68 12t57 -28l-107 -387q54 23 96 71t83 132
q4 5 13.5 2.5t18.5 -10.5t6 -14q-53 -106 -105.5 -161.5t-129.5 -88.5q-41 -139 -83.5 -188.5t-131.5 -49.5zM122 -214q36 8 56 61q4 11 10 32.5t7 26.5q-59 -23 -86 -56q-20 -23 -16.5 -45.5t29.5 -18.5z" />
    <glyph glyph-name="Ydieresis" unicode="&#x178;" horiz-adv-x="901" 
d="M636 758q-30 0 -45 18t-14 42q4 24 22 41.5t47 18.5q29 0 44.5 -18.5t12.5 -42.5q-2 -23 -20.5 -41t-46.5 -18zM799 758q-30 0 -44.5 18.5t-11.5 41.5q2 23 19.5 41t46.5 19q30 0 45 -18t14 -42q-2 -24 -20.5 -42t-48.5 -18zM911 213q4 5 13.5 2.5t18.5 -10.5t6 -14
q-52 -102 -110.5 -159t-139.5 -89q-14 -56 -29 -98q-28 -72 -72.5 -106.5t-124.5 -34.5q-57 -1 -89.5 30t-25.5 80q5 30 21 54t35.5 39.5t51.5 29.5t55.5 21t60.5 17q6 18 20.5 67t18.5 61q-72 -96 -167 -96q-93 0 -122.5 70.5t4.5 194.5q6 24 91 298q-22 -26 -57.5 -43.5
t-64 -25t-52.5 -23t-30 -39.5q-12 -52 30 -65q8 -3 8.5 -18t-8 -29t-21.5 -15q-69 -4 -110.5 35.5t-28.5 97.5q9 41 39.5 66t73 38t87.5 25t93 37t79 63q20 14 52 15.5t55 -6.5t23 -19q-92 -284 -133 -428q-43 -149 29 -150q50 0 97.5 51t77.5 134l116 389q18 20 74 11.5
t57 -31.5q-28 -77 -92.5 -289l-101.5 -341q118 49 192 203zM569 -90q-34 -12 -64 -35t-39 -44q-8 -21 -3 -34t22 -13q38 2 62 58q13 33 22 68z" />
    <glyph glyph-name="Zacute" unicode="&#x179;" horiz-adv-x="713" 
d="M501 880q15 22 60 13q35 -6 36 -22q0 -5 -4 -9l-82 -96q-14 -16 -49 -9q-28 7 -27 23q0 5 4 11q11 17 34 49t28 40zM643 681q45 18 81 -0.5t37 -50.5q-54 -73 -156.5 -257.5t-168.5 -269.5q10 -9 38 -37.5t39 -38.5l35.5 -31t39 -28t36 -15.5t41 -6.5t40.5 10
q23 -6 29 -46t-16 -59q-33 -11 -66 -11t-60.5 7t-57 24t-51.5 34t-48.5 43.5t-43 46l-39.5 47.5q-36 -27 -66.5 -38t-74.5 -12q-73 -2 -118.5 25.5t-42.5 86.5q2 51 45.5 83t106.5 31q81 -1 153 -52q38 53 118.5 208.5t127.5 225.5q-32 -16 -74.5 -14.5t-76.5 11.5
t-73.5 14.5t-66.5 -5.5q-41 -14 -47 -49q-5 -31 21 -42q26 -10 65 12q17 9 33 -17t5 -37q-58 -55 -136 -44t-104 72q-23 55 6.5 114.5t107.5 78.5q50 12 105.5 5t93.5 -20.5t89.5 -16t93.5 18.5zM223 141q-30 1 -45.5 -17.5t-4.5 -37t46 -18.5q44 2 78 40q-31 33 -74 33z
" />
    <glyph glyph-name="zacute" unicode="&#x17a;" horiz-adv-x="482" 
d="M301 611q15 22 60 13q35 -6 36 -22q0 -5 -4 -9l-82 -96q-14 -16 -49 -9q-28 7 -27 23q0 5 4 11q11 17 34 49t28 40zM170 436q42 -62 147 -39q24 7 46 7t36 -6.5t23.5 -16.5t9 -22.5t-7.5 -24.5q-101 -155 -194 -250q10 -1 44.5 -10t58.5 -7q91 6 159 147q4 5 13.5 2
t18 -11t6.5 -13q-44 -95 -108 -151t-134 -58q-32 -1 -73.5 12t-70.5 11q-60 -44 -102 -19q-29 18 -22 52q8 39 61 55q128 129 183 220q-36 -7 -77.5 8.5t-62.5 46.5q-30 -93 -91 -207q-5 -6 -15 -4t-18.5 10t-5.5 15q68 137 94 225q-37 57 -4 98q23 28 54 23q37 -7 37 -57
q0 -16 -5 -36z" />
    <glyph glyph-name="Zdotaccent" unicode="&#x17b;" horiz-adv-x="713" 
d="M493 761q-32 0 -46.5 18.5t-11.5 42.5q4 25 23.5 43t49.5 19q29 1 44.5 -18t12.5 -45q-4 -23 -23.5 -41.5t-48.5 -18.5zM643 681q45 18 81 -0.5t37 -50.5q-54 -73 -156.5 -257.5t-168.5 -269.5q10 -9 38 -37.5t39 -38.5l35.5 -31t39 -28t36 -15.5t41 -6.5t40.5 10
q23 -6 29 -46t-16 -59q-33 -11 -66 -11t-60.5 7t-57 24t-51.5 34t-48.5 43.5t-43 46l-39.5 47.5q-36 -27 -66.5 -38t-74.5 -12q-73 -2 -118.5 25.5t-42.5 86.5q2 51 45.5 83t106.5 31q81 -1 153 -52q38 53 118.5 208.5t127.5 225.5q-32 -16 -74.5 -14.5t-76.5 11.5
t-73.5 14.5t-66.5 -5.5q-41 -14 -47 -49q-5 -31 21 -42q26 -10 65 12q17 9 33 -17t5 -37q-58 -55 -136 -44t-104 72q-23 55 6.5 114.5t107.5 78.5q50 12 105.5 5t93.5 -20.5t89.5 -16t93.5 18.5zM223 141q-30 1 -45.5 -17.5t-4.5 -37t46 -18.5q44 2 78 40q-31 33 -74 33z
" />
    <glyph glyph-name="zdotaccent" unicode="&#x17c;" horiz-adv-x="482" 
d="M293 492q-32 0 -46.5 18.5t-11.5 42.5q4 25 23.5 43t49.5 19q29 1 44.5 -18t12.5 -45q-4 -23 -23.5 -41.5t-48.5 -18.5zM170 436q42 -62 147 -39q24 7 46 7t36 -6.5t23.5 -16.5t9 -22.5t-7.5 -24.5q-101 -155 -194 -250q10 -1 44.5 -10t58.5 -7q91 6 159 147q4 5 13.5 2
t18 -11t6.5 -13q-44 -95 -108 -151t-134 -58q-32 -1 -73.5 12t-70.5 11q-60 -44 -102 -19q-29 18 -22 52q8 39 61 55q128 129 183 220q-36 -7 -77.5 8.5t-62.5 46.5q-30 -93 -91 -207q-5 -6 -15 -4t-18.5 10t-5.5 15q68 137 94 225q-37 57 -4 98q23 28 54 23q37 -7 37 -57
q0 -16 -5 -36z" />
    <glyph glyph-name="Zcaron" unicode="&#x17d;" horiz-adv-x="713" 
d="M524 765q-15 -10 -39 -9.5t-36 9.5q-15 12 -90 96q-14 15 17 27q36 13 55 0q3 -1 4 -3l54 -61l84 64q19 14 50 -1q28 -15 18 -33q-2 -4 -6 -8q-51 -42 -111 -81zM643 681q45 18 81 -0.5t37 -50.5q-54 -73 -156.5 -257.5t-168.5 -269.5q10 -9 38 -37.5t39 -38.5l35.5 -31
t39 -28t36 -15.5t41 -6.5t40.5 10q23 -6 29 -46t-16 -59q-33 -11 -66 -11t-60.5 7t-57 24t-51.5 34t-48.5 43.5t-43 46l-39.5 47.5q-36 -27 -66.5 -38t-74.5 -12q-73 -2 -118.5 25.5t-42.5 86.5q2 51 45.5 83t106.5 31q81 -1 153 -52q38 53 118.5 208.5t127.5 225.5
q-32 -16 -74.5 -14.5t-76.5 11.5t-73.5 14.5t-66.5 -5.5q-41 -14 -47 -49q-5 -31 21 -42q26 -10 65 12q17 9 33 -17t5 -37q-58 -55 -136 -44t-104 72q-23 55 6.5 114.5t107.5 78.5q50 12 105.5 5t93.5 -20.5t89.5 -16t93.5 18.5zM223 141q-30 1 -45.5 -17.5t-4.5 -37
t46 -18.5q44 2 78 40q-31 33 -74 33z" />
    <glyph glyph-name="zcaron" unicode="&#x17e;" horiz-adv-x="482" 
d="M324 496q-15 -10 -39 -9.5t-36 9.5q-15 12 -90 96q-14 15 17 27q36 13 55 0q3 -1 4 -3l54 -61l84 64q19 14 50 -1q28 -15 18 -33q-2 -4 -6 -8q-51 -42 -111 -81zM170 436q42 -62 147 -39q24 7 46 7t36 -6.5t23.5 -16.5t9 -22.5t-7.5 -24.5q-101 -155 -194 -250
q10 -1 44.5 -10t58.5 -7q91 6 159 147q4 5 13.5 2t18 -11t6.5 -13q-44 -95 -108 -151t-134 -58q-32 -1 -73.5 12t-70.5 11q-60 -44 -102 -19q-29 18 -22 52q8 39 61 55q128 129 183 220q-36 -7 -77.5 8.5t-62.5 46.5q-30 -93 -91 -207q-5 -6 -15 -4t-18.5 10t-5.5 15
q68 137 94 225q-37 57 -4 98q23 28 54 23q37 -7 37 -57q0 -16 -5 -36z" />
    <glyph glyph-name="florin" unicode="&#x192;" horiz-adv-x="697" 
d="M673 604q8 -10 -1.5 -29t-27 -29t-27.5 0q-31 31 -72 31q-35 1 -56 -26t-35 -85l-28 -123h91q15 0 19.5 -18.5t-4.5 -37.5t-28 -19h-97l-91 -383q-25 -107 -65.5 -160t-114.5 -54q-91 -3 -132 62q-13 23 15.5 50.5t47.5 9.5q23 -27 62 -25q27 1 44 36t33 104l85 360h-74
q-15 0 -19 19t5.5 38t27.5 19h79l31 135q21 89 62.5 135t108.5 50q45 4 90 -11.5t71 -48.5z" />
    <glyph glyph-name="Scommaaccent" unicode="&#x218;" horiz-adv-x="603" 
d="M588 517q-10 -24 -55.5 -22.5t-51.5 25.5q9 92 -68 94q-27 -1 -48.5 -20t-24.5 -62q-3 -34 17 -68t50 -64l60 -62t50 -73.5t17 -86.5q-6 -92 -72.5 -140t-175.5 -47q-71 1 -118.5 27t-66 68t-19 90.5t16.5 98.5q15 19 60.5 12.5t47.5 -29.5q-21 -84 7 -135t82 -53
q47 -1 74.5 26.5t30.5 76.5q2 37 -18.5 73.5t-51.5 66.5l-61 62t-49.5 74.5t-14.5 89.5q8 74 62 115.5t146 40.5q96 -2 142 -50t32 -128zM237 -103q7 23 49 25q38 1 44 -18q1 -5 -1 -11l-51 -130q-7 -20 -41 -21.5t-38 18.5q-1 5 1 11q5 18 18.5 63t18.5 63z" />
    <glyph glyph-name="scommaaccent" unicode="&#x219;" horiz-adv-x="465" 
d="M168 -12q-46 0 -83 27.5t-43 77.5q7 21 32.5 31.5t40.5 1.5q-1 -24 13.5 -40.5t36.5 -16.5q24 0 38 18q-19 18 -12.5 43.5t29.5 27.5q-1 41 -20 119t-23 105q-64 -64 -144 -220q-5 -6 -15 -4t-18.5 10t-4.5 15q77 162 166 247q48 47 104 42q43 -3 49 -33q4 -22 -16 -49
q6 -31 15.5 -67.5t16.5 -59.5t13.5 -54.5t6 -52.5t-5.5 -55q81 4 131 113q4 5 13.5 2t18 -11t6.5 -13q-69 -143 -192 -141q-48 -63 -153 -63zM134 -101q7 23 49 25q38 1 44 -18q1 -5 -1 -11l-51 -130q-7 -20 -41 -21.5t-38 18.5q-1 5 1 11q5 18 18.5 63t18.5 63z" />
    <glyph glyph-name="uni021A" unicode="&#x21a;" horiz-adv-x="716" 
d="M230 675q59 23 125 17.5t111.5 -21.5t106.5 -31.5t110 -11.5q46 4 65.5 25t17.5 62q10 14 34 16.5t37 -8.5q25 -42 15 -90t-40 -70q-43 -33 -103 -38t-114 6l-74 -253q-46 -141 -74 -187q-51 -86 -148 -98q-18 -2 -38 -2q-47 0 -83 15t-54 40t-24.5 53.5t-0.5 57.5
q15 69 81 93q25 4 50 -15.5t21 -38.5q-23 -26 -27 -56.5t10.5 -50.5t40.5 -19q34 1 58 52.5t54 154.5q82 286 85 294q-128 48 -174 25q-40 -17 -41 -53q-1 -30 26 -38q24 -7 57 14q16 1 28 -15.5t11 -33.5q-35 -41 -83 -52.5t-90 6.5t-63 58q-15 34 -14 70.5t28 71.5t73 51z
M253 -106q7 23 49 25q38 1 44 -18q1 -5 -1 -11l-51 -130q-7 -20 -41 -21.5t-38 18.5q-1 5 1 11q5 18 18.5 63t18.5 63z" />
    <glyph glyph-name="uni021B" unicode="&#x21b;" horiz-adv-x="321" 
d="M142 -9q-44 0 -74 14t-43.5 43t-18.5 60.5t1 79t14 86t22 93.5h-28q-14 8 -8.5 39.5t20.5 35.5h37q46 148 74 226q13 18 69 10.5t60 -31.5q-30 -87 -65 -205h75q15 -13 10 -41t-18 -34h-87q-31 -105 -39 -143q-36 -151 23 -155q39 -1 85 35.5t80 109.5q4 5 13.5 2.5
t18.5 -11t6 -14.5q-90 -199 -227 -200zM70 -104q7 23 49 25q38 1 44 -18q1 -5 -1 -11l-51 -130q-7 -20 -41 -21.5t-38 18.5q-1 5 1 11q5 18 18.5 63t18.5 63z" />
    <glyph glyph-name="circumflex" unicode="&#x2c6;" horiz-adv-x="357" 
d="M170 854q15 10 39 9.5t36 -9.5q15 -12 90 -96q14 -15 -18 -26q-36 -13 -56 -1q-2 1 -4 3l-57 59l-79 -62q-19 -15 -50 0q-29 15 -19 34q3 4 7 8q40 35 111 81z" />
    <glyph glyph-name="caron" unicode="&#x2c7;" horiz-adv-x="357" 
d="M212 734q-15 -10 -39 -9.5t-36 9.5q-15 12 -90 96q-14 15 17 27q36 13 55 0q3 -1 4 -3l54 -61l84 64q19 14 50 -1q28 -15 18 -33q-2 -4 -6 -8q-51 -42 -111 -81z" />
    <glyph glyph-name="breve" unicode="&#x2d8;" horiz-adv-x="337" 
d="M156 724q-55 -1 -91.5 31t-32.5 88q1 17 31 18.5t31 -13.5q8 -52 63 -52q59 0 84 53q5 11 22 13t31 -6t11 -19q-12 -50 -51.5 -81t-97.5 -32z" />
    <glyph glyph-name="dotaccent" unicode="&#x2d9;" horiz-adv-x="199" 
d="M96 731q-32 0 -47 19t-12 43q4 25 23.5 42.5t49.5 18.5q29 1 44.5 -18t12.5 -44q-3 -24 -22.5 -42.5t-48.5 -18.5z" />
    <glyph glyph-name="ring" unicode="&#x2da;" horiz-adv-x="260" 
d="M140 880q44 -1 68.5 -25.5t19.5 -63.5q-5 -38 -35.5 -61t-72.5 -23q-43 0 -67.5 25t-19.5 64q4 37 34.5 60.5t72.5 23.5zM136 826q-31 0 -38 -33q-3 -14 4 -23t22 -9q33 0 39 32q3 15 -4.5 24t-22.5 9z" />
    <glyph glyph-name="ogonek" unicode="&#x2db;" horiz-adv-x="292" 
d="M237 -152q-21 -37 -56.5 -55.5t-67.5 -15.5t-55 28t-20 67q2 43 33 89.5t64 76.5t83 68q16 11 31 -4t-1 -26q-54 -40 -85.5 -95.5t-30.5 -94.5q1 -20 9.5 -29t25.5 -3t38 29q10 8 18.5 3t13 -18t0.5 -20z" />
    <glyph glyph-name="tilde" unicode="&#x2dc;" horiz-adv-x="362" 
d="M218 734q-22 1 -55.5 18t-47.5 17q-25 1 -47 -27q-5 -6 -18.5 0t-23.5 18t-6 21q13 27 38.5 46.5t58.5 19.5q23 -1 55 -18t48 -17q27 0 48 25q5 6 17.5 -0.5t20.5 -19t4 -20.5q-12 -27 -36.5 -45.5t-55.5 -17.5z" />
    <glyph glyph-name="hungarumlaut" unicode="&#x2dd;" horiz-adv-x="341" 
d="M78 842q9 23 52 23q36 1 40 -16q1 -5 -2 -10l-53 -96q-10 -19 -43 -19q-29 0 -29 20q0 4 2 9zM206 842q9 23 52 23q36 1 40 -16q1 -5 -2 -10l-53 -96q-11 -20 -44 -19q-30 0 -29 20q0 4 2 8q33 86 34 90z" />
    <glyph glyph-name="gravecomb" unicode="&#x300;" horiz-adv-x="0" 
d="M-294 849q5 -8 28 -40t34 -49q15 -21 -15 -32q-31 -10 -50 3l-4 4l-82 96q-14 16 17 28q37 13 63 -2q6 -3 9 -8z" />
    <glyph glyph-name="acutecomb" unicode="&#x301;" horiz-adv-x="0" 
d="M-262 849q15 22 60 13q35 -6 36 -22q0 -5 -4 -9l-82 -96q-14 -16 -49 -9q-28 7 -27 23q0 5 4 11q11 17 34 49t28 40z" />
    <glyph glyph-name="uni0302" unicode="&#x302;" horiz-adv-x="0" 
d="M-299 854q15 10 39 9.5t36 -9.5q10 -8 28 -27l38.5 -42t24.5 -27q14 -15 -18 -26q-37 -13 -56 -1q-3 1 -4 3l-57 59l-80 -62q-19 -15 -50 0q-28 15 -18 34q2 4 6 8q30 26 111 81z" />
    <glyph glyph-name="tildecomb" unicode="&#x303;" horiz-adv-x="0" 
d="M-228 734q-22 1 -55.5 18t-47.5 17q-25 1 -47 -27q-5 -6 -18.5 0t-23.5 18t-6 21q13 27 38.5 46.5t58.5 19.5q23 -1 55 -18t48 -17q27 0 48 25q5 6 17.5 -0.5t20.5 -19t4 -20.5q-12 -27 -36.5 -45.5t-55.5 -17.5z" />
    <glyph glyph-name="uni0304" unicode="&#x304;" horiz-adv-x="0" 
d="M-385 744q-15 0 -19 18.5t5 36t24 17.5q137 -2 212 -1q15 0 18 -17.5t-5.5 -35.5t-21.5 -18h-213z" />
    <glyph glyph-name="uni0306" unicode="&#x306;" horiz-adv-x="0" 
d="M-272 724q-55 -1 -91.5 31t-32.5 88q1 17 31 18.5t32 -13.5q6 -52 62 -52q61 0 84 53q5 11 22 13t31 -6t11 -19q-12 -50 -51 -81t-98 -32z" />
    <glyph glyph-name="uni0307" unicode="&#x307;" horiz-adv-x="0" 
d="M-279 730q-32 0 -46.5 18.5t-11.5 42.5q4 25 23.5 43t49.5 19q29 1 44.5 -18t12.5 -45q-4 -23 -23.5 -41.5t-48.5 -18.5z" />
    <glyph glyph-name="uni0308" unicode="&#x308;" horiz-adv-x="0" 
d="M-351 744q-30 0 -45 18t-14 42q4 24 22 41.5t47 18.5q29 0 44.5 -18.5t12.5 -42.5q-2 -23 -20.5 -41t-46.5 -18zM-188 744q-30 0 -44.5 18.5t-11.5 41.5q2 23 19.5 41t46.5 19q30 0 45 -18t14 -42q-2 -24 -20.5 -42t-48.5 -18z" />
    <glyph glyph-name="uni030A" unicode="&#x30a;" horiz-adv-x="0" 
d="M-265 880q45 -1 69.5 -25.5t18.5 -63.5q-4 -38 -34 -61t-73 -23q-44 0 -68.5 25t-18.5 64q4 37 34 60.5t72 23.5zM-269 826q-30 0 -38 -33q-3 -14 4.5 -23t22.5 -9q33 0 39 32q5 33 -28 33z" />
    <glyph glyph-name="uni030B" unicode="&#x30b;" horiz-adv-x="0" 
d="M-342 842q9 23 50 23q37 1 41 -16q1 -5 -2 -10l-52 -96q-10 -19 -42 -19q-31 0 -31 20q0 4 2 9zM-214 842q9 23 52 23q36 1 40 -16q1 -5 -2 -10l-53 -96q-11 -20 -44 -19q-30 0 -29 20q0 4 2 8z" />
    <glyph glyph-name="uni030C" unicode="&#x30c;" horiz-adv-x="0" 
d="M-244 734q-15 -10 -39 -9.5t-36 9.5q-15 12 -90 96q-14 15 17 27q36 13 55 0q3 -1 4 -3l54 -61l84 64q19 14 50 -1q28 -15 18 -33q-2 -4 -6 -8q-51 -42 -111 -81z" />
    <glyph glyph-name="uni0326" unicode="&#x326;" horiz-adv-x="0" 
d="M-465 -104q7 23 49 25q38 1 44 -18q1 -5 -1 -11l-51 -130q-7 -20 -41 -21.5t-38 18.5q-1 5 1 11q5 18 18.5 63t18.5 63z" />
    <glyph glyph-name="uni0327" unicode="&#x327;" horiz-adv-x="0" 
d="M-407 43l65 -7l-61 -83q45 -6 62.5 -38t-0.5 -66q-21 -46 -75.5 -59.5t-120.5 27.5q-5 6 -2.5 17.5t11.5 21t16 5.5q29 -18 55 -18t38 24q12 17 3.5 32.5t-40.5 14.5q-14 0 -18 8.5t4 21.5z" />
    <glyph glyph-name="uni0328" unicode="&#x328;" horiz-adv-x="0" 
d="M-149 -152q-21 -37 -56.5 -55.5t-67.5 -15.5t-54.5 28t-19.5 67q2 43 33 89.5t63.5 76t82.5 68.5q17 12 32 -5q14 -15 -1 -25q-54 -40 -86 -95.5t-31 -94.5q1 -20 10 -29t25.5 -3t37.5 29q10 8 18.5 3t13 -18t0.5 -20z" />
    <glyph glyph-name="uni0401" unicode="&#x401;" horiz-adv-x="582" 
d="M378 756q-30 0 -45 18t-14 42q4 24 22 41.5t47 18.5q29 0 44.5 -18.5t12.5 -42.5q-2 -23 -20.5 -41t-46.5 -18zM541 756q-30 0 -44.5 18.5t-11.5 41.5q2 23 19.5 41t46.5 19q30 0 45 -18t14 -42q-2 -24 -20.5 -42t-48.5 -18zM280 706q2 -36 12 -60q38 32 95.5 43.5t109 2
t87.5 -42t34 -81.5q-2 -58 -44.5 -89.5t-113.5 -29.5q-34 1 -68 16t-55 37q-4 -44 28.5 -80.5t92.5 -44.5q14 -11 6.5 -41.5t-25.5 -33.5q-42 6 -84.5 -2.5t-78 -37t-42.5 -74.5q-7 -41 13.5 -68.5t50 -37t64.5 -10.5q72 -2 133 34.5t97 107.5q5 6 14 3t17.5 -11.5
t6.5 -13.5q-46 -100 -124 -149.5t-176 -51.5q-36 -1 -70.5 5.5t-66.5 22t-54.5 38t-33.5 57.5t-5 77q11 80 70.5 128t134.5 52q-42 17 -63.5 59.5t-18.5 90t25 81.5q-20 43 -20 102q0 16 25 18t27 -16zM357 568q44 -44 94 -42q24 -1 37.5 11t14.5 32q1 26 -27 37t-64 1
t-55 -39z" />
    <glyph glyph-name="uni0402" unicode="&#x402;" horiz-adv-x="803" 
d="M416 -257q-99 -3 -152 52q-10 16 -1.5 35t29.5 31t35 1q32 -26 80 -24q111 7 174 273q9 37 13.5 58.5t9 48.5t4.5 42.5t-3.5 30.5t-12 22t-22.5 8q-29 3 -67.5 -28t-68.5 -81l-23 -89.5t-31 -113.5q-4 -15 -59 -18q-65 -3 -73 19q-1 4 0 8l49 180.5l59 215t47 157.5
q-48 23 -79 31.5t-59 1.5q-39 -6 -45 -41q-5 -25 13 -40.5t45 -4.5q19 8 31.5 -21t1.5 -37q-36 -26 -78 -27.5t-74 17t-50.5 54t-10.5 77.5q10 52 57 82.5t114 32.5q70 2 186 -46t182 -49q46 0 65.5 18.5t19.5 59.5q2 14 33.5 17.5t39.5 -9.5q21 -46 5.5 -90t-48.5 -65
q-84 -54 -228 -7q-14 -43 -52 -180q32 30 75 49t82 16q73 -5 90.5 -80t-12.5 -220q-33 -166 -108 -263.5t-183 -103.5z" />
    <glyph glyph-name="uni0403" unicode="&#x403;" horiz-adv-x="588" 
d="M437 880q15 22 60 13q35 -6 36 -22q0 -5 -4 -9l-82 -96q-14 -16 -49 -9q-28 7 -27 23q0 5 4 11q11 17 34 49t28 40zM598 214q4 6 13.5 3t18 -11.5t6.5 -13.5q-95 -194 -300 -202q-95 -4 -157 36.5t-59 126.5q3 84 54 140.5t145 108.5l50.5 30t42 29.5t34.5 37t16 40.5
q6 37 -12 57t-53 22q-36 2 -69.5 -19t-52.5 -65q-7 -15 -29.5 -20t-42.5 3.5t-20 27.5q13 80 81 119t154 36q81 -3 129.5 -46t44.5 -111q-3 -39 -16.5 -70.5t-43 -60t-57.5 -48.5t-78 -50q-38 -23 -54.5 -34t-40.5 -32t-34.5 -42.5t-12.5 -48.5q-3 -47 27.5 -66.5
t82.5 -20.5q66 -2 132.5 36.5t100.5 107.5z" />
    <glyph glyph-name="uni0404" unicode="&#x404;" horiz-adv-x="580" 
d="M590 214q4 6 13.5 3t18 -11.5t6.5 -13.5q-96 -201 -301 -202q-121 0 -190 76t-62 217q6 111 60 207.5t145 153t195 49.5q77 -5 109 -49t12 -114q-7 -16 -45 -15.5t-42 19.5q18 73 -55 77q-86 4 -151.5 -71.5t-87.5 -181.5q103 -7 211 1q16 -2 16.5 -32.5t-12.5 -37.5
q-90 -12 -223 -4q-5 -95 29.5 -151.5t106.5 -61.5q76 -6 144 30t103 112z" />
    <glyph glyph-name="uni0405" unicode="&#x405;" horiz-adv-x="603" 
d="M588 517q-10 -24 -55.5 -22.5t-51.5 25.5q9 92 -68 94q-27 -1 -48.5 -20t-24.5 -62q-3 -34 17 -68t50 -64l60 -62t50 -73.5t17 -86.5q-6 -92 -72.5 -140t-175.5 -47q-71 1 -118.5 27t-66 68t-19 90.5t16.5 98.5q15 19 60.5 12.5t47.5 -29.5q-21 -84 7 -135t82 -53
q47 -1 74.5 26.5t30.5 76.5q2 37 -18.5 73.5t-51.5 66.5l-61 62t-49.5 74.5t-14.5 89.5q8 74 62 115.5t146 40.5q96 -2 142 -50t32 -128z" />
    <glyph glyph-name="uni0406" unicode="&#x406;" horiz-adv-x="558" 
d="M475 670q20 21 73.5 19.5t62.5 -22.5q-22 -62 -125 -389l-20 -63.5t-19 -54t-22 -50.5t-24.5 -40t-31 -35t-37 -23.5t-47.5 -17t-58 -4.5q-54 0 -93.5 21.5t-54.5 55t-15 69.5t22.5 68t61.5 46q22 4 47.5 -15t23.5 -40q-23 -26 -27.5 -55.5t9 -49t39.5 -19.5q10 0 18.5 4
t16.5 13t14.5 18t14 25.5t12.5 29t12 35.5l11.5 37.5l12.5 42t13 42.5q71 241 75 253q-23 -26 -58 -43.5t-63 -25t-52 -23.5t-30 -40q-15 -55 32 -65q10 -11 2 -35t-25 -28q-68 -6 -110 35t-30 99q8 41 38 66t72.5 38.5t87.5 25t92.5 35t78.5 60.5z" />
    <glyph glyph-name="uni0407" unicode="&#x407;" horiz-adv-x="558" 
d="M488 756q-30 0 -45 18t-14 42q4 24 22 41.5t47 18.5q29 0 44.5 -18.5t12.5 -42.5q-2 -23 -20.5 -41t-46.5 -18zM651 756q-30 0 -44.5 18.5t-11.5 41.5q2 23 19.5 41t46.5 19q30 0 45 -18t14 -42q-2 -24 -20.5 -42t-48.5 -18zM475 670q20 21 73.5 19.5t62.5 -22.5
q-22 -62 -125 -389l-20 -63.5t-19 -54t-22 -50.5t-24.5 -40t-31 -35t-37 -23.5t-47.5 -17t-58 -4.5q-54 0 -93.5 21.5t-54.5 55t-15 69.5t22.5 68t61.5 46q22 4 47.5 -15t23.5 -40q-23 -26 -27.5 -55.5t9 -49t39.5 -19.5q10 0 18.5 4t16.5 13t14.5 18t14 25.5t12.5 29
t12 35.5l11.5 37.5l12.5 42t13 42.5q71 241 75 253q-23 -26 -58 -43.5t-63 -25t-52 -23.5t-30 -40q-15 -55 32 -65q10 -11 2 -35t-25 -28q-68 -6 -110 35t-30 99q8 41 38 66t72.5 38.5t87.5 25t92.5 35t78.5 60.5z" />
    <glyph glyph-name="uni0408" unicode="&#x408;" horiz-adv-x="596" 
d="M164 -295q-45 0 -76 17.5t-42.5 45t-6 60.5t28.5 62q43 67 214 107q96 351 164 574q-28 -33 -75.5 -52l-83 -34t-43.5 -44q-15 -55 30 -67q7 -4 7 -18t-10 -29.5t-23 -15.5q-68 -4 -108.5 38t-25.5 99q10 40 41 64.5t73 37t86.5 24t91.5 36t77 62.5q23 21 75.5 18
t56.5 -24q-108 -322 -197 -641q115 43 189 189q4 4 13.5 1.5t18.5 -10.5t6 -14q-48 -98 -107.5 -149.5t-138.5 -82.5q-33 -117 -62 -164q-55 -90 -173 -90zM168 -215q17 -2 37 13.5t32 43.5q17 38 25 82q-97 -31 -118 -81q-9 -26 -1.5 -41.5t25.5 -16.5z" />
    <glyph glyph-name="uni0409" unicode="&#x409;" horiz-adv-x="1052" 
d="M836 494q94 -2 145.5 -78t28.5 -191q-22 -109 -92.5 -171.5t-179.5 -63.5q-185 -3 -208 188q-15 131 25 323h-3q-33 -127 -74 -227q-57 -141 -124.5 -209.5t-147.5 -73.5q-82 -5 -132 34t-45 108q2 39 23 70t55 46q23 8 51.5 -14t23.5 -40q-24 -29 -28.5 -59.5t9 -49
t37.5 -17.5q62 3 133 136.5t156 367.5q-29 -26 -81 -44.5t-89.5 -37t-45.5 -49.5q-14 -51 28 -67q6 -5 6.5 -17.5t-8.5 -27t-22 -16.5q-68 -3 -109 40.5t-24 101.5q12 40 44 65.5t75.5 38.5t89.5 24t95 32t81 52q14 16 46 19.5t58 -5.5t26 -24q-28 -173 -33 -285
q36 56 92.5 89t117.5 32zM885 235q15 72 -5.5 118.5t-73.5 49.5q-60 5 -109 -43.5t-60 -131.5q1 -72 27.5 -112t81.5 -38q53 1 88.5 46t50.5 111z" />
    <glyph glyph-name="uni040A" unicode="&#x40a;" horiz-adv-x="1215" 
d="M290 -9q-97 0 -133 47.5t-22 111.5q16 81 94.5 129t196.5 42q59 186 88 267q-23 -23 -56 -30t-62 -2.5t-62 4t-57 -10.5q-48 -17 -48 -54q0 -23 23.5 -33t55.5 9q16 7 30 -16t7 -35q-48 -51 -116.5 -46t-101.5 51q-38 51 -21 114q19 74 114 95q49 13 95 11.5t81 -10
t73.5 0.5t72.5 43q8 8 24 12t34 3t35 -4.5t27.5 -10t9.5 -13.5q-33 -96 -110 -349q75 -2 135 28q36 135 99 332q9 12 40.5 14.5t60 -7t29.5 -27.5q-32 -92 -81 -251q68 59 151 59q95 -1 139 -63.5t19 -174.5q-28 -122 -118.5 -182t-216.5 -54q-49 2 -90.5 13.5t-71.5 31
t-42.5 29.5t-30.5 27q-11 21 9.5 49t38.5 21q85 -82 186 -89q72 -5 127 38t80 124q21 70 6 110t-66 42q-45 1 -83.5 -22t-64.5 -64q-21 -46 -47 -140q-13 -9 -36.5 -8.5t-47 14.5t-25.5 34q8 36 16 66q-61 -25 -138 -23q-16 -47 -26.5 -75t-26.5 -61t-32.5 -51.5t-40 -35
t-54 -23.5t-69.5 -7zM299 71q34 -1 58 41t47 126q-111 -4 -139 -91q-11 -26 -2 -51t36 -25z" />
    <glyph glyph-name="uni040B" unicode="&#x40b;" horiz-adv-x="798" 
d="M629 -9q-64 -3 -85 27.5t-13 82.5q4 29 47 178q9 21 4.5 38.5t-27.5 15.5q-19 -1 -50 -21.5t-55 -49.5l-66 -253q-4 -15 -61 -17q-67 -3 -75 18q-1 4 0 8q19 65 73.5 265.5t81.5 287.5q-32 15 -50 21.5t-45.5 12.5t-41.5 -1q-40 -6 -46 -43q-2 -25 15 -39.5t44 -3.5
q19 8 31.5 -20.5t1.5 -37.5q-34 -26 -76 -27t-75.5 17t-52 54t-9.5 77q12 53 58 83t112 32q70 2 186.5 -46t181.5 -49q46 0 66.5 18.5t18.5 59.5q4 14 34 17.5t40 -10.5q21 -45 5.5 -89t-48.5 -65q-84 -54 -229 -7q-16 -49 -50 -179q90 81 161 81q61 0 80.5 -38.5
t-0.5 -98.5q-6 -22 -19 -62t-19.5 -62.5t-11.5 -47.5t-0.5 -36.5t18.5 -10.5q27 1 64 44t61 99q4 5 14 2.5t19 -11t6 -13.5q-97 -194 -218 -201z" />
    <glyph glyph-name="uni040C" unicode="&#x40c;" horiz-adv-x="862" 
d="M707 880q15 22 60 13q35 -6 36 -22q0 -5 -4 -9l-82 -96q-14 -16 -49 -9q-28 7 -27 23q0 5 4 11q11 17 34 49t28 40zM752 674q21 21 72 14.5t56 -25.5q-36 -117 -102.5 -206.5t-157.5 -122.5q50 -24 68 -100q6 -23 12.5 -60t12 -64.5t15 -57t26.5 -50.5t42 -32
q15 -22 -11.5 -58.5t-68.5 -33.5q-36 9 -61.5 33.5t-38.5 64t-19.5 72t-12 81t-9.5 67.5q-9 46 -26.5 69t-50.5 25q-19 -68 -32.5 -107.5t-34.5 -81t-45.5 -62.5t-61 -34.5t-85.5 -13.5q-54 -1 -93 20.5t-54 54.5t-15 68.5t22 67.5t60 48q21 4 47.5 -13.5t25.5 -40.5
q-23 -26 -28 -56t9 -50t41 -20q31 1 51.5 38t43.5 113l53.5 182l49.5 168q-23 -25 -58.5 -43t-63.5 -26.5t-51.5 -24.5t-29.5 -40q-13 -51 31 -65q5 -4 6 -16.5t-7 -27t-21 -17.5q-68 -6 -110.5 36.5t-28.5 100.5q10 40 41 65t73.5 38t87 24.5t91.5 35.5t77 60
q15 22 73 19.5t60 -23.5q-36 -98 -92 -280q27 10 51 26t41.5 31t35 38.5t27.5 39.5t22.5 43t17.5 39t15 38.5z" />
    <glyph glyph-name="uni040D" unicode="&#x40d;" horiz-adv-x="918" 
d="M681 879q5 -8 28 -40t34 -49q15 -21 -15 -32q-31 -10 -50 3l-4 4l-82 96q-14 16 17 28q37 13 63 -2q6 -3 9 -8zM464 673q20 20 75 16.5t56 -25.5q-78 -238 -138 -444q-43 -148 33 -148q48 0 96.5 53t72.5 130l120 402q23 22 76 12.5t54 -35.5q-50 -135 -138 -459
q-25 -101 13 -102q33 -2 73 36.5t71 104.5q4 5 13.5 2t18 -11t6.5 -13q-35 -75 -95.5 -137.5t-132.5 -62.5q-41 0 -67 28.5t-25 79.5q-36 -50 -90 -80t-103 -29q-193 0 -123 265q0 1 97 314q-22 -26 -57.5 -43.5t-63.5 -25t-52.5 -23t-29.5 -39.5q-12 -51 31 -65
q12 -7 3.5 -34t-25.5 -28q-69 -6 -111.5 35.5t-27.5 99.5q10 40 40.5 64.5t72.5 38t86.5 25.5t92 36.5t78.5 61.5z" />
    <glyph glyph-name="uni040E" unicode="&#x40e;" horiz-adv-x="852" 
d="M788 863q8 7 19 -3t15 -23.5t-1 -23.5q-29 -39 -86.5 -57.5t-108 -5t-59.5 55.5q-3 15 9.5 32.5t26.5 22.5t20 -1q13 -25 47 -29.5t67 6t51 26.5zM495 -9q-112 -1 -183 71q-16 17 13.5 50t46.5 19q62 -54 116 -53q64 2 101 70q28 45 58 152q-74 -101 -171 -110
q-57 -5 -91 21t-38 80q-3 36 5 85.5t18 86.5t30 104q-22 -23 -57 -39t-63.5 -24t-52.5 -24.5t-30 -40.5q-12 -51 32 -65q7 -5 7.5 -18.5t-8 -28t-21.5 -15.5q-69 -6 -111.5 34.5t-28.5 98.5q10 41 41 66t73 38t87 25.5t92.5 37.5t78.5 63q12 25 73 19q49 -4 53 -19
q1 -2 0 -4q-63 -191 -79 -284q-12 -46 -5.5 -83t38.5 -34q45 5 103 80t85 163l45 147q5 16 38 16.5t62.5 -12t25.5 -28.5q-81 -295 -123 -411q-43 -125 -102.5 -178.5t-157.5 -55.5z" />
    <glyph glyph-name="uni040F" unicode="&#x40f;" horiz-adv-x="918" 
d="M464 673q20 20 75 16.5t56 -25.5q-78 -238 -138 -444q-43 -148 33 -148q48 0 96.5 53t72.5 130l120 402q23 22 76 12.5t54 -35.5q-50 -135 -138 -459q-25 -101 13 -102q33 -2 73 36.5t71 104.5q4 5 13.5 2t18 -11t6.5 -13q-35 -75 -95.5 -137.5t-132.5 -62.5
q-41 0 -67 28.5t-25 79.5q-36 -50 -90 -80t-103 -29q-193 0 -123 265q0 1 97 314q-22 -26 -57.5 -43.5t-63.5 -25t-52.5 -23t-29.5 -39.5q-12 -51 31 -65q12 -7 3.5 -34t-25.5 -28q-69 -6 -111.5 35.5t-27.5 99.5q10 40 40.5 64.5t72.5 38t86.5 25.5t92 36.5t78.5 61.5z
M453 -105q7 23 49 25q38 1 44 -18q1 -5 -1 -11l-51 -130q-7 -20 -41 -21.5t-38 18.5q-1 5 1 11q5 18 18.5 63t18.5 63z" />
    <glyph glyph-name="uni0410" unicode="&#x410;" horiz-adv-x="867" 
d="M234 -9q-89 -1 -130 40.5t-29 113.5q16 89 104.5 135.5t206.5 37.5l54 124.5t50 93t66 91.5q43 46 99 59t96.5 -10.5t44.5 -73.5q8 -102 -49 -316q103 3 148 47q15 13 27.5 -6t3.5 -29q-60 -68 -189 -78q-33 -133 -43 -201q-17 -23 -70 -23t-67 23q10 70 44 199
q-24 2 -118 11q-24 -58 -46 -97.5t-51.5 -73t-67 -50t-84.5 -17.5zM617 291q57 203 68 280q4 26 -10 30t-33 -21q-55 -71 -129 -278q43 -6 104 -11zM235 71q34 1 59.5 40t60.5 126q-54 2 -95.5 -22t-55.5 -70q-10 -26 -2.5 -50.5t33.5 -23.5z" />
    <glyph glyph-name="uni0411" unicode="&#x411;" horiz-adv-x="858" 
d="M224 -8q-73 -2 -122 26t-46 86q2 55 44 85.5t102 28t117 -35.5q16 41 38 126t45.5 159t51.5 116q-61 21 -91 20q-41 0 -54 -36q-9 -18 -2 -40t27 -31q11 -5 0.5 -32.5t-26.5 -26.5q-68 4 -101.5 48t-15.5 106q28 101 160 104q58 1 122.5 -20.5l126 -43.5t111.5 -22
q44 1 63.5 22t19.5 64q0 15 32.5 16t37.5 -13q31 -76 -13.5 -134t-125.5 -59q-39 -1 -75 9t-96 34q-26 -40 -58 -143q159 20 239.5 -51.5t55.5 -192.5q-16 -72 -68 -116.5t-126 -50.5q-111 -11 -219 65q-55 -66 -154 -67zM567 77q39 5 65 34t33 79q13 83 -41 117.5
t-146 17.5q-37 -134 -61 -201q78 -58 150 -47zM233 72q35 6 58 47q-28 20 -63 23q-38 3 -50 -25q-11 -24 10 -39q16 -11 45 -6z" />
    <glyph glyph-name="uni0412" unicode="&#x412;" horiz-adv-x="872" 
d="M563 694q128 -1 208 -58.5t63 -148.5q-11 -57 -61.5 -92t-107.5 -36q77 -10 117.5 -73t23.5 -135q-19 -77 -76.5 -117.5t-137.5 -41.5q-108 -1 -195 68q-54 -67 -154 -68q-73 -2 -122 26.5t-46 86.5q2 55 44 85t102.5 27.5t116.5 -35.5q13 33 40.5 135.5t56 163
t69.5 80.5q25 10 56 1t33 -23q-26 -23 -68 -149q66 2 115.5 29t62.5 76q15 55 -25.5 85.5t-120.5 31.5q-77 1 -139 -26t-88 -75t1 -112q-4 -22 -30.5 -40t-50.5 -11q-68 46 -65 120t62 128q53 48 137 73.5t179 24.5zM503 324q-55 -173 -67 -200q46 -38 96.5 -50t93.5 14.5
t56 94.5q9 52 -15 86t-69 47q-40 13 -95 8zM249 145q-45 5 -59 -25q-11 -25 11 -41q16 -12 45 -7q41 7 65 49q-39 22 -62 24z" />
    <glyph glyph-name="uni0413" unicode="&#x413;" horiz-adv-x="588" 
d="M598 214q4 6 13.5 3t18 -11.5t6.5 -13.5q-95 -194 -300 -202q-95 -4 -157 36.5t-59 126.5q3 84 54 140.5t145 108.5l50.5 30t42 29.5t34.5 37t16 40.5q6 37 -12 57t-53 22q-36 2 -69.5 -19t-52.5 -65q-7 -15 -29.5 -20t-42.5 3.5t-20 27.5q13 80 81 119t154 36
q81 -3 129.5 -46t44.5 -111q-3 -39 -16.5 -70.5t-43 -60t-57.5 -48.5t-78 -50q-38 -23 -54.5 -34t-40.5 -32t-34.5 -42.5t-12.5 -48.5q-3 -47 27.5 -66.5t82.5 -20.5q66 -2 132.5 36.5t100.5 107.5z" />
    <glyph glyph-name="uni0414" unicode="&#x414;" horiz-adv-x="916" 
d="M539 694q142 -4 236 -92t90 -247q-4 -166 -84 -265.5t-201 -97.5q-97 0 -186 66q-58 -66 -158 -67q-79 -1 -123.5 30.5t-40.5 86.5q5 56 49.5 84t104 24t109.5 -35q15 37 41 128.5t52.5 154t62.5 92.5q22 15 62 7t39 -24q-43 -56 -91.5 -213.5t-71.5 -199.5
q37 -28 80.5 -42t78.5 -9q68 10 107 87.5t41 192.5q4 258 -220 258q-60 0 -113.5 -29.5t-76 -77t3.5 -106.5q3 -18 -26.5 -39.5t-57.5 -10.5q-58 39 -60 110t49 126q48 55 131 82.5t173 25.5zM236 146q-40 -1 -49 -30q-9 -27 15 -41q10 -6 24 -6q51 -2 84 52q-44 25 -74 25z
" />
    <glyph glyph-name="uni0415" unicode="&#x415;" horiz-adv-x="582" 
d="M280 706q2 -36 12 -60q38 32 95.5 43.5t109 2t87.5 -42t34 -81.5q-2 -58 -44.5 -89.5t-113.5 -29.5q-34 1 -68 16t-55 37q-4 -44 28.5 -80.5t92.5 -44.5q14 -11 6.5 -41.5t-25.5 -33.5q-42 6 -84.5 -2.5t-78 -37t-42.5 -74.5q-7 -41 13.5 -68.5t50 -37t64.5 -10.5
q72 -2 133 34.5t97 107.5q5 6 14 3t17.5 -11.5t6.5 -13.5q-46 -100 -124 -149.5t-176 -51.5q-36 -1 -70.5 5.5t-66.5 22t-54.5 38t-33.5 57.5t-5 77q11 80 70.5 128t134.5 52q-42 17 -63.5 59.5t-18.5 90t25 81.5q-20 43 -20 102q0 16 25 18t27 -16zM357 568q44 -44 94 -42
q24 -1 37.5 11t14.5 32q1 26 -27 37t-64 1t-55 -39z" />
    <glyph glyph-name="uni0416" unicode="&#x416;" horiz-adv-x="1078" 
d="M933 -91q-21 1 -39 10t-32 27.5t-24.5 37t-20 47t-15.5 48.5t-14.5 51.5l-12.5 46.5q-15 54 -32 83t-44 30q-16 -59 -39.5 -156.5l-29.5 -121.5q-4 -15 -39 -21t-66 2.5t-26 28.5l80 273q-56 -4 -118 -100q-5 -7 -23.5 -35.5l-25.5 -39t-25.5 -35t-29.5 -34.5t-30.5 -26
t-36 -22t-38 -10.5t-44.5 -1.5q-25 2 -31.5 28t2.5 53t25 35q30 0 63.5 30.5t86.5 98.5q29 37 46 56.5t47 43t60 31.5q-40 38 -55.5 85.5t-20.5 119.5q-20 -36 -50.5 -62t-54.5 -38t-43.5 -30t-23.5 -41q-11 -57 41 -64q12 -3 9 -31t-17 -33q-66 -17 -113.5 11.5t-47.5 86.5
q1 40 24 69.5t59.5 51l75.5 42.5t78 55t61 77q4 18 33.5 24t58 -0.5t31.5 -19.5q-16 -88 -0.5 -163t55.5 -116l81 280q16 22 70 19.5t57 -20.5l-87 -283q46 19 81.5 51.5t59 78t36 77.5t26.5 81q13 20 69.5 14.5t57.5 -24.5q-33 -126 -96 -213.5t-151 -116.5q50 -27 81 -129
l11.5 -41.5l12.5 -44.5t13.5 -37.5t18.5 -35.5t23 -22t30 -11q21 -25 -1.5 -67.5t-66.5 -37.5z" />
    <glyph glyph-name="uni0417" unicode="&#x417;" horiz-adv-x="614" 
d="M277 -10q-77 2 -129 39.5t-76 103.5q-5 18 19 33t35 3q21 -41 62 -69.5t88 -29.5q59 -1 92.5 31.5t42.5 88.5q8 50 -14.5 88t-63.5 51q-59 -10 -77 25q-13 27 9 50q26 26 75 11q43 7 73 46t31 84q1 33 -17.5 53t-54.5 21q-41 1 -72 -23t-48 -66q-6 -11 -27 -15t-40.5 3.5
t-19.5 26.5q19 78 78.5 117t139.5 38q84 0 137.5 -40.5t52.5 -109.5q0 -62 -41 -109t-92 -62q46 -23 77.5 -73.5t21.5 -122.5q-13 -95 -85.5 -145.5t-176.5 -47.5z" />
    <glyph glyph-name="uni0418" unicode="&#x418;" horiz-adv-x="918" 
d="M464 673q20 20 75 16.5t56 -25.5q-78 -238 -138 -444q-43 -148 33 -148q48 0 96.5 53t72.5 130l120 402q23 22 76 12.5t54 -35.5q-50 -135 -138 -459q-25 -101 13 -102q33 -2 73 36.5t71 104.5q4 5 13.5 2t18 -11t6.5 -13q-35 -75 -95.5 -137.5t-132.5 -62.5
q-41 0 -67 28.5t-25 79.5q-36 -50 -90 -80t-103 -29q-193 0 -123 265q0 1 97 314q-22 -26 -57.5 -43.5t-63.5 -25t-52.5 -23t-29.5 -39.5q-12 -51 31 -65q12 -7 3.5 -34t-25.5 -28q-69 -6 -111.5 35.5t-27.5 99.5q10 40 40.5 64.5t72.5 38t86.5 25.5t92 36.5t78.5 61.5z" />
    <glyph glyph-name="uni0419" unicode="&#x419;" horiz-adv-x="918" 
d="M822 863q8 7 19 -3t15 -23.5t-1 -23.5q-29 -39 -86 -57.5t-107.5 -5t-60.5 55.5q-3 15 9.5 32.5t26.5 22.5t21 -1q13 -25 47 -29.5t66.5 6t50.5 26.5zM464 673q20 20 75 16.5t56 -25.5q-78 -238 -138 -444q-43 -148 33 -148q48 0 96.5 53t72.5 130l120 402q23 22 76 12.5
t54 -35.5q-50 -135 -138 -459q-25 -101 13 -102q33 -2 73 36.5t71 104.5q4 5 13.5 2t18 -11t6.5 -13q-35 -75 -95.5 -137.5t-132.5 -62.5q-41 0 -67 28.5t-25 79.5q-36 -50 -90 -80t-103 -29q-193 0 -123 265q0 1 97 314q-22 -26 -57.5 -43.5t-63.5 -25t-52.5 -23
t-29.5 -39.5q-12 -51 31 -65q12 -7 3.5 -34t-25.5 -28q-69 -6 -111.5 35.5t-27.5 99.5q10 40 40.5 64.5t72.5 38t86.5 25.5t92 36.5t78.5 61.5z" />
    <glyph glyph-name="uni041A" unicode="&#x41a;" horiz-adv-x="862" 
d="M752 674q21 21 72 14.5t56 -25.5q-36 -117 -102.5 -206.5t-157.5 -122.5q50 -24 68 -100q6 -23 12.5 -60t12 -64.5t15 -57t26.5 -50.5t42 -32q15 -22 -11.5 -58.5t-68.5 -33.5q-36 9 -61.5 33.5t-38.5 64t-19.5 72t-12 81t-9.5 67.5q-9 46 -26.5 69t-50.5 25
q-19 -68 -32.5 -107.5t-34.5 -81t-45.5 -62.5t-61 -34.5t-85.5 -13.5q-54 -1 -93 20.5t-54 54.5t-15 68.5t22 67.5t60 48q21 4 47.5 -13.5t25.5 -40.5q-23 -26 -28 -56t9 -50t41 -20q31 1 51.5 38t43.5 113l53.5 182l49.5 168q-23 -25 -58.5 -43t-63.5 -26.5t-51.5 -24.5
t-29.5 -40q-13 -51 31 -65q5 -4 6 -16.5t-7 -27t-21 -17.5q-68 -6 -110.5 36.5t-28.5 100.5q10 40 41 65t73.5 38t87 24.5t91.5 35.5t77 60q15 22 73 19.5t60 -23.5q-36 -98 -92 -280q27 10 51 26t41.5 31t35 38.5t27.5 39.5t22.5 43t17.5 39t15 38.5z" />
    <glyph glyph-name="uni041B" unicode="&#x41b;" horiz-adv-x="840" 
d="M761 -144q-83 0 -140 87q-63 103 -46 311q6 95 31 229h-4q-28 -107 -72 -211q-117 -274 -274 -282q-82 -5 -133 35t-45 109q3 38 25 69t55 45q20 7 49 -14t25 -40q-24 -29 -28.5 -59.5t8.5 -49t38 -17.5q109 4 296 507q-23 -21 -62 -38t-70 -27t-58 -27.5t-34 -42.5
q-14 -49 30 -65q5 -5 5.5 -17t-8.5 -26t-22 -17q-68 -3 -109 39t-25 99q12 40 44 64.5t75.5 37.5t88.5 24.5t93.5 34t81.5 57.5q11 15 46.5 19t66.5 -4.5t29 -25.5q-54 -398 -27 -526q13 -66 46 -113.5t71 -60.5q10 -4 13 -16t-1 -27t-11.5 -29t-20.5 -23t-27 -9z" />
    <glyph glyph-name="uni041C" unicode="&#x41c;" horiz-adv-x="1070" 
d="M225 -10q-68 -2 -112.5 30.5t-50.5 80.5q-7 45 14.5 89.5t68.5 58.5q18 6 47 -15.5t23 -39.5q-35 -41 -30.5 -84.5t45.5 -41.5q17 1 35 12.5t38 37.5t37 51t40 69.5l38.5 76t40 88l37.5 87.5l38 91q-31 -27 -84.5 -48t-92 -40.5t-48.5 -50.5q-15 -50 28 -67
q7 -5 6.5 -18.5t-11 -28t-24.5 -14.5q-66 -5 -106 39t-21 103q13 40 46 64.5t76.5 37.5t89 24.5t93 34.5t78.5 59q6 8 22 12.5t35 4t37 -3.5t29.5 -9.5t9.5 -14.5q-67 -314 -63 -452q0 -43 10.5 -57.5t27.5 0.5t39 56q40 72 97 207t101 257q15 18 69 13.5t65 -29.5
l-13.5 -84l-16.5 -101.5l-16.5 -104.5t-15 -111.5t-9.5 -103.5t-4 -98.5t5 -79.5q1 -10 -11.5 -18t-32 -11.5t-39 -3.5t-34 5.5t-15.5 14.5q-16 136 29 369l19 86h-3q-65 -206 -123 -290q-37 -56 -85 -75t-85.5 2.5t-48.5 74.5q-23 92 19 286h-3q-30 -106 -38 -124
q-27 -63 -52.5 -109.5t-62 -93t-82.5 -72.5t-100 -28z" />
    <glyph glyph-name="uni041D" unicode="&#x41d;" horiz-adv-x="910" 
d="M542 679q20 20 71.5 15t59.5 -27q-26 -75 -115 -363q8 -1 52 -9t67 -11l21.5 75.5t25 86l22.5 73t26 79.5t25 63q12 14 64 7.5t64 -28.5q-46 -113 -113 -364q77 5 133 46q10 7 19.5 -1t10.5 -20t-6 -21q-72 -58 -175 -67q-49 -174 -55 -197q-17 -21 -72.5 -19.5
t-63.5 26.5l56 194q-24 3 -66.5 9l-57.5 8q-18 -54 -30.5 -86t-33 -66t-43.5 -51t-57.5 -28.5t-80.5 -11.5q-97 0 -133 47.5t-22 111.5q16 81 94.5 129t196.5 42q59 186 88 267q-23 -23 -55 -30.5t-60 -2.5t-60.5 5t-57.5 -8q-53 -15 -52 -57q2 -25 27 -34t55 11
q15 2 28 -17.5t6 -35.5q-48 -50 -118 -45t-101 53q-35 51 -21 109q18 78 115 98q50 13 96 11.5t80 -9.5t72.5 0.5t73.5 42.5zM404 238q-111 -4 -139 -91q-11 -26 -2 -51t36 -25q34 -1 58 41t47 126z" />
    <glyph glyph-name="uni041E" unicode="&#x41e;" horiz-adv-x="754" 
d="M471 693q73 -3 121 -35.5t67.5 -78t23 -103t-4.5 -105.5t-22 -92q33 3 72.5 16t65.5 30q8 5 10 -10q1 -27 -11 -39q-71 -49 -158 -59q-40 -99 -117.5 -162t-181.5 -64q-135 0 -187 89q-33 55 -27 139.5t49 137.5q20 15 56 -7.5t30 -42.5q-25 -42 -26.5 -96.5t26.5 -97
t81 -43.5q109 -1 167 154q-130 17 -212.5 105t-62.5 204q10 58 50.5 96.5t89.5 52.5t101 11zM461 611q-43 2 -70.5 -22t-34.5 -68q-11 -71 36 -140t135 -88q9 36 15 81.5t6 102t-21.5 95t-65.5 39.5z" />
    <glyph glyph-name="uni041F" unicode="&#x41f;" horiz-adv-x="882" 
d="M268 -9q-89 -1 -128 43.5t-34 105.5q3 33 24.5 65.5t58.5 44.5q20 7 50 -15.5t19 -40.5q-23 -26 -27 -55.5t9.5 -48.5t38.5 -19q18 0 34 14.5t30 45t24 59.5t25 77q2 7 3 10l27 85.5l32.5 107l26.5 88.5q-110 43 -158 28q-39 -10 -46 -44q-6 -31 18 -46t61 9
q16 6 31 -15.5t10 -32.5q-38 -44 -87.5 -53.5t-89.5 10.5t-59 57q-13 34 -11.5 71t30 72t76.5 51q28 10 61 13t54.5 3t62.5 -9.5l53.5 -12.5t60.5 -19t52 -17q55 -18 76 -24t57.5 -12.5t61.5 -2.5q75 12 66 103q5 15 35.5 18t37.5 -10q20 -35 16.5 -73.5t-20.5 -71t-53 -53
t-81 -19.5q-88 2 -195 37l-72 -236q-46 -139 -71 -182q-49 -86 -140 -102q-23 -4 -50 -4zM697 -10q-68 0 -88 42t-8 123q2 25 11 62.5t17.5 66l23 76.5l19.5 65q13 18 65 11t53 -29q-58 -167 -69 -234q-10 -46 -5.5 -73t28.5 -28q35 -3 74 33.5t74 107.5q4 6 13.5 3.5
t18.5 -11t6 -14.5q-38 -78 -98.5 -139.5t-134.5 -61.5z" />
    <glyph glyph-name="uni0420" unicode="&#x420;" horiz-adv-x="793" 
d="M432 561q19 7 40.5 5.5t38.5 -10t15 -17.5q-41 -29 -100 -241q84 -18 145 18.5t76 120.5q15 81 -35 127t-129 48q-76 2 -139 -26t-88 -76t3 -111q2 -18 -26.5 -38.5t-51.5 -12.5q-66 36 -66 112q0 74 54.5 129t137 80.5t178.5 24.5q63 -1 119.5 -18t100.5 -49t65 -83.5
t9 -115.5q-21 -121 -123.5 -181.5t-250.5 -22.5q-51 -190 -59 -210q-14 -20 -70 -17t-54 31q14 33 47 164.5t73.5 235t89.5 133.5z" />
    <glyph glyph-name="uni0421" unicode="&#x421;" horiz-adv-x="646" 
d="M540 693q85 -4 125 -54t21 -122q-12 -47 -51 -80.5t-91 -45.5t-115.5 0.5t-120.5 52.5q-38 -86 -36 -173q1 -110 53 -159t134 -40q54 5 108 39.5t88 102.5q5 5 14.5 2.5t18 -11t5.5 -13.5q-49 -100 -119.5 -149t-177.5 -53q-119 -4 -192.5 74.5t-63.5 218.5
q11 145 93 254q-43 71 -48 135q-1 11 12.5 17t29 2.5t17.5 -13.5q8 -47 34 -91q114 114 262 106zM519 611q-100 5 -174 -100q39 -28 87.5 -34.5t86 12t45.5 57.5q8 25 -4.5 44.5t-40.5 20.5z" />
    <glyph glyph-name="uni0422" unicode="&#x422;" horiz-adv-x="716" 
d="M230 675q59 23 125 17.5t111.5 -21.5t106.5 -31.5t110 -11.5q46 4 65.5 25t17.5 62q10 14 34 16.5t37 -8.5q25 -42 15 -90t-40 -70q-43 -33 -103 -38t-114 6l-74 -253q-46 -141 -74 -187q-51 -86 -148 -98q-18 -2 -38 -2q-47 0 -83 15t-54 40t-24.5 53.5t-0.5 57.5
q15 69 81 93q25 4 50 -15.5t21 -38.5q-23 -26 -27 -56.5t10.5 -50.5t40.5 -19q34 1 58 52.5t54 154.5q82 286 85 294q-128 48 -174 25q-40 -17 -41 -53q-1 -30 26 -38q24 -7 57 14q16 1 28 -15.5t11 -33.5q-35 -41 -83 -52.5t-90 6.5t-63 58q-15 34 -14 70.5t28 71.5t73 51z
" />
    <glyph glyph-name="uni0423" unicode="&#x423;" horiz-adv-x="852" 
d="M495 -9q-112 -1 -183 71q-16 17 13.5 50t46.5 19q62 -54 116 -53q64 2 101 70q28 45 58 152q-74 -101 -171 -110q-57 -5 -91 21t-38 80q-3 36 5 85.5t18 86.5t30 104q-22 -23 -57 -39t-63.5 -24t-52.5 -24.5t-30 -40.5q-12 -51 32 -65q7 -5 7.5 -18.5t-8 -28t-21.5 -15.5
q-69 -6 -111.5 34.5t-28.5 98.5q10 41 41 66t73 38t87 25.5t92.5 37.5t78.5 63q12 25 73 19q49 -4 53 -19q1 -2 0 -4q-63 -191 -79 -284q-12 -46 -5.5 -83t38.5 -34q45 5 103 80t85 163l45 147q5 16 38 16.5t62.5 -12t25.5 -28.5q-81 -295 -123 -411q-43 -125 -102.5 -178.5
t-157.5 -55.5z" />
    <glyph glyph-name="uni0424" unicode="&#x424;" horiz-adv-x="1039" 
d="M860 663q90 1 127.5 -78t14.5 -216q-23 -135 -106 -236.5t-187 -100.5q-41 0 -76 20.5t-53 54.5l-17.5 -61.5l-16 -53t-16.5 -47t-17.5 -39t-20 -34t-22.5 -25.5t-27 -21t-32.5 -14t-39 -10t-45.5 -3q-77 -1 -109.5 41.5t-13.5 89.5q4 13 26.5 17t43.5 -2.5t22 -21.5
q6 -46 44 -46q40 1 63.5 50.5t54.5 171.5q-70 -67 -155 -68q-90 -1 -127.5 77.5t-14.5 216.5q15 87 54.5 163t103 125t136.5 49q90 -2 130 -78l27 102t21 80q-40 -16 -118 -3q-71 13 -92 10q-24 -3 -35 -17t-3 -30q5 -11 -13 -26t-35 -11q-27 8 -42.5 30.5t-16 48t20.5 49
t60 33.5q47 7 75 3t71.5 -15t64.5 -12q50 -5 88 36q10 15 38.5 17t51.5 -9t18 -30l-60 -246q68 68 155 69zM871 377q20 83 6.5 143.5t-61.5 59.5q-40 0 -80.5 -34.5t-65.5 -87.5l-59 -236q1 -53 28 -80t68 -25t76 45.5t55.5 98t32.5 116.5zM491 232l61 234q-2 53 -28 82.5
t-68 27.5q-59 -3 -102 -81t-63 -178q-20 -83 -6 -144t62 -60q40 1 80 35t64 84z" />
    <glyph glyph-name="uni0425" unicode="&#x425;" horiz-adv-x="861" 
d="M856 713q28 7 57.5 -26.5t14.5 -59.5q-45 -27 -102.5 -92.5t-98 -123.5l-98.5 -148q25 -75 48.5 -126.5t65 -103.5t93.5 -76q23 -22 1 -67t-53 -39q-44 9 -83 38.5t-69.5 74.5t-52 89t-43.5 101q-110 -165 -263 -163q-81 1 -122 43.5t-39 101.5q1 36 23.5 69.5t58.5 42.5
q24 7 51 -13t22 -41q-28 -25 -28 -68q-1 -25 11.5 -40.5t40.5 -15.5q37 0 91.5 58t108.5 152q-40 155 -23 301q-32 -38 -82.5 -58.5l-85.5 -35.5t-43 -43q-15 -52 30 -67q7 -2 8 -16t-7 -28.5t-21 -17.5q-66 -7 -110 32t-31 101q8 38 36.5 62.5t69 37.5t83.5 24.5t91 34
t80 55.5q19 24 69.5 22.5t55.5 -24.5q-36 -129 -17 -258q35 62 62 104t62.5 91t70.5 78.5t67 37.5z" />
    <glyph glyph-name="uni0426" unicode="&#x426;" horiz-adv-x="998" 
d="M632 -296q-51 0 -82 29t-30 72t36 80q44 48 190 84q12 37 14 49q-43 -10 -74.5 19.5t-28.5 82.5q-86 -133 -224 -129q-83 1 -109.5 71.5t7.5 194.5q14 53 50 166.5l46 146.5q-22 -26 -57 -43.5t-63.5 -25t-52.5 -23t-30 -39.5q-12 -51 31 -65q12 -4 4 -32.5t-25 -29.5
q-69 -6 -112 35.5t-28 99.5q10 40 40.5 64.5t73 38t87 25.5t92 36.5t78.5 61.5q22 20 75 16.5t56 -25.5q-87 -267 -139 -444q-43 -148 34 -148q48 0 97 54t72 132l119 397q9 15 42 17t62 -10t26 -31q-56 -154 -122 -400q-24 -73 -16 -119t60 -30q18 5 29 -2.5t11 -24.5
q-1 -16 -9 -46q42 33 72 76t74 129q4 4 13.5 1.5t18.5 -10.5t6 -13q-60 -116 -96.5 -165t-103.5 -91q-13 -55 -29.5 -94t-41 -72t-60.5 -49.5t-83 -16.5zM651 -214q51 1 78 111q-84 -30 -98 -68q-7 -19 -0.5 -31t20.5 -12z" />
    <glyph glyph-name="uni0427" unicode="&#x427;" horiz-adv-x="908" 
d="M726 -11q-156 1 -70 292q-64 -76 -142 -79q-43 -1 -72.5 12.5t-43.5 40.5t-19 60.5t1 77t16 85.5t26 90q-23 -25 -58 -42t-63 -25t-51.5 -23.5t-29.5 -38.5q-12 -51 31 -65q12 -4 4.5 -32t-25.5 -30q-69 -6 -111 35.5t-28 99.5q12 48 57 76.5t96 39t113.5 37t99.5 68.5
q13 25 73 22t62 -26q-75 -218 -86 -284q-15 -97 42 -97h3q42 2 84 45.5t65 104.5l66 220q5 17 40 18.5t66 -11t25 -29.5q-62 -176 -138 -456q-26 -98 13 -103q36 -3 76 37t71 105q4 5 13.5 2t18 -11.5t6.5 -13.5q-17 -34 -38 -65.5t-50 -64.5t-66.5 -52.5t-76.5 -19.5z" />
    </font>
</defs>
</svg>
